<svg width="250" height="55" viewBox="0 0 250 55" fill="none" xmlns="http://www.w3.org/2000/svg">
<rect width="250" height="55" rx="5" fill="#3A4101"/>
<path d="M113.769 36H109.929L103.709 25.2H103.629C103.655 25.88 103.682 26.56 103.709 27.24C103.749 27.92 103.782 28.6 103.809 29.28V36H101.109V21.72H104.929L111.129 32.42H111.189C111.162 31.7667 111.135 31.1133 111.109 30.46C111.082 29.8067 111.062 29.1467 111.049 28.48V21.72H113.769V36ZM125.598 36H117.378V21.72H125.598V24.2H120.398V27.34H125.238V29.82H120.398V33.5H125.598V36ZM140.11 36H136.65L133.33 30.6L130.01 36H126.77L131.51 28.64L127.07 21.72H130.41L133.49 26.86L136.51 21.72H139.77L135.29 28.8L140.11 36ZM147.409 36H144.389V24.24H140.509V21.72H151.289V24.24H147.409V36Z" fill="white"/>
</svg>
