<svg width="250" height="55" viewBox="0 0 250 55" fill="none" xmlns="http://www.w3.org/2000/svg">
<rect width="250" height="55" rx="5" fill="#A1D172"/>
<path d="M100.864 21.72H105.304C107.198 21.72 108.631 21.9867 109.604 22.52C110.591 23.0533 111.084 23.9933 111.084 25.34C111.084 26.1533 110.891 26.84 110.504 27.4C110.131 27.96 109.591 28.3 108.884 28.42V28.52C109.351 28.6267 109.778 28.8 110.164 29.04C110.564 29.2667 110.878 29.6067 111.104 30.06C111.331 30.5133 111.444 31.1133 111.444 31.86C111.444 33.1533 110.971 34.1667 110.024 34.9C109.091 35.6333 107.818 36 106.204 36H100.864V21.72ZM103.884 27.38H105.644C106.524 27.38 107.131 27.2467 107.464 26.98C107.811 26.7 107.984 26.2867 107.984 25.74C107.984 25.1933 107.784 24.8 107.384 24.56C106.984 24.32 106.351 24.2 105.484 24.2H103.884V27.38ZM103.884 29.78V33.5H105.864C106.771 33.5 107.404 33.3267 107.764 32.98C108.124 32.62 108.304 32.1467 108.304 31.56C108.304 31.0267 108.118 30.6 107.744 30.28C107.384 29.9467 106.724 29.78 105.764 29.78H103.884ZM123.042 36L122.002 32.6H116.802L115.762 36H112.502L117.542 21.66H121.242L126.302 36H123.042ZM121.282 30.06L120.242 26.74C120.175 26.5133 120.089 26.2267 119.982 25.88C119.875 25.5333 119.769 25.18 119.662 24.82C119.555 24.46 119.469 24.1467 119.402 23.88C119.335 24.1467 119.242 24.48 119.122 24.88C119.015 25.2667 118.909 25.64 118.802 26C118.709 26.3467 118.635 26.5933 118.582 26.74L117.562 30.06H121.282ZM133.78 24.04C132.62 24.04 131.733 24.4733 131.12 25.34C130.507 26.2067 130.2 27.3933 130.2 28.9C130.2 30.42 130.48 31.6 131.04 32.44C131.613 33.2667 132.527 33.68 133.78 33.68C134.353 33.68 134.933 33.6133 135.52 33.48C136.107 33.3467 136.74 33.16 137.42 32.92V35.46C136.793 35.7133 136.173 35.9 135.56 36.02C134.947 36.14 134.26 36.2 133.5 36.2C132.02 36.2 130.807 35.9 129.86 35.3C128.913 34.6867 128.213 33.8333 127.76 32.74C127.307 31.6333 127.08 30.3467 127.08 28.88C127.08 27.44 127.34 26.1667 127.86 25.06C128.38 23.9533 129.133 23.0867 130.12 22.46C131.12 21.8333 132.34 21.52 133.78 21.52C134.487 21.52 135.193 21.6133 135.9 21.8C136.62 21.9733 137.307 22.2133 137.96 22.52L136.98 24.98C136.447 24.7267 135.907 24.5067 135.36 24.32C134.827 24.1333 134.3 24.04 133.78 24.04ZM151.934 36H148.494L144.754 29.98L143.474 30.9V36H140.454V21.72H143.474V28.26C143.674 27.98 143.874 27.7 144.074 27.42C144.274 27.14 144.474 26.86 144.674 26.58L148.534 21.72H151.894L146.914 28.04L151.934 36Z" fill="white"/>
</svg>
