<svg width="320" height="60" viewBox="0 0 320 60" fill="none" xmlns="http://www.w3.org/2000/svg">
<rect width="320" height="60" rx="5" fill="#59B17F"/>
<path d="M135.667 23.72C137.507 23.72 138.847 24.12 139.687 24.92C140.54 25.7067 140.967 26.7933 140.967 28.18C140.967 29.02 140.793 29.8 140.447 30.52C140.1 31.24 139.52 31.82 138.707 32.26C137.907 32.7 136.813 32.92 135.427 32.92H134.127V38H131.107V23.72H135.667ZM135.507 26.2H134.127V30.44H135.127C135.98 30.44 136.653 30.2733 137.147 29.94C137.653 29.5933 137.907 29.04 137.907 28.28C137.907 26.8933 137.107 26.2 135.507 26.2ZM147.825 23.72C149.772 23.72 151.205 24.0733 152.125 24.78C153.059 25.4867 153.525 26.56 153.525 28C153.525 28.6533 153.399 29.2267 153.145 29.72C152.905 30.2 152.579 30.6133 152.165 30.96C151.765 31.2933 151.332 31.5667 150.865 31.78L155.065 38H151.705L148.305 32.52H146.685V38H143.665V23.72H147.825ZM147.605 26.2H146.685V30.06H147.665C148.665 30.06 149.379 29.8933 149.805 29.56C150.245 29.2267 150.465 28.7333 150.465 28.08C150.465 27.4 150.232 26.92 149.765 26.64C149.299 26.3467 148.579 26.2 147.605 26.2ZM162.208 38H155.708V36.28L157.448 35.48V26.24L155.708 25.44V23.72H162.208V25.44L160.468 26.24V35.48L162.208 36.28V38ZM177.302 38H173.462L167.242 27.2H167.162C167.188 27.88 167.215 28.56 167.242 29.24C167.282 29.92 167.315 30.6 167.342 31.28V38H164.642V23.72H168.462L174.662 34.42H174.722C174.695 33.7667 174.668 33.1133 174.642 32.46C174.615 31.8067 174.595 31.1467 174.582 30.48V23.72H177.302V38ZM186.411 38H183.391V26.24H179.511V23.72H190.291V26.24H186.411V38Z" fill="white"/>
</svg>
