<svg width="100" height="100" viewBox="0 0 100 100" fill="none" xmlns="http://www.w3.org/2000/svg">
<circle cx="50" cy="50" r="50" fill="#A1D172"/>
<path fill-rule="evenodd" clip-rule="evenodd" d="M47.9572 57.7308C50.0998 62.216 49.3136 67.7507 45.5986 71.4657C40.8864 76.1779 33.2464 76.1779 28.5342 71.4657C23.8219 66.7535 23.8219 59.1135 28.5342 54.4013C32.247 50.6884 37.7775 49.901 42.2613 52.039L52.824 41.4763C50.8484 37.538 51.152 32.9438 53.6135 29.5296C56.075 26.1155 60.2929 24.4383 64.5815 25.1683C65.319 25.2926 65.9449 25.8198 66.1981 26.5301C66.4513 27.2404 66.2884 28.012 65.7773 28.523L62.2691 32.0312C61.948 32.3539 61.7589 32.7871 61.7362 33.2524L61.5769 36.3638C61.5477 36.9435 61.7789 37.5196 62.2078 37.936C62.6367 38.3524 63.2189 38.5659 63.7964 38.5185L66.7812 38.2812C67.2233 38.2442 67.6316 38.0566 67.9387 37.7493L71.4684 34.2196C71.9795 33.7085 72.7511 33.5456 73.4614 33.7988C74.1717 34.052 74.6989 34.6778 74.8231 35.4154C75.5561 39.7049 73.8797 43.9249 70.4646 46.387C67.0495 48.8492 62.4534 49.1514 58.5152 47.1729L47.9572 57.7308ZM41.2106 58.7893L35.383 57.2278L31.1169 61.4939L32.6784 67.3215L38.506 68.883L42.7721 64.6169L41.2106 58.7893Z" fill="white"/>
</svg>
