<svg width="150" height="150" viewBox="0 0 150 150" fill="none" xmlns="http://www.w3.org/2000/svg">
<path d="M10 10H30L40 0H0V40L10 30V10Z" fill="#373D01"/>
<path d="M140 140H120L110 150H150V110L140 120V140Z" fill="#373D01"/>
<circle cx="75" cy="75" r="50" fill="#373D01"/>
<path fill-rule="evenodd" clip-rule="evenodd" d="M72.9572 82.7308C75.0998 87.216 74.3136 92.7507 70.5986 96.4657C65.8864 101.178 58.2464 101.178 53.5342 96.4657C48.8219 91.7535 48.8219 84.1135 53.5342 79.4013C57.247 75.6884 62.7775 74.901 67.2613 77.039L77.824 66.4763C75.8484 62.538 76.152 57.9438 78.6135 54.5296C81.075 51.1155 85.2929 49.4383 89.5815 50.1683C90.319 50.2926 90.9449 50.8198 91.1981 51.5301C91.4513 52.2404 91.2884 53.012 90.7773 53.523L87.2691 57.0312C86.948 57.3539 86.7589 57.7871 86.7362 58.2524L86.5769 61.3638C86.5477 61.9435 86.7789 62.5196 87.2078 62.936C87.6367 63.3524 88.2189 63.5659 88.7964 63.5185L91.7812 63.2812C92.2233 63.2442 92.6316 63.0565 92.9387 62.7493L96.4684 59.2196C96.9795 58.7085 97.7511 58.5456 98.4614 58.7988C99.1717 59.052 99.6989 59.6778 99.8231 60.4154C100.556 64.7049 98.8797 68.9249 95.4646 71.387C92.0495 73.8492 87.4534 74.1514 83.5152 72.1729L72.9572 82.7308ZM66.2106 83.7893L60.383 82.2278L56.1169 86.4939L57.6784 92.3215L63.506 93.883L67.7721 89.6169L66.2106 83.7893Z" fill="white"/>
</svg>
