<svg width="70" height="70" viewBox="0 0 70 70" fill="none" xmlns="http://www.w3.org/2000/svg">
<circle cx="35" cy="35" r="35" fill="#A1D172"/>
<path d="M21.4986 53.5439C23.4632 52.6632 25.2753 51.3422 27.206 51.1389C29.1198 50.9357 31.1352 52.0535 33.1506 52.2567C39.2645 52.8834 44.7517 51.1728 49.2736 47.0066C57.8602 39.0466 56.6239 26.8527 46.6824 20.3493C37.8418 14.5572 24.8858 16.4879 18.6534 24.5156C13.2169 31.5271 13.8605 40.8249 20.4994 46.7187C22.4131 48.4292 23.1075 49.8179 21.8712 52.0704C21.651 52.4938 21.6172 53.0188 21.4986 53.5439Z" fill="#3A4101"/>
<path d="M38.2012 34.6013C38.2012 36.3688 36.7684 37.8016 35.001 37.8016C33.2336 37.8016 31.8008 36.3688 31.8008 34.6013C31.8008 32.8339 33.2336 31.4011 35.001 31.4011C36.7684 31.4011 38.2012 32.8339 38.2012 34.6013Z" fill="white"/>
<path d="M30.2012 34.6013C30.2012 36.3688 28.7684 37.8016 27.001 37.8016C25.2336 37.8016 23.8008 36.3688 23.8008 34.6013C23.8008 32.8339 25.2336 31.4011 27.001 31.4011C28.7684 31.4011 30.2012 32.8339 30.2012 34.6013Z" fill="white"/>
<path d="M46.2032 34.6013C46.2032 36.3688 44.7704 37.8016 43.003 37.8016C41.2355 37.8016 39.8027 36.3688 39.8027 34.6013C39.8027 32.8339 41.2355 31.4011 43.003 31.4011C44.7704 31.4011 46.2032 32.8339 46.2032 34.6013Z" fill="white"/>
</svg>
