<svg width="100" height="100" viewBox="0 0 100 100" fill="none" xmlns="http://www.w3.org/2000/svg">
<g clip-path="url(#clip0)">
<path d="M7.5 7.5H22.5L30 0H0V30L7.5 22.5V7.5Z" fill="#3A4101"/>
<path d="M92.499 92.5H77.499L69.999 100H99.999V70L92.499 77.5V92.5Z" fill="#3A4101"/>
<circle cx="50" cy="50" r="35" fill="#3A4101"/>
<path d="M36.4986 68.5439C38.4632 67.6632 40.2753 66.3422 42.206 66.1389C44.1198 65.9357 46.1352 67.0535 48.1506 67.2567C54.2645 67.8834 59.7517 66.1728 64.2736 62.0066C72.8602 54.0466 71.6239 41.8527 61.6824 35.3493C52.8418 29.5572 39.8858 31.4879 33.6534 39.5156C28.2169 46.5271 28.8605 55.8249 35.4994 61.7187C37.4131 63.4292 38.1075 64.8179 36.8712 67.0704C36.651 67.4938 36.6172 68.0188 36.4986 68.5439Z" fill="white"/>
<path d="M53.2022 49.6013C53.2022 51.3688 51.7694 52.8016 50.002 52.8016C48.2345 52.8016 46.8018 51.3688 46.8018 49.6013C46.8018 47.8339 48.2345 46.4011 50.002 46.4011C51.7694 46.4011 53.2022 47.8339 53.2022 49.6013Z" fill="#3A4101"/>
<path d="M45.2012 49.6013C45.2012 51.3688 43.7684 52.8016 42.001 52.8016C40.2336 52.8016 38.8008 51.3688 38.8008 49.6013C38.8008 47.8339 40.2336 46.4011 42.001 46.4011C43.7684 46.4011 45.2012 47.8339 45.2012 49.6013Z" fill="#3A4101"/>
<path d="M61.2022 49.6013C61.2022 51.3688 59.7694 52.8016 58.002 52.8016C56.2345 52.8016 54.8018 51.3688 54.8018 49.6013C54.8018 47.8339 56.2345 46.4011 58.002 46.4011C59.7694 46.4011 61.2022 47.8339 61.2022 49.6013Z" fill="#3A4101"/>
</g>
<defs>
<clipPath id="clip0">
<rect width="100" height="100" fill="white"/>
</clipPath>
</defs>
</svg>
