<svg width="70" height="70" viewBox="0 0 70 70" fill="none" xmlns="http://www.w3.org/2000/svg">
<circle cx="35" cy="35" r="35" fill="#A1D172"/>
<path d="M48.5014 53.5439C46.5368 52.6632 44.7247 51.3422 42.794 51.1389C40.8802 50.9357 38.8648 52.0535 36.8494 52.2567C30.7355 52.8834 25.2483 51.1728 20.7264 47.0066C12.1398 39.0466 13.3761 26.8527 23.3176 20.3493C32.1582 14.5572 45.1142 16.4879 51.3466 24.5156C56.7831 31.5271 56.1395 40.8249 49.5006 46.7187C47.5869 48.4292 46.8925 49.8179 48.1288 52.0704C48.349 52.4938 48.3828 53.0188 48.5014 53.5439Z" fill="#3A4101"/>
<path d="M37.6057 42.1478V46.6481C37.6057 46.8481 37.5307 47.0231 37.3807 47.1732C37.2307 47.3232 37.0557 47.3982 36.8557 47.3982H32.3553C32.1553 47.3982 31.9803 47.3232 31.8303 47.1732C31.6803 47.0231 31.6053 46.8481 31.6053 46.6481V42.1478C31.6053 41.9478 31.6803 41.7728 31.8303 41.6228C31.9803 41.4728 32.1553 41.3978 32.3553 41.3978H36.8557C37.0557 41.3978 37.2307 41.4728 37.3807 41.6228C37.5307 41.7728 37.6057 41.9478 37.6057 42.1478ZM43.5311 30.897C43.5311 31.5721 43.4342 32.2034 43.2405 32.7909C43.0467 33.3784 42.828 33.8566 42.5842 34.2254C42.3404 34.5941 41.9966 34.966 41.5529 35.3411C41.1091 35.7161 40.7497 35.988 40.4747 36.1568C40.1996 36.3255 39.8184 36.5474 39.3308 36.8224C38.8183 37.11 38.3901 37.5162 38.0464 38.0413C37.7026 38.5663 37.5307 38.9851 37.5307 39.2976C37.5307 39.5101 37.4557 39.7133 37.3057 39.907C37.1557 40.1008 36.9807 40.1977 36.7807 40.1977H32.2803C32.0928 40.1977 31.9334 40.082 31.8022 39.8508C31.6709 39.6195 31.6053 39.3851 31.6053 39.1476V38.3038C31.6053 37.2662 32.0116 36.288 32.8241 35.3692C33.6367 34.4504 34.5305 33.7722 35.5056 33.3347C36.2431 32.9972 36.7682 32.6471 37.0807 32.2846C37.3932 31.9221 37.5495 31.4471 37.5495 30.8595C37.5495 30.3345 37.2588 29.8719 36.6775 29.4719C36.0962 29.0719 35.4243 28.8719 34.6618 28.8719C33.8492 28.8719 33.1742 29.0531 32.6366 29.4157C32.1991 29.7282 31.5303 30.447 30.6302 31.5721C30.4677 31.7721 30.2739 31.8721 30.0489 31.8721C29.8989 31.8721 29.7427 31.8221 29.5801 31.7221L26.5049 29.3782C26.3424 29.2531 26.2455 29.0969 26.2143 28.9094C26.183 28.7219 26.2174 28.5468 26.3174 28.3843C28.3176 25.0591 31.2178 23.3965 35.018 23.3965C36.0181 23.3965 37.0244 23.5902 38.037 23.9778C39.0496 24.3653 39.9621 24.8841 40.7747 25.5341C41.5872 26.1842 42.2498 26.9811 42.7623 27.9249C43.2749 28.8687 43.5311 29.8594 43.5311 30.897Z" fill="white"/>
</svg>
