<svg width="100" height="100" viewBox="0 0 100 100" fill="none" xmlns="http://www.w3.org/2000/svg">
<g clip-path="url(#clip0)">
<path d="M7.5 7.5H22.5L30 0H0V30L7.5 22.5V7.5Z" fill="#3A4101"/>
<path d="M92.499 92.5H77.499L69.999 100H99.999V70L92.499 77.5V92.5Z" fill="#3A4101"/>
<circle cx="50" cy="50" r="35" fill="#3A4101"/>
<path d="M64.8438 48.8204C67.6441 48.8204 69.9141 46.5503 69.9141 43.75C69.9141 40.9498 67.6441 38.6797 64.8438 38.6797C62.0435 38.6797 59.7734 40.9498 59.7734 43.75C59.7734 46.5503 62.0435 48.8204 64.8438 48.8204Z" fill="white"/>
<path d="M35.1563 48.8204C37.9566 48.8204 40.2266 46.5503 40.2266 43.75C40.2266 40.9498 37.9566 38.6797 35.1563 38.6797C32.356 38.6797 30.0859 40.9498 30.0859 43.75C30.0859 46.5503 32.356 48.8204 35.1563 48.8204Z" fill="white"/>
<path d="M38.5157 53.9884C38.4037 54.1473 38.2943 54.3088 38.1875 54.4728C36.7153 56.7446 35.9337 59.3947 35.9375 62.1018H64.0627C64.0655 59.4086 63.291 56.7718 61.8322 54.508C61.7255 54.3439 61.6161 54.1825 61.5041 54.0236C60.2054 52.1857 58.4845 50.6864 56.4861 49.6516C54.4877 48.6168 52.2701 48.0767 50.0196 48.0767C47.7692 48.0767 45.5516 48.6168 43.5532 49.6516C41.5548 50.6864 39.8339 52.1857 38.5352 54.0236L38.5157 53.9884Z" fill="white"/>
<path d="M25 58.9768H33.1016C33.7885 55.2758 35.6713 51.9025 38.461 49.3752C36.9316 48.8489 35.2987 48.6955 33.698 48.9278C32.0973 49.16 30.5753 49.7712 29.2585 50.7104C27.9418 51.6496 26.8684 52.8898 26.1276 54.3276C25.3869 55.7655 25.0003 57.3594 25 58.9768V58.9768Z" fill="white"/>
<path d="M50.0001 48.0392C53.8769 48.0392 57.0196 44.8964 57.0196 41.0196C57.0196 37.1428 53.8769 34 50.0001 34C46.1232 34 42.9805 37.1428 42.9805 41.0196C42.9805 44.8964 46.1232 48.0392 50.0001 48.0392Z" fill="white"/>
<path d="M64.8438 48.8203C63.7191 48.821 62.6023 49.0084 61.5391 49.375C64.3288 51.9023 66.2116 55.2756 66.8985 58.9766H75.0001C75.0001 56.283 73.9301 53.6997 72.0254 51.795C70.1207 49.8904 67.5374 48.8203 64.8438 48.8203Z" fill="white"/>
</g>
<defs>
<clipPath id="clip0">
<rect width="100" height="100" fill="white"/>
</clipPath>
</defs>
</svg>
