<svg width="100" height="100" viewBox="0 0 100 100" fill="none" xmlns="http://www.w3.org/2000/svg">
<g clip-path="url(#clip0)">
<path d="M7.5 7.5H22.5L30 0H0V30L7.5 22.5V7.5Z" fill="#3A4101"/>
<path d="M92.499 92.5H77.499L69.999 100H99.999V70L92.499 77.5V92.5Z" fill="#3A4101"/>
<circle cx="50" cy="50" r="35" fill="#3A4101"/>
<path d="M63.5014 68.5439C61.5368 67.6632 59.7247 66.3422 57.794 66.1389C55.8802 65.9357 53.8648 67.0535 51.8494 67.2567C45.7355 67.8834 40.2483 66.1728 35.7264 62.0066C27.1398 54.0466 28.3761 41.8527 38.3176 35.3493C47.1582 29.5572 60.1142 31.4879 66.3466 39.5156C71.7831 46.5271 71.1395 55.8249 64.5006 61.7187C62.5869 63.4292 61.8925 64.8179 63.1288 67.0704C63.349 67.4938 63.3828 68.0188 63.5014 68.5439Z" fill="white"/>
<path d="M52.6047 57.1478V61.6481C52.6047 61.8481 52.5297 62.0231 52.3797 62.1732C52.2297 62.3232 52.0547 62.3982 51.8547 62.3982H47.3544C47.1544 62.3982 46.9793 62.3232 46.8293 62.1732C46.6793 62.0231 46.6043 61.8481 46.6043 61.6481V57.1478C46.6043 56.9478 46.6793 56.7728 46.8293 56.6228C46.9793 56.4728 47.1544 56.3978 47.3544 56.3978H51.8547C52.0547 56.3978 52.2297 56.4728 52.3797 56.6228C52.5297 56.7728 52.6047 56.9478 52.6047 57.1478ZM58.5302 45.897C58.5302 46.5721 58.4333 47.2034 58.2395 47.7909C58.0457 48.3784 57.827 48.8566 57.5832 49.2254C57.3394 49.5941 56.9957 49.966 56.5519 50.3411C56.1081 50.7161 55.7487 50.988 55.4737 51.1568C55.1987 51.3255 54.8174 51.5474 54.3299 51.8224C53.8173 52.11 53.3892 52.5162 53.0454 53.0413C52.7016 53.5663 52.5297 53.9851 52.5297 54.2976C52.5297 54.5101 52.4547 54.7133 52.3047 54.907C52.1547 55.1008 51.9797 55.1977 51.7797 55.1977H47.2794C47.0918 55.1977 46.9325 55.082 46.8012 54.8508C46.6699 54.6195 46.6043 54.3851 46.6043 54.1476V53.3038C46.6043 52.2662 47.0106 51.288 47.8232 50.3692C48.6357 49.4504 49.5295 48.7722 50.5046 48.3347C51.2421 47.9972 51.7672 47.6471 52.0797 47.2846C52.3922 46.9221 52.5485 46.4471 52.5485 45.8595C52.5485 45.3345 52.2578 44.8719 51.6765 44.4719C51.0953 44.0719 50.4233 43.8719 49.6608 43.8719C48.8482 43.8719 48.1732 44.0531 47.6356 44.4157C47.1981 44.7282 46.5293 45.447 45.6292 46.5721C45.4667 46.7721 45.273 46.8721 45.048 46.8721C44.8979 46.8721 44.7417 46.8221 44.5792 46.7221L41.504 44.3782C41.3414 44.2531 41.2446 44.0969 41.2133 43.9094C41.1821 43.7219 41.2164 43.5468 41.3164 43.3843C43.3166 40.0591 46.2168 38.3965 50.0171 38.3965C51.0171 38.3965 52.0234 38.5902 53.036 38.9778C54.0486 39.3653 54.9612 39.8841 55.7737 40.5341C56.5863 41.1842 57.2488 41.9811 57.7614 42.9249C58.2739 43.8687 58.5302 44.8594 58.5302 45.897Z" fill="#3A4101"/>
</g>
<defs>
<clipPath id="clip0">
<rect width="100" height="100" fill="white"/>
</clipPath>
</defs>
</svg>
