<svg width="70" height="70" viewBox="0 0 70 70" fill="none" xmlns="http://www.w3.org/2000/svg">
<circle cx="35" cy="35" r="35" fill="#A1D172"/>
<path d="M49.8438 33.8204C52.6441 33.8204 54.9141 31.5503 54.9141 28.75C54.9141 25.9498 52.6441 23.6797 49.8438 23.6797C47.0435 23.6797 44.7734 25.9498 44.7734 28.75C44.7734 31.5503 47.0435 33.8204 49.8438 33.8204Z" fill="#3A4101"/>
<path d="M20.1563 33.8204C22.9566 33.8204 25.2266 31.5503 25.2266 28.75C25.2266 25.9498 22.9566 23.6797 20.1563 23.6797C17.356 23.6797 15.0859 25.9498 15.0859 28.75C15.0859 31.5503 17.356 33.8204 20.1563 33.8204Z" fill="#3A4101"/>
<path d="M23.5157 38.9884C23.4037 39.1473 23.2943 39.3088 23.1875 39.4728C21.7153 41.7446 20.9337 44.3947 20.9375 47.1018H49.0627C49.0655 44.4086 48.291 41.7718 46.8322 39.508C46.7255 39.3439 46.6161 39.1825 46.5041 39.0236C45.2054 37.1857 43.4845 35.6864 41.4861 34.6516C39.4877 33.6168 37.2701 33.0767 35.0196 33.0767C32.7692 33.0767 30.5516 33.6168 28.5532 34.6516C26.5548 35.6864 24.8339 37.1857 23.5352 39.0236L23.5157 38.9884Z" fill="#3A4101"/>
<path d="M10 43.9768H18.1016C18.7885 40.2758 20.6713 36.9025 23.461 34.3752C21.9316 33.8489 20.2987 33.6955 18.698 33.9278C17.0973 34.16 15.5753 34.7712 14.2585 35.7104C12.9418 36.6496 11.8684 37.8898 11.1276 39.3276C10.3869 40.7655 10.0003 42.3594 10 43.9768V43.9768Z" fill="#3A4101"/>
<path d="M35.0001 33.0392C38.8769 33.0392 42.0196 29.8964 42.0196 26.0196C42.0196 22.1428 38.8769 19 35.0001 19C31.1232 19 27.9805 22.1428 27.9805 26.0196C27.9805 29.8964 31.1232 33.0392 35.0001 33.0392Z" fill="#3A4101"/>
<path d="M49.8438 33.8203C48.7191 33.821 47.6023 34.0084 46.5391 34.375C49.3288 36.9023 51.2116 40.2756 51.8985 43.9766H60.0001C60.0001 41.283 58.9301 38.6997 57.0254 36.795C55.1207 34.8904 52.5374 33.8203 49.8438 33.8203Z" fill="#3A4101"/>
</svg>
