<svg width="373" height="400" viewBox="0 0 373 400" fill="none" xmlns="http://www.w3.org/2000/svg">
<g clip-path="url(#clip0)">
<path d="M212.576 260.49C212.311 252.019 212.047 244.342 211.782 241.43C211.252 235.076 210.723 228.723 210.723 222.37C210.193 217.869 210.723 213.369 212.576 209.398C212.576 209.133 212.841 208.869 213.105 208.604C213.9 208.074 215.223 208.339 216.017 208.604C225.548 211.516 236.666 210.457 244.872 205.692C246.726 207.81 247.255 210.192 247.784 212.575C248.579 216.546 249.373 220.517 249.638 224.487C249.638 225.282 249.638 226.076 249.638 227.135C249.638 232.164 248.579 236.929 247.784 241.959C247.255 245.136 246.726 248.313 246.99 251.489C246.99 254.137 247.52 256.519 246.99 259.166C245.667 264.461 246.461 269.491 244.872 279.021C244.078 283.786 243.284 290.139 241.696 297.287C240.902 306.288 240.107 310.523 239.049 310.788C238.254 310.788 237.195 307.611 236.137 300.993C235.078 287.492 234.283 273.991 233.225 260.49C232.43 250.43 231.636 240.106 230.842 230.047C230.048 230.047 229.254 230.311 228.724 230.311C228.195 251.754 225.283 274.52 217.871 298.081C217.341 299.934 216.547 301.787 216.017 303.905C213.635 309.729 212.047 312.376 211.517 312.111C210.723 311.847 211.252 308.405 212.576 301.522C212.841 283.786 212.841 269.755 212.576 260.49Z" fill="#E24B53"/>
<path d="M225.019 99.272C231.902 99.272 235.343 107.214 236.137 109.067C238.255 113.832 239.579 122.038 234.549 126.539C232.167 128.656 228.725 129.98 225.284 129.451C222.636 129.186 220.783 127.862 219.989 127.333C213.371 122.568 213.371 112.508 213.371 111.185C214.695 104.302 219.725 99.272 225.019 99.272Z" fill="#FFD79D"/>
<path d="M239.314 141.363C237.99 144.01 239.579 147.981 241.697 150.364C248.05 156.717 260.757 150.629 281.141 147.452C289.082 146.128 300.201 145.069 314.231 145.599C312.114 144.01 308.937 141.628 304.701 139.775C294.642 135.539 288.024 137.922 273.464 138.716C251.491 140.04 241.697 136.598 239.314 141.363Z" fill="#FFD79D"/>
<path d="M203.576 211.251C202.781 215.751 201.987 218.134 201.193 218.134C200.399 218.134 199.605 214.427 199.075 207.015C199.34 206.75 200.134 205.691 201.458 205.427C202.252 205.162 203.046 205.427 203.311 205.427L203.576 211.251Z" fill="#FFD79D"/>
<path d="M217.606 138.187C222.636 134.216 232.696 151.688 226.342 156.453C220.518 160.689 209.665 162.542 204.635 168.631C202.252 171.543 200.929 175.513 201.458 180.014C201.988 188.75 202.782 197.75 203.841 206.486L199.076 207.28C196.693 196.427 194.31 185.838 191.928 174.984C191.399 172.866 191.134 170.748 191.134 168.631C191.399 166.513 192.193 164.66 192.987 163.071C198.811 152.482 209.4 144.541 217.606 138.187Z" fill="#FFD79D"/>
<path d="M208.342 207.809L207.548 175.777C207.283 166.777 208.871 157.247 209.93 148.246C210.46 143.481 211.254 141.628 213.107 137.128C213.372 136.598 213.372 136.069 216.019 135.01C216.549 134.745 217.872 133.951 218.666 133.951C222.108 134.48 225.549 132.892 229.255 133.421C232.961 133.951 239.05 131.833 241.962 134.48C245.933 138.186 246.462 146.922 247.257 152.746C248.316 160.688 250.433 168.365 251.228 176.307C251.757 183.19 252.022 190.073 252.551 196.955C252.816 200.662 254.404 213.104 251.492 215.486C249.904 217.075 245.139 217.604 240.374 217.869C240.109 217.869 240.109 217.869 239.844 217.869C239.844 217.869 239.844 217.869 239.58 217.869C237.727 217.869 235.609 218.133 234.02 218.133C231.373 218.133 229.255 218.133 227.932 217.869C222.372 217.604 216.813 216.28 211.254 215.221C210.195 214.957 209.136 214.692 208.607 213.633C208.342 213.898 208.342 208.603 208.342 207.809Z" fill="#FFB8C7"/>
<path d="M215.224 93.1833C224.489 86.0358 241.697 94.7717 242.491 99.8015C243.02 102.449 241.697 104.037 241.697 104.037C240.902 105.096 239.844 105.625 239.579 105.625C238.52 106.155 237.461 106.155 237.196 106.155C232.961 105.89 229.784 104.302 226.343 104.567C225.019 104.831 223.166 105.361 221.313 107.214C222.107 109.332 221.048 111.714 219.195 112.508C217.607 113.302 215.489 112.773 214.43 111.185C215.224 112.244 216.548 114.097 216.548 116.744C216.548 117.538 216.548 119.126 215.754 119.656C214.695 120.185 212.312 117.538 211.253 115.685C210.988 115.42 210.724 114.626 210.459 113.567C210.194 112.773 209.93 112.244 209.93 111.449C209.93 111.185 209.93 109.596 209.93 109.332C209.4 108.802 209.4 108.008 209.665 107.478C209.665 107.478 209.665 107.214 209.4 106.949C207.547 102.713 211.518 96.0953 215.224 93.1833Z" fill="#E24B53"/>
<path d="M136.601 100.861C143.219 101.655 146.131 109.861 146.66 111.714C148.249 116.479 148.513 124.951 143.219 128.921C140.836 130.774 137.13 131.833 133.689 130.775C131.041 130.245 129.453 128.657 128.659 128.127C122.57 122.568 123.629 112.508 123.894 111.185C125.747 104.302 131.306 100.331 136.601 100.861Z" fill="#FFD79D"/>
<path d="M142.951 137.128C140.039 137.128 136.863 140.04 135.804 143.217C132.892 151.688 143.746 160.424 155.393 177.631C159.894 184.249 165.718 193.779 171.277 206.751C171.806 204.103 172.601 200.397 172.336 195.632C171.806 184.778 166.777 179.749 159.894 166.777C149.305 147.717 148.511 137.128 142.951 137.128Z" fill="#FFD79D"/>
<path d="M134.217 138.187C137.129 138.187 140.306 141.098 141.365 144.275C144.541 152.746 133.688 161.747 122.304 178.689C117.804 185.308 111.98 195.102 106.686 208.074C106.156 205.691 105.362 201.721 105.627 196.956C106.156 186.102 110.921 181.072 117.804 168.1C128.128 148.511 128.923 138.187 134.217 138.187Z" fill="#FFD79D"/>
<path d="M126.541 97.684C133.159 93.9778 142.16 96.3604 145.866 101.92C148.778 106.685 147.719 113.038 147.19 113.038C146.925 113.038 146.66 112.244 146.396 111.45C145.866 110.656 141.895 105.361 136.601 105.626C130.512 105.89 124.423 113.568 125.482 124.157C124.159 122.833 120.982 119.921 119.923 114.891C118.6 109.597 119.923 101.39 126.541 97.684Z" fill="#E24B53"/>
<path d="M126.012 99.0074C126.541 100.066 125.747 101.655 123.894 104.831C121.512 109.067 120.188 109.861 118.864 112.773C117.805 115.156 117.541 117.009 117.011 119.127C116.482 121.774 116.217 125.48 116.746 130.245C115.158 128.392 111.981 124.421 110.922 118.332C109.864 112.773 111.452 108.273 111.717 107.214C112.511 104.567 114.099 100.596 117.805 98.7427C120.982 97.6838 125.218 97.4191 126.012 99.0074Z" fill="#E24B53"/>
<path d="M159.895 204.103C159.895 199.338 159.365 194.573 158.836 189.808C158.571 186.896 158.307 183.719 156.718 181.336C149.041 186.366 139.511 186.896 131.305 182.925C130.51 182.395 129.451 182.131 128.657 182.925C128.393 183.189 128.393 183.454 128.128 183.719C126.275 188.484 125.481 193.779 125.745 199.073C126.539 214.162 125.216 229.252 124.951 244.341C124.951 252.018 124.157 263.401 122.039 277.167C120.98 293.58 121.245 302.051 122.569 302.051C123.363 302.051 124.686 299.669 126.275 294.639L139.776 225.546C140.305 225.546 141.099 225.546 141.629 225.281C142.952 231.899 142.952 238.782 142.952 245.4C142.952 262.078 140.835 276.902 142.952 293.845C144.011 302.581 145.07 302.845 145.335 302.845C147.188 302.845 149.041 291.462 150.365 281.667C151.159 275.843 151.688 271.343 152.218 268.166C153.806 255.724 153.806 250.959 155.659 235.605C156.453 228.722 156.718 225.546 156.983 224.222C158.042 218.398 159.101 212.574 159.365 206.75C159.895 206.221 159.895 205.162 159.895 204.103Z" fill="#FFD79D"/>
<path d="M162.806 225.016C163.071 220.781 162.542 216.28 162.277 212.045C162.012 207.809 162.012 203.309 161.483 199.073C160.689 190.602 159.894 181.866 158.835 173.395C156.982 158.835 153.276 144.54 143.217 135.01C140.04 135.804 136.863 135.804 133.687 135.539C133.687 135.804 133.422 135.804 133.422 136.069C127.863 157.776 125.215 180.278 120.715 202.515C120.186 205.427 119.391 208.339 118.862 211.251C117.538 214.427 115.95 217.604 115.421 221.045C115.156 221.575 114.891 221.84 114.891 222.369C113.567 223.957 113.567 226.869 115.95 227.928C116.479 228.193 117.009 228.193 117.274 228.193C117.274 228.193 117.274 228.193 117.538 228.193C125.215 231.37 133.422 233.488 141.364 233.223C141.893 233.223 142.423 233.223 142.687 232.958C145.07 233.223 147.452 233.223 149.835 233.488C152.747 233.752 156.718 234.546 159.63 232.958C161.218 232.164 161.747 230.046 161.747 228.193C162.277 227.399 162.806 226.34 162.806 225.016Z" fill="#E24B53"/>
<path d="M372.997 400V263.667L332.494 302.052L332.759 359.497L274.784 359.232L234.811 399.471L372.997 400Z" fill="#E24B53"/>
<path d="M0 0V136.334L40.7677 98.2131L40.2383 40.503L98.2131 40.7677L138.187 0.529451L0 0Z" fill="#E24B53"/>
</g>
<defs>
<clipPath id="clip0">
<rect width="372.998" height="400" fill="white"/>
</clipPath>
</defs>
</svg>
