<svg width="400" height="400" viewBox="0 0 400 400" fill="none" xmlns="http://www.w3.org/2000/svg">
<g clip-path="url(#clip0)">
<path d="M399.431 400V254.004L356.058 295.11L356.341 356.627L294.258 356.343L251.451 399.433L399.431 400Z" fill="#E27052"/>
<path d="M0 0V145.996L43.657 105.174L43.09 43.3735L105.174 43.657L147.98 0.566974L0 0Z" fill="#E27052"/>
<path d="M274.364 271.296C274.647 263.642 274.931 256.555 274.931 254.004C275.214 248.334 275.781 242.381 276.065 236.711C276.632 232.742 276.065 228.773 274.364 224.804C274.364 224.521 274.08 224.237 274.08 224.237C273.513 223.67 272.379 223.954 271.245 224.237C262.741 226.789 252.535 225.938 244.881 221.686C243.18 223.387 242.897 225.938 242.33 227.923C241.479 231.608 240.912 235.01 240.629 238.695C240.629 239.546 240.629 240.113 240.629 240.963C240.629 245.499 241.479 250.035 242.33 254.287C242.897 257.122 243.18 260.24 243.18 263.075C243.18 265.343 242.613 267.611 243.18 270.162C244.314 274.982 243.747 279.517 244.881 288.305C245.448 292.841 246.299 298.228 247.716 305.031C248.283 313.252 249.133 317.221 250.267 317.221C251.118 317.221 251.968 314.386 253.102 308.433C253.953 296.243 254.803 283.77 255.937 271.58C256.788 262.225 257.355 253.153 258.205 244.082C258.772 244.082 259.623 244.365 260.189 244.365C260.473 263.926 263.308 284.62 270.112 305.882C270.679 307.583 271.245 309.283 271.812 310.984C274.08 316.087 275.214 318.639 275.781 318.639C276.348 318.355 276.065 315.237 274.931 309C274.08 292.558 274.08 279.801 274.364 271.296Z" fill="#E27052"/>
<path d="M257.355 123.316C251.118 123.316 248 130.687 247.15 132.104C245.165 136.357 244.031 144.011 248.567 147.98C250.551 149.964 253.953 151.098 257.072 150.815C259.623 150.531 261.324 149.397 261.891 148.83C268.128 144.578 268.128 135.223 268.128 134.089C266.994 127.569 262.174 123.316 257.355 123.316Z" fill="#FFD79D"/>
<path d="M234.959 216.016C235.243 217.717 235.243 218.001 235.243 219.135C235.243 221.119 234.392 223.387 233.542 223.671C233.258 223.671 232.975 223.387 232.124 222.253C231.274 220.836 230.423 217.717 230.99 212.898C231.274 212.615 231.841 212.048 232.975 211.764C233.825 211.764 234.392 211.764 234.676 212.048C234.676 212.615 234.959 214.316 234.959 216.016Z" fill="#FFD79D"/>
<path d="M249.986 155.351C254.522 152.232 262.176 167.541 256.223 171.226C251.12 174.628 242.049 175.762 237.513 180.581C235.245 182.849 234.111 186.251 234.111 189.936C234.111 197.307 234.394 204.961 234.678 212.332C233.261 212.615 231.843 212.615 230.709 212.899C229.292 203.827 227.874 194.472 226.173 185.4C225.89 183.699 225.606 181.715 225.89 180.014C226.173 178.313 227.024 176.896 227.874 175.478C233.544 166.407 242.899 160.454 249.986 155.351Z" fill="#FFD79D"/>
<path d="M281.734 223.954C282.585 228.206 283.152 230.191 283.719 230.191C284.569 230.191 285.136 226.789 285.703 220.269C285.42 219.985 284.853 219.135 283.719 218.851C282.868 218.568 282.301 218.851 282.018 218.851C282.018 220.552 282.018 222.253 281.734 223.954Z" fill="#FFD79D"/>
<path d="M268.979 157.335C264.159 153.649 255.088 169.808 261.041 174.06C266.427 178.029 276.066 179.73 280.602 185.116C282.87 187.668 284.004 191.353 283.72 195.322C283.153 203.259 282.586 211.481 281.736 219.418C283.153 219.702 284.571 219.985 285.988 220.269L292.508 190.786C292.792 188.802 293.359 186.817 293.075 185.116C292.792 183.132 292.225 181.714 291.374 180.014C286.271 170.375 276.633 163.004 268.979 157.335Z" fill="#FFD79D"/>
<path d="M277.482 220.552C277.766 210.914 278.049 201.275 278.333 191.353C278.616 183.132 277.199 174.344 276.348 166.406C275.781 161.87 275.214 160.453 273.513 156.484C273.23 155.917 273.23 155.634 270.962 154.5C270.395 154.216 269.261 153.366 268.694 153.649C265.576 154.216 262.457 152.799 259.055 153.082C255.654 153.649 250.267 151.665 247.432 153.933C243.747 157.335 243.18 165.272 242.613 170.658C241.763 177.746 239.495 184.833 239.211 192.203C238.644 198.44 238.361 204.677 238.077 211.197C237.794 214.599 236.377 225.938 239.211 228.206C240.629 229.624 244.881 230.191 249.133 230.474C249.417 230.474 249.417 230.474 249.7 230.474C251.401 230.474 253.102 230.758 254.803 230.758C257.071 230.758 259.055 230.758 260.189 230.758C265.292 230.474 270.395 229.34 275.214 228.206C276.065 227.923 277.199 227.639 277.482 226.789C277.482 226.222 277.199 221.403 277.482 220.552Z" fill="#FF9F78"/>
<path d="M266.428 117.647C257.924 111.127 242.332 119.064 241.765 123.6C241.481 125.868 242.332 127.569 242.332 127.569C242.899 128.703 244.033 128.986 244.316 128.986C245.167 129.27 246.017 129.27 246.584 129.27C250.27 128.986 253.388 127.569 256.223 127.852C257.357 128.136 259.058 128.419 260.759 130.12C260.192 132.105 261.042 134.089 262.743 134.939C264.16 135.506 266.145 135.223 267.279 133.806C266.428 134.656 265.294 136.64 265.294 138.908C265.294 139.759 265.294 141.176 265.861 141.46C266.995 142.027 268.98 139.475 270.114 137.774C270.397 137.491 270.681 136.64 270.964 136.073C271.248 135.223 271.248 134.656 271.531 134.089C271.531 133.806 271.531 132.388 271.531 132.105C272.098 131.538 272.098 130.971 271.815 130.404C271.815 130.404 271.815 130.12 272.098 130.12C273.232 126.151 269.83 120.198 266.428 117.647Z" fill="#E27052"/>
<path d="M198.106 237.278C198.106 236.711 193.571 236.995 193.287 237.278C189.602 237.278 185.917 237.278 182.231 237.278C181.381 237.278 180.53 237.278 179.68 237.845C178.829 238.412 174.01 239.829 174.01 240.963C173.727 263.642 178.546 286.321 178.262 309C178.262 310.985 178.262 317.221 179.396 317.221C180.53 317.505 182.515 310.985 183.082 309C183.649 306.449 183.932 302.763 185.633 298.228C187.05 294.826 188.468 291.141 189.035 287.739C192.72 271.58 197.823 254.287 198.106 237.278Z" fill="#E27052"/>
<path d="M160.402 237.845C151.898 236.428 150.48 234.16 149.063 235.294C144.527 238.979 155.3 260.808 153.882 270.446C153.315 273.281 153.032 276.116 151.898 278.667C151.331 280.085 150.764 281.219 150.197 282.353C149.346 283.77 148.779 284.621 148.779 284.904C146.228 288.873 142.826 299.645 140.842 306.449C138.857 313.253 138.007 315.237 138.574 315.521C139.424 316.088 142.826 312.119 145.944 308.15C151.614 301.063 155.866 295.677 159.835 291.141C162.103 288.589 165.222 284.904 167.773 279.234C168.623 277.533 169.19 275.833 170.041 273.848C171.175 271.013 172.592 249.185 172.876 246.066C173.159 243.515 174.577 242.098 173.726 240.68C172.309 238.129 168.056 238.979 160.402 237.845Z" fill="#E27052"/>
<path d="M133.755 109.709C133.755 107.158 133.471 102.622 131.77 102.055C131.203 101.771 130.636 102.055 130.636 102.338C127.518 104.039 129.219 112.26 129.219 113.394C129.786 113.678 130.636 113.961 131.487 113.961C132.337 114.245 133.188 114.245 133.755 114.245C133.755 113.111 134.038 111.693 133.755 109.709Z" fill="#FFD79D"/>
<path d="M155.584 170.942C161.254 173.777 169.191 157.902 162.104 154.5C155.584 151.382 144.811 150.531 139.142 145.712C136.307 143.444 134.889 140.042 134.606 136.357C134.322 128.703 134.039 121.048 134.039 113.394C132.338 113.394 130.921 113.111 129.22 113.111C128.086 122.466 126.952 132.104 125.534 141.46C125.251 143.16 124.967 145.145 125.534 146.846C126.101 148.547 126.952 149.964 128.086 151.382C135.173 160.453 146.512 166.406 155.584 170.942Z" fill="#FFD79D"/>
<path d="M224.187 117.647C223.903 117.364 223.336 117.364 223.336 117.364C221.636 117.08 219.651 119.915 219.084 121.332C218.517 122.183 217.95 124.167 217.95 126.719C218.517 127.002 219.084 127.286 219.651 127.569C219.651 127.569 220.502 127.853 221.352 127.569C221.636 127.569 222.486 127.002 223.903 122.466C224.754 119.064 224.47 118.214 224.187 117.647Z" fill="#FFD79D"/>
<path d="M217.67 126.435C215.969 132.955 213.701 139.475 211.717 145.996C210.583 149.397 208.598 151.665 205.763 153.083C199.81 155.918 193.573 156.201 187.337 157.619C180.533 159.036 181.667 165.84 187.053 167.257C195.841 169.242 205.48 166.69 213.701 160.737C214.835 159.887 216.252 158.753 216.819 157.335C217.67 155.918 217.953 154.217 218.237 152.516C219.371 144.011 220.788 135.79 221.922 127.286C220.505 127.002 219.087 126.719 217.67 126.435Z" fill="#FFD79D"/>
<path d="M163.804 126.718C162.386 129.269 161.819 132.388 161.819 135.223C161.252 141.459 161.536 144.578 162.386 145.995C164.087 149.397 167.489 150.531 168.056 150.814C171.458 152.232 174.293 151.381 175.143 151.098C181.096 149.113 183.081 145.712 183.648 144.578C187.05 137.774 182.23 128.702 181.663 126.434C181.663 126.151 181.663 125.867 181.38 125.584C181.096 125.3 180.813 125.3 180.53 125.3C175.994 124.45 171.174 124.45 166.355 124.734C165.788 124.734 165.221 124.734 164.938 125.017C164.371 125.584 164.087 126.151 163.804 126.718Z" fill="#FFD79D"/>
<path d="M184.783 120.482C183.932 119.631 183.082 119.631 182.798 119.631C181.381 119.631 180.53 120.482 180.53 120.765C180.247 120.482 179.68 119.915 179.113 119.348C179.113 119.348 177.979 118.214 176.278 117.647C174.577 116.797 166.923 115.096 162.104 119.348C155.017 125.585 160.403 138.909 160.97 140.326C160.97 140.326 160.97 140.326 160.97 140.609C160.97 140.893 160.97 140.893 160.97 140.893C161.253 138.909 161.537 137.208 161.82 135.223C162.387 135.223 162.954 135.223 163.521 135.223C167.49 134.656 169.474 129.554 169.758 128.703C171.175 128.987 173.727 129.27 176.845 128.703C179.963 127.853 181.948 126.435 183.082 125.585C183.932 125.301 184.499 124.734 184.783 123.884C185.633 122.75 185.633 121.332 184.783 120.482Z" fill="#E27052"/>
<path d="M205.761 160.17C207.746 157.051 205.194 150.815 199.808 153.366C198.674 153.933 196.69 153.933 195.272 154.216C194.138 154.5 193.004 154.783 191.587 155.067C189.319 155.067 187.051 155.067 185.067 154.783C184.5 154.783 183.933 154.783 183.366 154.783C183.082 154.5 183.082 154.216 182.799 153.933C175.428 155.35 167.49 154.5 160.403 151.948C159.836 151.948 159.553 151.948 158.986 151.948C157.285 151.948 155.867 151.665 154.166 151.382C153.316 151.098 152.466 151.098 151.899 150.815C150.481 147.98 146.229 146.279 143.677 149.114C143.11 149.681 142.544 150.248 141.977 150.815C140.559 151.382 139.709 152.515 139.142 153.933C138.291 154.783 137.441 155.917 136.59 156.768C134.606 159.036 134.889 161.587 136.307 163.288C137.157 164.705 138.575 165.556 139.992 165.272C140.276 165.556 140.559 166.123 140.843 166.406C142.544 167.824 144.244 168.958 145.945 170.659C147.363 172.076 148.78 173.493 150.198 174.911C149.064 178.88 147.93 183.132 147.363 187.101C147.079 188.518 147.079 189.936 146.796 191.353C144.528 203.827 144.528 216.3 144.811 228.773C144.244 229.907 143.961 231.041 143.677 232.459C140.559 234.443 139.992 239.829 144.528 240.963C149.631 242.097 154.733 242.948 160.12 243.515H160.403C161.254 243.798 162.388 244.082 163.522 244.365C166.923 244.932 170.042 245.499 173.444 246.066C179.964 246.917 186.484 247.2 192.721 247.2C196.123 247.2 199.524 244.649 199.524 240.68C199.524 218.568 197.256 196.456 194.422 174.911C197.256 172.927 200.091 170.942 202.926 168.674C205.761 167.824 207.179 164.989 206.045 162.154C205.761 161.587 205.761 160.737 205.761 160.17Z" fill="#FF9F78"/>
</g>
<defs>
<clipPath id="clip0">
<rect width="399.433" height="400" fill="white"/>
</clipPath>
</defs>
</svg>
