<svg width="373" height="400" viewBox="0 0 373 400" fill="none" xmlns="http://www.w3.org/2000/svg">
<g clip-path="url(#clip0)">
<path fill-rule="evenodd" clip-rule="evenodd" d="M185.574 92.6538C174.19 90.2712 158.572 96.6246 157.777 109.861C157.248 120.45 157.777 124.156 151.424 127.862C141.894 133.686 144.276 149.57 154.865 152.482C169.425 156.453 155.13 158.306 177.102 159.365C199.075 160.159 200.133 151.688 209.664 144.275C218.135 138.187 218.135 121.509 207.811 116.744C197.486 111.714 207.81 97.4188 185.574 92.6538Z" fill="#4074AD"/>
<path fill-rule="evenodd" clip-rule="evenodd" d="M213.103 226.87L199.867 227.929L203.309 311.847H207.015L213.103 226.87Z" fill="#4074AD"/>
<path fill-rule="evenodd" clip-rule="evenodd" d="M168.365 226.87L155.129 227.929L158.57 311.847H162.276L168.365 226.87Z" fill="#4074AD"/>
<path fill-rule="evenodd" clip-rule="evenodd" d="M167.834 190.337C167.834 190.337 140.038 201.456 143.48 219.193C146.921 236.929 168.364 236.135 184.777 235.341C201.19 234.811 221.574 233.752 223.427 217.339C225.28 201.456 210.455 187.69 167.834 190.337Z" fill="#4074AD"/>
<path fill-rule="evenodd" clip-rule="evenodd" d="M185.573 205.957C181.602 204.898 171.013 210.722 163.601 223.693C156.189 236.929 151.688 245.665 139.511 280.08C136.334 289.08 133.687 296.493 132.099 300.728C145.6 284.315 156.983 271.873 164.66 263.402C175.778 251.489 181.073 243.018 186.897 230.576C195.103 213.898 189.544 207.015 185.573 205.957Z" fill="#7CB3E5"/>
<path fill-rule="evenodd" clip-rule="evenodd" d="M181.865 218.398C177.894 219.193 171.541 229.782 171.276 244.606C171.276 269.226 173.659 290.139 178.159 305.493C179.748 311.317 181.601 316.347 182.66 319.523C184.513 311.052 187.954 296.757 191.925 278.491C196.161 259.166 196.161 250.695 195.102 239.047C194.043 220.781 185.836 217.604 181.865 218.398Z" fill="#A8C8EB"/>
<path fill-rule="evenodd" clip-rule="evenodd" d="M175.776 136.069C175.776 136.069 176.041 143.481 173.923 148.776C171.806 154.07 187.424 158.306 190.072 149.57C190.072 149.57 187.16 144.805 188.483 139.245C189.542 133.686 181.336 127.598 175.776 136.069Z" fill="#FFD79D"/>
<path fill-rule="evenodd" clip-rule="evenodd" d="M190.337 109.596C187.16 105.625 182.395 107.478 180.807 116.214C179.748 122.303 167.835 124.685 168.1 126.803C169.159 137.392 177.895 143.216 181.601 142.951C191.131 142.157 196.955 123.626 195.102 122.038C191.661 118.332 192.72 113.037 190.337 109.596Z" fill="#FFD79D"/>
<path d="M220.78 147.981H144.539V197.22H220.78V147.981Z" fill="#A8C8EB"/>
<path fill-rule="evenodd" clip-rule="evenodd" d="M181.865 164.395C186.365 164.395 189.806 168.101 189.806 172.336C189.806 176.837 186.1 180.278 181.865 180.278C177.364 180.278 173.923 176.572 173.923 172.336C173.923 167.836 177.629 164.395 181.865 164.395Z" fill="#4074AD"/>
<path d="M264.195 195.103H105.095V203.045H264.195V195.103Z" fill="#3FA2BD"/>
<path d="M372.997 400V263.667L332.494 302.052L332.759 359.497L274.784 359.232L234.811 399.471L372.997 400Z" fill="#4074AD"/>
<path d="M0 0V136.334L40.7677 98.2131L40.2383 40.503L98.2131 40.7677L138.187 0.529451L0 0Z" fill="#4074AD"/>
</g>
<defs>
<clipPath id="clip0">
<rect width="372.998" height="400" fill="white"/>
</clipPath>
</defs>
</svg>
