<svg width="400" height="400" viewBox="0 0 400 400" fill="none" xmlns="http://www.w3.org/2000/svg">
<g clip-path="url(#clip0)">
<path d="M142.026 269.029C142.026 260.241 141.743 252.303 141.46 249.469C140.893 242.948 140.326 236.428 140.326 229.908C139.759 225.372 140.326 220.836 142.31 216.301C142.31 216.017 142.593 215.734 142.877 215.45C143.727 214.883 144.861 215.167 145.995 215.45C155.917 218.285 167.257 217.151 175.761 212.615C177.462 214.6 178.029 217.435 178.596 219.702C179.447 223.671 180.297 227.924 180.581 231.892C180.581 232.743 180.581 233.593 180.581 234.444C180.581 239.546 179.447 244.649 178.596 249.752C178.029 253.154 177.746 256.272 177.746 259.674C177.746 262.509 178.313 264.777 177.746 267.612C176.328 272.998 177.179 278.101 175.761 288.023C175.194 293.126 174.061 299.362 172.643 306.733C171.793 315.804 170.942 320.624 169.808 320.624C168.958 320.624 167.824 317.222 166.69 310.702C165.839 296.811 164.705 282.92 163.571 268.746C162.721 258.257 161.871 247.768 161.02 237.562L158.752 237.846C158.185 259.958 155.067 283.487 147.413 307.583C146.846 309.568 145.995 311.552 145.428 313.537C142.877 319.49 141.46 322.325 140.893 322.041C140.326 321.758 140.609 318.356 141.743 311.269C142.593 293.126 142.31 278.668 142.026 269.029Z" fill="#59AC7F"/>
<path d="M159.885 101.205C166.972 101.205 170.658 109.426 171.225 111.127C173.493 115.946 174.627 124.451 169.524 129.27C167.256 131.538 163.571 132.672 159.885 132.389C157.05 132.105 155.066 130.688 154.499 130.121C147.695 125.301 147.695 114.812 147.695 113.395C149.113 106.308 154.499 101.205 159.885 101.205Z" fill="#FFD79D"/>
<path d="M185.116 206.379C184.832 208.08 184.832 208.647 184.832 209.78C184.832 212.048 185.683 214.6 186.816 214.883C187.1 214.883 187.667 214.6 188.234 213.182C189.084 211.481 190.218 208.08 189.651 202.41C189.368 202.126 188.517 201.276 187.383 201.276C186.533 201.276 185.966 201.276 185.683 201.559C185.399 202.693 185.399 204.394 185.116 206.379Z" fill="#FFD79D"/>
<path d="M168.107 137.775C163.005 134.373 154.217 151.666 160.737 155.918C166.69 159.603 176.895 161.021 181.998 166.407C184.55 168.958 185.967 172.644 185.684 176.896C185.684 185.401 185.4 193.905 184.833 202.41C186.251 202.693 187.951 202.693 189.369 202.977C191.07 192.488 192.771 182.282 194.472 171.793C194.755 169.809 195.039 167.824 194.755 165.557C194.472 163.572 193.621 161.871 192.487 160.454C186.818 150.248 176.329 143.445 168.107 137.775Z" fill="#FFD79D"/>
<path d="M132.104 215.166C131.254 219.986 130.403 222.254 129.836 222.254C128.986 222.254 128.135 218.568 127.568 210.914C127.852 210.631 128.419 209.78 129.836 209.497C130.687 209.213 131.537 209.497 131.821 209.497C131.821 211.481 132.104 213.465 132.104 215.166Z" fill="#FFD79D"/>
<path d="M146.563 139.759C151.949 135.791 162.155 153.934 155.351 158.753C149.114 163.289 138.342 165.273 132.956 171.51C130.404 174.628 129.27 178.597 129.554 183.133C130.121 192.204 130.971 201.276 131.822 210.348C130.121 210.631 128.42 210.915 127.002 211.198C124.451 200.142 122.183 189.086 119.632 178.03C119.065 175.762 118.781 173.778 118.781 171.51C119.065 169.526 119.915 167.541 120.766 165.84C127.286 154.501 138.058 146.28 146.563 139.759Z" fill="#FFD79D"/>
<path d="M137.21 211.765L136.36 178.597C136.076 169.242 137.777 159.603 138.628 150.248C139.194 145.146 140.045 143.445 141.746 138.909C142.029 138.342 142.029 137.775 144.864 136.641C145.431 136.357 146.849 135.507 147.699 135.507C151.384 136.074 154.786 134.373 158.472 134.94C162.157 135.507 168.677 133.239 171.512 136.074C175.764 139.759 176.048 148.831 176.898 155.068C178.032 163.005 180.3 171.226 180.867 179.448C181.434 186.535 181.718 193.622 182.001 200.993C182.284 204.678 183.702 217.718 180.867 220.27C179.166 221.687 174.347 222.538 169.528 222.821C169.244 222.821 169.244 222.821 168.961 222.821C166.976 222.821 164.992 223.104 163.291 223.104C160.739 223.104 158.472 223.104 157.054 222.821C151.384 222.538 145.715 221.404 140.045 219.986C138.911 219.703 138.061 219.419 137.494 218.569C136.927 218.002 137.21 212.615 137.21 211.765Z" fill="#93D1BE"/>
<path d="M149.68 94.9675C159.319 87.5968 176.895 96.6684 177.745 101.771C178.312 104.323 176.895 106.307 176.895 106.307C176.044 107.441 174.91 108.008 174.627 108.008C173.493 108.575 172.642 108.575 172.075 108.575C167.823 108.291 164.421 106.59 161.019 107.157C159.602 107.441 157.901 108.008 155.633 109.992C156.484 112.26 155.35 114.528 153.365 115.379C151.664 116.229 149.68 115.662 148.263 113.961C149.113 115.095 150.53 117.079 150.53 119.914C150.53 120.765 150.53 122.466 149.68 122.749C148.546 123.316 145.995 120.481 144.861 118.497C144.577 118.213 144.294 117.363 144.01 116.512C143.727 115.662 143.727 115.095 143.443 114.245C143.443 113.961 143.443 112.26 143.443 112.26C142.876 111.693 142.876 110.843 143.16 110.276C143.16 110.276 143.16 109.992 142.876 109.992C141.742 104.606 145.711 97.8024 149.68 94.9675Z" fill="#59AC7F"/>
<path d="M208.363 217.435C208.363 212.332 208.93 207.229 209.497 202.126C209.781 199.008 210.064 195.606 211.765 193.055C219.986 198.441 230.192 199.008 238.98 194.756C239.83 194.189 240.964 193.905 241.815 194.756C242.098 195.039 242.098 195.323 242.382 195.606C244.366 200.709 245.217 206.379 244.933 212.048C244.083 228.207 245.5 244.366 245.784 260.525C245.784 268.746 246.634 280.936 248.902 295.677C250.036 313.253 249.752 322.325 248.335 322.325C247.484 322.325 246.067 319.773 244.366 314.387C239.547 289.724 234.728 265.06 229.908 240.397C229.341 240.397 228.491 240.397 227.924 240.114C226.506 247.201 226.506 254.571 226.506 261.659C226.506 279.518 228.774 295.393 226.506 313.537C225.372 322.892 224.239 323.175 223.955 323.175C221.971 323.175 219.986 310.985 218.569 300.496C217.718 294.26 217.151 289.44 216.868 286.038C215.167 272.715 214.883 267.612 213.183 251.169C212.332 243.799 212.049 240.397 211.765 238.98C210.631 232.743 209.497 226.506 209.214 220.269C208.363 219.419 208.363 218.285 208.363 217.435Z" fill="#FFD79D"/>
<path d="M223.671 127.853C223.671 124.167 225.372 120.766 226.79 117.364C227.924 114.529 229.341 111.977 231.609 109.993C232.176 109.71 232.46 109.143 233.31 109.143C233.877 109.143 234.444 109.143 234.727 109.426C239.263 110.843 244.082 112.261 248.051 114.529C248.335 114.812 248.618 114.812 248.902 115.379C248.902 115.663 248.902 115.946 248.902 116.23C247.201 125.585 243.799 137.775 234.444 140.326C233.593 140.61 232.176 140.893 230.475 140.61C228.207 140.326 226.506 138.909 225.939 138.342C224.805 135.79 223.388 132.105 223.671 127.853Z" fill="#FFD79D"/>
<path d="M214.598 161.587C216.299 156.768 218.283 149.114 218.85 139.475C219.984 125.301 217.433 119.631 221.685 111.694C221.968 111.127 228.205 99.2202 239.261 99.2202C244.931 99.2202 251.167 102.055 254.002 107.158C255.136 109.142 255.42 115.662 255.703 128.703C255.703 131.821 255.987 134.373 257.688 136.924C259.672 140.042 261.94 139.475 264.491 142.594C268.177 146.846 268.177 151.665 268.177 152.516C268.177 156.485 266.759 159.603 265.909 161.02C265.342 162.154 263.074 165.556 258.822 167.257C251.451 170.375 244.08 165.84 241.812 163.572C240.395 162.154 239.545 160.737 239.545 160.737C238.978 159.886 238.694 159.036 237.844 157.052C237.56 156.485 236.426 153.65 236.143 152.232C235.009 148.263 235.859 142.877 237.844 138.058C240.395 132.955 242.663 133.239 244.931 128.703C247.482 123.884 247.199 118.497 246.348 114.245C245.781 113.395 244.931 112.828 244.08 112.544C242.946 113.678 240.111 115.946 235.859 116.796C231.607 117.93 227.922 117.08 226.504 116.513C225.937 117.93 225.087 120.198 225.087 123.033C225.087 127.569 227.355 128.419 227.638 132.955C228.205 138.341 225.37 139.192 225.654 144.862C225.937 149.397 227.922 150.531 227.355 153.083C227.355 155.918 224.52 159.319 214.598 161.587Z" fill="#59AC7F"/>
<path d="M205.245 239.546C204.962 235.011 205.529 230.191 205.812 225.656C206.096 221.12 206.096 216.3 206.663 211.765C207.513 202.693 208.364 193.338 209.498 184.266C211.482 168.958 215.451 153.65 226.223 143.444C229.625 144.295 233.027 144.295 236.429 144.011C236.429 144.295 236.712 144.295 236.712 144.578C242.665 167.824 245.5 191.921 250.32 215.733C250.887 218.852 251.737 221.97 252.304 225.089C253.721 228.49 255.422 231.892 255.989 235.578C256.273 236.145 256.556 236.428 256.556 236.995C257.974 238.696 257.974 241.814 255.422 242.948C254.855 243.232 254.288 243.232 254.005 243.232C254.005 243.232 254.005 243.232 253.721 243.232C245.5 246.634 236.712 248.901 228.208 248.618C227.641 248.618 227.074 248.618 226.79 248.334C224.239 248.618 221.687 248.618 219.136 248.901C216.018 249.185 211.765 250.035 208.647 248.334C206.946 247.484 206.379 245.216 206.379 243.232C205.812 242.381 205.245 240.964 205.245 239.546Z" fill="#93D1BE"/>
<path d="M226.789 168.958C231.608 171.509 244.365 178.313 250.318 177.463C244.365 172.076 238.979 165.556 236.144 162.154C232.742 158.186 233.592 151.665 234.443 146.846C235.01 143.728 238.412 143.728 240.113 145.712C241.246 145.712 242.097 146.279 242.664 147.413C248.617 159.887 259.39 170.376 262.225 183.983C262.508 185.967 261.941 188.519 259.673 188.802C246.349 191.354 236.427 177.463 225.088 172.643C220.268 170.943 225.088 168.108 226.789 168.958Z" fill="#FFD79D"/>
<path d="M207.795 168.392C208.079 167.825 208.079 168.108 210.63 165.557C213.181 163.005 214.032 161.871 214.315 162.155C214.599 162.438 213.748 163.856 212.898 166.974C212.331 168.392 212.331 169.809 212.047 170.659C212.331 170.376 212.898 170.092 213.748 169.809C214.315 169.525 214.882 169.242 215.449 168.959C219.701 167.825 221.119 167.825 221.119 168.392C221.686 169.525 217.434 171.226 212.331 176.896C211.764 177.463 211.197 178.314 210.63 178.314C208.362 177.747 206.094 171.793 207.795 168.392Z" fill="#FFD79D"/>
<path d="M399.431 400V254.004L356.058 295.11L356.341 356.627L294.258 356.343L251.451 399.433L399.431 400Z" fill="#59AC7F"/>
<path d="M0 0V145.996L43.657 105.174L43.09 43.3735L105.174 43.657L147.98 0.566974L0 0Z" fill="#59AC7F"/>
</g>
<defs>
<clipPath id="clip0">
<rect width="399.433" height="400" fill="white"/>
</clipPath>
</defs>
</svg>
