<svg width="200" height="200" viewBox="0 0 200 200" fill="none" xmlns="http://www.w3.org/2000/svg">
<circle cx="100" cy="100" r="100" fill="#A1D172"/>
<path d="M142.412 96.6294C150.413 96.6294 156.899 90.1435 156.899 82.1427C156.899 74.1419 150.413 67.656 142.412 67.656C134.412 67.656 127.926 74.1419 127.926 82.1427C127.926 90.1435 134.412 96.6294 142.412 96.6294Z" fill="#3A4101"/>
<path d="M57.5902 96.6294C65.591 96.6294 72.0769 90.1435 72.0769 82.1427C72.0769 74.1419 65.591 67.656 57.5902 67.656C49.5894 67.656 43.1035 74.1419 43.1035 82.1427C43.1035 90.1435 49.5894 96.6294 57.5902 96.6294Z" fill="#3A4101"/>
<path d="M67.1884 111.395C66.8685 111.849 66.556 112.311 66.2509 112.779C62.0446 119.27 59.8115 126.842 59.8223 134.576H140.18C140.188 126.882 137.975 119.348 133.807 112.88C133.502 112.411 133.19 111.95 132.87 111.496C129.159 106.245 124.242 101.961 118.532 99.0044C112.823 96.0478 106.487 94.5046 100.057 94.5046C93.6271 94.5046 87.2912 96.0478 81.5815 99.0044C75.8717 101.961 70.955 106.245 67.2442 111.496L67.1884 111.395Z" fill="#3A4101"/>
<path d="M28.5723 125.648H51.7198C53.6822 115.073 59.0618 105.435 67.0324 98.2146C62.6626 96.7109 57.997 96.2727 53.4237 96.9362C48.8504 97.5997 44.5017 99.3459 40.7395 102.029C36.9773 104.713 33.9104 108.256 31.7941 112.364C29.6778 116.473 28.5732 121.027 28.5723 125.648V125.648Z" fill="#3A4101"/>
<path d="M100.001 94.3975C111.078 94.3975 120.057 85.4182 120.057 74.3416C120.057 63.265 111.078 54.2856 100.001 54.2856C88.9247 54.2856 79.9453 63.265 79.9453 74.3416C79.9453 85.4182 88.9247 94.3975 100.001 94.3975Z" fill="#3A4101"/>
<path d="M142.413 96.6294C139.199 96.6312 136.009 97.1668 132.971 98.2142C140.941 105.435 146.321 115.073 148.283 125.647H171.431C171.431 117.951 168.374 110.571 162.932 105.129C157.49 99.6866 150.109 96.6294 142.413 96.6294Z" fill="#3A4101"/>
</svg>
