<svg width="200" height="200" viewBox="0 0 200 200" fill="none" xmlns="http://www.w3.org/2000/svg">
<circle cx="100" cy="100" r="100" fill="#A1D172"/>
<path d="M61.4243 152.982C67.0374 150.466 72.215 146.692 77.7312 146.111C83.1992 145.53 88.9574 148.724 94.7156 149.305C112.184 151.095 127.862 146.208 140.782 134.304C165.315 111.562 161.782 76.722 133.378 58.1408C108.119 41.5919 71.102 47.1082 53.295 70.0443C37.7623 90.0772 39.6011 116.643 58.5694 133.482C64.0373 138.369 66.0212 142.337 62.4889 148.773C61.8598 149.982 61.763 151.482 61.4243 152.982Z" fill="#3A4101"/>
<path d="M109.146 98.8603C109.146 103.91 105.053 108.004 100.003 108.004C94.9531 108.004 90.8594 103.91 90.8594 98.8603C90.8594 93.8105 94.9531 89.7168 100.003 89.7168C105.053 89.7168 109.146 93.8105 109.146 98.8603Z" fill="white"/>
<path d="M86.289 98.8603C86.289 103.91 82.1953 108.004 77.1455 108.004C72.0956 108.004 68.002 103.91 68.002 98.8603C68.002 93.8105 72.0956 89.7168 77.1455 89.7168C82.1953 89.7168 86.289 93.8105 86.289 98.8603Z" fill="white"/>
<path d="M132.009 98.8603C132.009 103.91 127.915 108.004 122.865 108.004C117.815 108.004 113.722 103.91 113.722 98.8603C113.722 93.8105 117.815 89.7168 122.865 89.7168C127.915 89.7168 132.009 93.8105 132.009 98.8603Z" fill="white"/>
</svg>
