<svg width="246" height="246" viewBox="0 0 246 246" fill="none" xmlns="http://www.w3.org/2000/svg">
<path d="M0.900391 0.399902V195.8C107.6 193.2 193.5 107.1 195.8 0.399902H0.900391Z" fill="#4074B2"/>
<path d="M1.40039 206.4C113.8 203.5 203.7 113.4 206.3 1H245.3C244 65.6 218.2 126.4 172.4 172.2C126.8 218 66.1004 244 1.40039 245.4V206.4Z" fill="white"/>
<path d="M244.9 1.3999C243.5 65.6999 217.7 126.2 172.2 171.8C126.7 217.4 66.3 243.3 2 244.8V206.8C114.3 203.7 204.1 113.7 206.9 1.3999H244.9ZM245.9 0.399902H205.9C203.5 112.6 113.1 203.2 1 205.8V245.8C135.2 243.2 243.5 134.8 245.9 0.399902Z" fill="#4074B2"/>
<path d="M174.501 132.9L176.601 133.7L178.601 131.1L177.301 129.3L178.501 127.7L183.801 135.6L182.401 137.5L173.301 134.6L174.501 132.9ZM178.201 134.3L180.301 135C180.401 135.1 180.601 135.1 180.801 135.2C181.001 135.3 181.201 135.4 181.501 135.4C181.701 135.5 181.901 135.6 182.101 135.6C182.001 135.5 181.901 135.3 181.701 135.1C181.501 134.9 181.401 134.7 181.301 134.5C181.201 134.3 181.101 134.2 181.001 134.1L179.701 132.3L178.201 134.3Z" fill="#4074B2"/>
<path d="M167.601 141.5L169.101 139.6L176.801 140.9C176.501 140.6 176.101 140.4 175.801 140.1C175.501 139.8 175.101 139.6 174.801 139.3L171.501 136.6L172.601 135.3L179.501 141L178.001 142.9L170.301 141.7C170.601 141.9 171.001 142.2 171.301 142.4C171.601 142.6 172.001 142.9 172.301 143.2L175.601 145.9L174.501 147.2L167.601 141.5Z" fill="#4074B2"/>
<path d="M162.501 147.3L164.501 148.2L166.701 145.8L165.501 143.9L166.901 142.4L171.501 150.8L170.001 152.5L161.201 148.9L162.501 147.3ZM166.001 148.9L168.001 149.8C168.101 149.9 168.301 149.9 168.501 150C168.701 150.1 168.901 150.2 169.101 150.3C169.301 150.4 169.501 150.5 169.601 150.6C169.501 150.5 169.401 150.3 169.201 150.1C169.101 149.9 168.901 149.7 168.801 149.5C168.701 149.3 168.601 149.2 168.501 149.1L167.401 147.2L166.001 148.9Z" fill="#4074B2"/>
<path d="M160.401 149.5L166.901 155.7L165.601 157.1L160.301 152L157.801 154.6L156.701 153.5L160.401 149.5Z" fill="#4074B2"/>
<path d="M157.501 160L158.801 163.9L157.301 165.299L155.601 159.299L153.201 156.799L154.501 155.5L156.901 157.9L162.901 159.799L161.401 161.2L157.501 160Z" fill="#4074B2"/>
<path d="M147.701 162.1L149.101 160.8L154.101 166.2L155.901 164.6L157.001 165.8L152.001 170.4L150.901 169.2L152.701 167.6L147.701 162.1Z" fill="#4074B2"/>
<path d="M142.4 166.8L145.5 164.1L146.2 164.9L145.7 166L149.5 170.4L150.7 170.1L151.4 170.9L148.3 173.6L147.6 172.8L148.1 171.7L144.3 167.3L143.1 167.6L142.4 166.8Z" fill="#4074B2"/>
<path d="M143.101 176C143.701 175.5 143.901 175 143.901 174.3C143.901 173.6 143.501 172.9 142.901 172.2C142.301 171.5 141.701 171 141.101 170.8C140.501 170.6 139.901 170.8 139.301 171.3C139.001 171.5 138.801 171.8 138.501 172.1C138.301 172.4 138.001 172.7 137.801 173.1L136.801 171.9C137.001 171.5 137.201 171.2 137.501 170.9C137.801 170.6 138.101 170.3 138.401 170C139.101 169.4 139.801 169.1 140.501 169C141.201 168.9 141.901 169.1 142.501 169.4C143.201 169.8 143.801 170.3 144.401 171C145.001 171.7 145.401 172.4 145.501 173.2C145.701 173.9 145.701 174.7 145.401 175.4C145.101 176.1 144.701 176.7 144.001 177.3C143.701 177.6 143.301 177.8 142.901 178C142.501 178.2 142.101 178.4 141.601 178.5L141.101 176.9C141.501 176.8 141.801 176.7 142.101 176.6C142.601 176.4 142.901 176.2 143.101 176Z" fill="#4074B2"/>
<path d="M130.801 176.1L132.601 177.4L135.201 175.4L134.401 173.3L136.001 172.1L138.901 181.2L137.101 182.6L129.101 177.4L130.801 176.1ZM133.901 178.4L135.701 179.7C135.801 179.8 136.001 179.9 136.201 180C136.401 180.1 136.601 180.3 136.801 180.4C137.001 180.5 137.201 180.7 137.301 180.8C137.201 180.6 137.201 180.4 137.101 180.2C137.001 180 136.901 179.7 136.801 179.5C136.701 179.3 136.701 179.1 136.601 179L135.801 177L133.901 178.4Z" fill="#4074B2"/>
<path d="M128.301 177.9L133.501 185.2L132.001 186.3L127.701 180.3L124.701 182.4L123.801 181.1L128.301 177.9Z" fill="#4074B2"/>
</svg>
