<svg width="245" height="245" viewBox="0 0 245 245" fill="none" xmlns="http://www.w3.org/2000/svg">
<path d="M0 244.4H194.9C192.1 138.2 106.4 52.6 0 50V244.4Z" fill="#59B17F"/>
<path d="M205.5 243.9C202.4 132 112.5 42.3 0.599609 39.5V0.5C65.0996 1.9 125.7 27.8 171.4 73.3C217.1 118.9 243 179.4 244.6 243.9H205.5Z" fill="#59B17F"/>
<path d="M1 1C65.1 2.5 125.4 28.3 170.9 73.7C216.4 119.1 242.3 179.3 243.9 243.4H205.9C202.6 131.7 112.8 42.1 1 39V1ZM0 0V40C111.8 42.6 202.1 132.7 204.9 244.4H244.9C242.1 110.6 134 2.6 0 0Z" fill="#59B17F"/>
<path d="M140.3 77.9999L141.1 75.9999L138.6 73.8999L136.7 75.0999L135.1 73.7999L143.3 68.8999L145.1 70.3999L141.8 79.3999L140.3 77.9999ZM141.8 74.3999L142.6 72.3999C142.7 72.2999 142.7 72.0999 142.8 71.8999C142.9 71.6999 143 71.4999 143.1 71.2999C143.2 71.0999 143.3 70.8999 143.4 70.6999C143.3 70.7999 143.1 70.8999 142.9 71.0999C142.7 71.2999 142.5 71.3999 142.3 71.4999C142.1 71.5999 142 71.6999 141.9 71.7999L140.1 72.9999L141.8 74.3999Z" fill="white"/>
<path d="M145.5 82.4999L148.6 75.7999C148.5 75.8999 148.3 76.0999 148.1 76.3999C147.9 76.6999 147.7 76.8999 147.4 77.1999C147.2 77.4999 146.9 77.7999 146.7 77.9999L143.9 81.0999L142.6 79.9999L148.6 73.3999L150.5 75.0999L147.5 81.5999L153.8 77.9999L155.7 79.6999L149.7 86.2999L148.4 85.0999L151.3 81.9999C151.5 81.7999 151.7 81.5999 152 81.2999C152.3 80.9999 152.5 80.7999 152.7 80.4999C152.9 80.2999 153.1 80.0999 153.2 79.9999L146.8 83.5999L145.5 82.4999Z" fill="white"/>
<path d="M153.7 90.3L150.8 87.4L151.6 86.6L152.7 87L156.8 82.9L156.4 81.8L157.2 81L160.1 83.9L159.3 84.7L158.2 84.3L154.1 88.4L154.5 89.5L153.7 90.3Z" fill="white"/>
<path d="M158.499 95.2999L159.599 93.2999L157.299 90.8999L155.299 91.8999L153.899 90.3999L162.599 86.3999L164.199 88.0999L159.899 96.5999L158.499 95.2999ZM160.399 91.8999L161.399 89.9999C161.499 89.8999 161.599 89.6999 161.699 89.4999C161.799 89.2999 161.899 89.0999 161.999 88.8999C162.099 88.6999 162.199 88.4999 162.299 88.3999C162.099 88.4999 161.999 88.5999 161.699 88.6999C161.399 88.7999 161.299 88.8999 161.099 88.9999C160.899 89.0999 160.699 89.1999 160.699 89.1999L158.799 90.1999L160.399 91.8999Z" fill="white"/>
<path d="M167.299 91.6001L169.199 93.7001C169.999 94.6001 170.499 95.4001 170.599 96.1001C170.799 96.8001 170.499 97.4001 169.899 98.0001C169.499 98.3001 169.099 98.5001 168.699 98.6001C168.299 98.7001 167.899 98.5001 167.499 98.3001C167.599 98.6001 167.699 98.8001 167.799 99.1001C167.899 99.4001 167.799 99.7001 167.699 100C167.599 100.3 167.299 100.6 166.999 100.9C166.399 101.4 165.699 101.6 164.999 101.5C164.299 101.4 163.599 100.9 162.899 100.2L160.699 97.7001L167.299 91.6001ZM164.799 96.3001L163.099 97.9001L163.899 98.8001C164.299 99.2001 164.599 99.4001 164.899 99.5001C165.199 99.5001 165.499 99.4001 165.799 99.2001C166.099 99.0001 166.199 98.7001 166.199 98.4001C166.199 98.1001 165.999 97.7001 165.599 97.3001L164.799 96.3001ZM165.899 95.3001L166.599 96.1001C166.999 96.5001 167.299 96.7001 167.599 96.8001C167.899 96.8001 168.099 96.8001 168.399 96.5001C168.699 96.3001 168.799 96.0001 168.699 95.7001C168.599 95.4001 168.399 95.1001 168.099 94.7001L167.399 94.0001L165.899 95.3001Z" fill="white"/>
<path d="M166.199 103.8L173.099 98.1001L174.299 99.6001L168.599 104.3L170.899 107.1L169.699 108.1L166.199 103.8Z" fill="white"/>
<path d="M173.8 113.3L170.6 109.2L177.7 103.7L180.9 107.8L179.7 108.8L177.7 106.2L176.1 107.4L178 109.8L176.8 110.8L174.9 108.4L173.1 109.8L175.1 112.4L173.8 113.3Z" fill="white"/>
</svg>
