<svg width="245" height="246" viewBox="0 0 245 246" fill="none" xmlns="http://www.w3.org/2000/svg">
<path d="M0 0V195.4C106.7 192.8 192.6 106.7 194.9 0H0Z" fill="#4074B2"/>
<path d="M0.5 206C112.9 203.1 202.8 113 205.4 0.600098H244.4C243.1 65.2001 217.3 126 171.5 171.8C125.9 217.6 65.2 243.6 0.5 245V206Z" fill="#4074B2"/>
<path d="M244 1C242.6 65.3 216.8 125.8 171.3 171.4C125.8 217 65.3996 242.9 1.09961 244.4V206.4C113.4 203.3 203.2 113.3 206 1H244ZM245 0H205C202.6 112.2 112.2 202.8 0.0996094 205.4V245.4C134.3 242.8 242.6 134.4 245 0Z" fill="#4074B2"/>
<path d="M173.6 132.5L175.7 133.3L177.7 130.7L176.4 128.9L177.6 127.3L182.9 135.2L181.5 137.1L172.4 134.2L173.6 132.5ZM177.3 133.9L179.4 134.6C179.5 134.7 179.7 134.7 179.9 134.8C180.1 134.9 180.3 135 180.6 135C180.8 135.1 181 135.2 181.2 135.2C181.1 135.1 181 134.9 180.8 134.7C180.6 134.5 180.5 134.3 180.4 134.1C180.3 133.9 180.2 133.8 180.1 133.7L178.8 131.9L177.3 133.9Z" fill="white"/>
<path d="M166.7 141.1L168.2 139.2L175.9 140.5C175.6 140.2 175.2 140 174.9 139.7C174.6 139.4 174.2 139.2 173.9 138.9L170.6 136.2L171.7 134.9L178.6 140.6L177.1 142.5L169.4 141.3C169.7 141.5 170.1 141.8 170.4 142C170.7 142.2 171.1 142.5 171.4 142.8L174.7 145.5L173.6 146.8L166.7 141.1Z" fill="white"/>
<path d="M161.601 146.9L163.601 147.8L165.801 145.4L164.601 143.5L166.001 142L170.601 150.4L169.101 152.1L160.301 148.5L161.601 146.9ZM165.101 148.5L167.101 149.4C167.201 149.5 167.401 149.5 167.601 149.6C167.801 149.7 168.001 149.8 168.201 149.9C168.401 150 168.601 150.1 168.701 150.2C168.601 150.1 168.501 149.9 168.301 149.7C168.201 149.5 168.001 149.3 167.901 149.1C167.801 148.9 167.701 148.8 167.601 148.7L166.501 146.8L165.101 148.5Z" fill="white"/>
<path d="M159.501 149.1L166.001 155.3L164.701 156.7L159.401 151.6L156.901 154.2L155.801 153.1L159.501 149.1Z" fill="white"/>
<path d="M156.601 159.6L157.901 163.5L156.401 164.9L154.701 158.9L152.301 156.4L153.601 155.1L156.001 157.5L162.001 159.4L160.501 160.8L156.601 159.6Z" fill="white"/>
<path d="M146.801 161.7L148.201 160.4L153.201 165.8L155.001 164.2L156.101 165.4L151.101 170L150.001 168.8L151.801 167.2L146.801 161.7Z" fill="white"/>
<path d="M141.5 166.4L144.6 163.7L145.3 164.5L144.8 165.6L148.6 170L149.8 169.7L150.5 170.5L147.4 173.2L146.7 172.4L147.2 171.3L143.4 166.9L142.2 167.2L141.5 166.4Z" fill="white"/>
<path d="M142.2 175.6C142.8 175.1 143 174.6 143 173.9C143 173.2 142.6 172.5 142 171.8C141.4 171.1 140.8 170.6 140.2 170.4C139.6 170.2 139 170.4 138.4 170.9C138.1 171.1 137.9 171.4 137.6 171.7C137.4 172 137.1 172.3 136.9 172.7L135.9 171.5C136.1 171.1 136.3 170.8 136.6 170.5C136.9 170.2 137.2 169.9 137.5 169.6C138.2 169 138.9 168.7 139.6 168.6C140.3 168.5 141 168.7 141.6 169C142.3 169.4 142.9 169.9 143.5 170.6C144.1 171.3 144.5 172 144.6 172.8C144.8 173.5 144.8 174.3 144.5 175C144.2 175.7 143.8 176.3 143.1 176.9C142.8 177.2 142.4 177.4 142 177.6C141.6 177.8 141.2 178 140.7 178.1L140.2 176.5C140.6 176.4 140.9 176.3 141.2 176.2C141.7 176 142 175.8 142.2 175.6Z" fill="white"/>
<path d="M129.9 175.7L131.7 177L134.3 175L133.5 172.9L135.1 171.7L138 180.8L136.2 182.2L128.2 177L129.9 175.7ZM133 178L134.8 179.3C134.9 179.4 135.1 179.5 135.3 179.6C135.5 179.7 135.7 179.9 135.9 180C136.1 180.1 136.3 180.3 136.4 180.4C136.3 180.2 136.3 180 136.2 179.8C136.1 179.6 136 179.3 135.9 179.1C135.8 178.9 135.8 178.7 135.7 178.6L134.9 176.6L133 178Z" fill="white"/>
<path d="M127.4 177.5L132.6 184.8L131.1 185.9L126.8 179.9L123.8 182L122.9 180.7L127.4 177.5Z" fill="white"/>
</svg>
