<svg width="245" height="245" viewBox="0 0 245 245" fill="none" xmlns="http://www.w3.org/2000/svg">
<path d="M0.5 243.9C2 179.5 28 118.9 73.7 73.4C119.4 27.8 180 1.9 244.4 0.5V39.5C132.5 42.4 42.7 132 39.5 243.9H0.5Z" fill="#E77052"/>
<path d="M243.9 1V39C132.2 42.1 42.4 131.7 39 243.4H1C2.6 179.3 28.5 119.1 74 73.7C119.5 28.3 179.8 2.5 243.9 1ZM244.9 0C111 2.6 2.9 110.6 0 244.4H40C42.9 132.7 133.1 42.6 244.9 40V0Z" fill="#E77052"/>
<path d="M244.9 50C138.6 52.6 52.9 138.2 50 244.4H244.9V50Z" fill="#E77052"/>
<path d="M61.8004 125.4L59.0004 129.6L51.9004 124.9L54.7004 120.7L56.1004 121.6L54.5004 124.1L55.9004 125L57.4004 122.7L58.8004 123.6L57.3004 125.9L58.9004 127L60.5004 124.5L61.8004 125.4Z" fill="white"/>
<path d="M66.9008 118.2L65.5008 120.1L62.0008 119.9L63.4008 123.1L62.1008 124.9L60.2008 120L55.3008 119.8L56.6008 118L59.9008 118.3L58.5008 115.3L59.8008 113.5L61.8008 118.2H66.9008Z" fill="white"/>
<path d="M62.4006 110C63.1006 109.1 63.7006 108.6 64.4006 108.5C65.1006 108.4 65.8006 108.6 66.5006 109.1C66.9006 109.4 67.2006 109.8 67.4006 110.2C67.6006 110.6 67.7006 111.1 67.6006 111.7C67.5006 112.2 67.2006 112.9 66.7006 113.5L66.3006 114.1L68.6006 115.9L67.4006 117.5L60.6006 112.3L62.4006 110ZM63.7006 111L63.3006 111.6L65.1006 113L65.4006 112.6C65.7006 112.3 65.8006 111.9 65.8006 111.6C65.8006 111.3 65.7006 111 65.3006 110.7C64.8006 110.3 64.2006 110.4 63.7006 111Z" fill="white"/>
<path d="M67.2006 104C68.7006 102.2 70.0006 101.9 71.4006 102.9C71.8006 103.3 72.1006 103.7 72.2006 104.1C72.3006 104.6 72.3006 105 72.2006 105.5L76.7006 105.9L75.2006 107.7L71.5006 107.2L71.0006 107.8L73.5006 109.8L72.2006 111.4L65.6006 106L67.2006 104ZM68.3006 105.1L68.0006 105.5L69.7006 106.9L70.0006 106.5C70.3006 106.1 70.5006 105.8 70.5006 105.5C70.5006 105.2 70.4006 104.9 70.1006 104.7C69.8006 104.5 69.6006 104.4 69.3006 104.5C69.0006 104.5 68.7006 104.7 68.3006 105.1Z" fill="white"/>
<path d="M80.5008 101.6L77.2008 105.4L70.8008 99.8L74.1008 96L75.3008 97.1L73.3008 99.3L74.5008 100.4L76.3008 98.3L77.5008 99.4L75.7008 101.5L77.2008 102.8L79.2008 100.6L80.5008 101.6Z" fill="white"/>
<path d="M83.3008 94.7999C83.7008 95.0999 83.9008 95.4999 84.0008 95.9999C84.1008 96.3999 84.1008 96.8999 84.0008 97.3999C83.8008 97.8999 83.5008 98.3999 83.0008 98.9999C82.7008 99.3999 82.3008 99.6999 82.0008 99.8999C81.7008 100.1 81.3008 100.3 80.9008 100.5L79.5008 99.1999C79.9008 98.9999 80.4008 98.7999 80.8008 98.5999C81.2008 98.3999 81.6008 98.0999 81.8008 97.7999C82.1008 97.4999 82.2008 97.1999 82.2008 96.9999C82.2008 96.7999 82.1008 96.5999 82.0008 96.3999C81.8008 96.1999 81.5008 96.1999 81.2008 96.1999C80.9008 96.2999 80.5008 96.3999 79.9008 96.6999C79.6008 96.7999 79.2008 96.9999 78.8008 96.9999C78.4008 97.0999 78.1008 97.0999 77.7008 96.9999C77.3008 96.8999 77.0008 96.6999 76.6008 96.3999C76.0008 95.8999 75.8008 95.1999 75.8008 94.4999C75.9008 93.7999 76.2008 93.0999 76.8008 92.3999C77.1008 91.9999 77.5008 91.6999 77.9008 91.4999C78.3008 91.2999 78.7008 91.0999 79.1008 90.8999L79.8008 92.4999C79.4008 92.6999 79.1008 92.7999 78.8008 92.9999C78.5008 93.1999 78.3008 93.3999 78.0008 93.5999C77.8008 93.7999 77.7008 94.0999 77.7008 94.2999C77.7008 94.4999 77.8008 94.6999 77.9008 94.7999C78.0008 94.8999 78.2008 94.9999 78.3008 94.9999C78.5008 94.9999 78.7008 94.9999 78.9008 94.8999C79.2008 94.7999 79.5008 94.6999 79.9008 94.4999C80.3008 94.2999 80.7008 94.1999 81.1008 94.0999C81.5008 93.9999 81.8008 93.9999 82.2008 94.0999C82.7008 94.2999 83.0008 94.4999 83.3008 94.7999Z" fill="white"/>
<path d="M88.0999 89.9998C88.3999 90.2998 88.6999 90.6998 88.7999 91.1998C88.8999 91.5998 88.8999 92.0998 88.6999 92.5998C88.4999 93.0998 88.1999 93.5998 87.6999 94.0998C87.2999 94.4998 86.9999 94.7998 86.6999 94.9998C86.3999 95.1998 85.9999 95.3998 85.5999 95.4998L84.2999 94.1998C84.6999 93.9998 85.1999 93.7998 85.5999 93.5998C85.9999 93.3998 86.3999 93.0998 86.6999 92.7998C86.9999 92.4998 87.0999 92.2998 87.0999 91.9998C87.0999 91.7998 86.9999 91.5998 86.8999 91.3998C86.6999 91.1998 86.3999 91.0998 86.0999 91.1998C85.7999 91.2998 85.3999 91.3998 84.7999 91.5998C84.4999 91.6998 84.0999 91.7998 83.6999 91.8998C83.2999 91.9998 82.9999 91.9998 82.5999 91.8998C82.1999 91.7998 81.8999 91.5998 81.4999 91.1998C80.8999 90.5998 80.6999 89.9998 80.7999 89.2998C80.8999 88.5998 81.2999 87.8998 81.8999 87.2998C82.1999 86.8998 82.5999 86.6998 82.9999 86.3998C83.3999 86.1998 83.7999 85.9998 84.1999 85.7998L84.8999 87.3998C84.4999 87.5998 84.1999 87.6998 83.8999 87.8998C83.5999 88.0998 83.2999 88.2998 83.0999 88.4998C82.8999 88.6998 82.6999 88.9998 82.6999 89.1998C82.6999 89.3998 82.7999 89.5998 82.8999 89.6998C82.9999 89.7998 83.1999 89.8998 83.2999 89.8998C83.4999 89.8998 83.6999 89.8998 83.8999 89.7998C84.1999 89.6998 84.4999 89.5998 84.8999 89.4998C85.2999 89.2998 85.6999 89.1998 86.0999 89.1998C86.4999 89.0998 86.7999 89.1998 87.1999 89.2998C87.4999 89.4998 87.7999 89.6998 88.0999 89.9998Z" fill="white"/>
<path d="M93.4 88.2996L90.4 91.1996L89.6 90.3996L90.1 89.2996L86.4 85.3996L85.3 85.7996L84.5 84.9996L87.5 82.0996L88.3 82.8996L87.8 83.9996L91.5 87.8996L92.6 87.4996L93.4 88.2996Z" fill="white"/>
<path d="M93.8008 76.2998L97.4008 84.5998L95.7008 86.1998L87.8008 81.7998L89.4008 80.2998L93.6008 82.8998C93.7008 82.9998 93.9008 83.0998 94.1008 83.1998C94.3008 83.2998 94.5008 83.4998 94.7008 83.5998C94.9008 83.7998 95.1008 83.8998 95.2008 83.9998C95.1008 83.8998 95.0008 83.6998 94.9008 83.4998C94.8008 83.2998 94.6008 83.0998 94.5008 82.7998C94.4008 82.5998 94.3008 82.3998 94.2008 82.2998L92.0008 77.7998L93.8008 76.2998Z" fill="white"/>
<path d="M104.1 78.7998L100.3 81.9998L94.7002 75.4998L98.5002 72.2998L99.6002 73.5998L97.3002 75.4998L98.4002 76.7998L100.5 74.9998L101.6 76.2998L99.5002 78.0998L100.8 79.5998L103.1 77.6998L104.1 78.7998Z" fill="white"/>
</svg>
