<svg width="245" height="246" viewBox="0 0 245 246" fill="none" xmlns="http://www.w3.org/2000/svg">
<path d="M244.9 0.399902H50C52.4 107.1 138.3 193.2 244.9 195.8V0.399902Z" fill="#EE8889"/>
<path d="M244.4 245.4C179.8 244 119.1 218 73.4 172.2C27.6 126.4 1.8 65.5999 0.5 0.899902H39.5C42.1 113.3 132 203.4 244.4 206.3V245.4Z" fill="white"/>
<path d="M39 1.3999C41.9 113.7 131.6 203.7 243.9 206.8V244.8C179.6 243.3 119.2 217.4 73.7 171.8C28.2 126.2 2.4 65.7999 1 1.3999H39ZM40 0.399902H0C2.4 134.7 110.7 243.2 244.9 245.8V205.8C132.8 203.3 42.4 112.7 40 0.399902Z" fill="#EE8889"/>
<path d="M92.5996 163.2C93.5996 162.1 94.6997 161.5 95.8997 161.5C97.0997 161.5 98.1997 162 99.2997 163.1L101.2 164.8L95.1996 171.4L93.0996 169.5C92.3996 168.9 91.8996 168.2 91.5996 167.5C91.2996 166.8 91.2997 166.1 91.3997 165.3C91.4997 164.6 91.8996 163.9 92.5996 163.2ZM94.0996 164.5C93.3996 165.2 93.0996 165.9 93.0996 166.6C93.0996 167.2 93.3997 167.8 93.9997 168.4L94.7997 169.1L98.6996 164.8L98.0996 164.3C96.6996 162.9 95.3996 163 94.0996 164.5Z" fill="#EE8889"/>
<path d="M86.1996 163.1C85.2996 162.2 84.7996 161.5 84.6996 160.7C84.5996 160 84.8996 159.3 85.4996 158.6C85.7996 158.3 86.0996 158.1 86.3996 158C86.6996 157.9 87.0996 157.8 87.3996 157.9C87.6996 157.9 87.9996 158 88.3996 158.1L89.2996 153.5L90.7996 155L89.8996 158.9L90.5996 159.6L92.9996 157.1L94.3996 158.4L88.0996 164.8L86.1996 163.1ZM87.3996 162.1L87.7996 162.5L89.4996 160.8L89.0996 160.4C88.6996 160 88.2996 159.7 87.8996 159.7C87.4996 159.7 87.1996 159.8 86.9996 160.1C86.6996 160.4 86.5996 160.7 86.6996 161.1C86.6996 161.3 86.9996 161.7 87.3996 162.1Z" fill="#EE8889"/>
<path d="M86.2998 150.3L89.0998 153.2L88.2998 153.9L87.1998 153.5L82.9998 157.5L83.3998 158.6L82.5998 159.3L79.7998 156.4L80.5998 155.7L81.6998 156.1L85.8998 152.1L85.4998 151L86.2998 150.3Z" fill="#EE8889"/>
<path d="M73.9004 150.1L82.6004 146.3L84.0004 147.8L79.4004 156.1L78.1004 154.7L80.9004 149.9C81.0004 149.8 81.0004 149.7 81.2004 149.5C81.3004 149.3 81.5004 149.1 81.6004 148.8C81.8004 148.6 81.9004 148.4 82.0004 148.2C81.8004 148.3 81.6004 148.4 81.4004 148.6C81.2004 148.7 80.9004 148.9 80.7004 149C80.5004 149.1 80.3004 149.2 80.2004 149.2L75.1004 151.5L73.9004 150.1Z" fill="#EE8889"/>
<path d="M76.5002 139.3L79.8002 143.2L73.0002 149L69.7002 145.1L70.9002 144.1L73.0002 146.6L74.5002 145.3L72.5002 143L73.7002 142L75.7002 144.3L77.5002 142.8L75.4002 140.3L76.5002 139.3Z" fill="#EE8889"/>
<path d="M66.7 141.4C65.9 140.4 65.6 139.6 65.5 138.9C65.5 138.2 65.8 137.5 66.5 137C66.8 136.7 67.2 136.6 67.5 136.5C67.8 136.4 68.2 136.4 68.5 136.5C68.8 136.6 69.1 136.7 69.4 136.8L70.8 132.3L72.1 134L70.7 137.8L71.3 138.6L74 136.5L75.2 138L68.2 143.6L66.7 141.4ZM68 140.6L68.4 141.1L70.3 139.6L69.9 139.1C69.5 138.6 69.2 138.3 68.8 138.2C68.5 138.1 68.1 138.2 67.8 138.5C67.5 138.8 67.3 139.1 67.4 139.4C67.4 139.7 67.6 140.1 68 140.6Z" fill="#EE8889"/>
</svg>
