<svg width="246" height="245" viewBox="0 0 246 245" fill="none" xmlns="http://www.w3.org/2000/svg">
<path d="M0.900391 244.4H195.8C193 138.2 107.3 52.6 0.900391 50V244.4Z" fill="#59B17F"/>
<path d="M206.4 243.9C203.3 132 113.4 42.3 1.5 39.5V0.5C66 1.9 126.6 27.8 172.3 73.3C218 118.9 243.9 179.4 245.5 243.9H206.4Z" fill="white"/>
<path d="M1.90039 1C66.0004 2.5 126.3 28.3 171.8 73.7C217.3 119.1 243.2 179.3 244.8 243.4H206.8C203.5 131.7 113.7 42.1 1.90039 39V1ZM0.900391 0V40C112.7 42.6 203 132.7 205.8 244.4H245.8C243 110.6 134.9 2.6 0.900391 0Z" fill="#59B17F"/>
<path d="M141.2 77.9999L142 75.9999L139.5 73.8999L137.6 75.0999L136 73.7999L144.2 68.8999L146 70.3999L142.7 79.3999L141.2 77.9999ZM142.7 74.3999L143.5 72.3999C143.6 72.2999 143.6 72.0999 143.7 71.8999C143.8 71.6999 143.9 71.4999 144 71.2999C144.1 71.0999 144.2 70.8999 144.3 70.6999C144.2 70.7999 144 70.8999 143.8 71.0999C143.6 71.2999 143.4 71.3999 143.2 71.4999C143 71.5999 142.9 71.6999 142.8 71.7999L141 72.9999L142.7 74.3999Z" fill="#59B17F"/>
<path d="M146.4 82.4999L149.5 75.7999C149.4 75.8999 149.2 76.0999 149 76.3999C148.8 76.6999 148.6 76.8999 148.3 77.1999C148.1 77.4999 147.8 77.7999 147.6 77.9999L144.8 81.0999L143.5 79.9999L149.5 73.3999L151.4 75.0999L148.4 81.5999L154.7 77.9999L156.6 79.6999L150.6 86.2999L149.3 85.0999L152.2 81.9999C152.4 81.7999 152.6 81.5999 152.9 81.2999C153.2 80.9999 153.4 80.7999 153.6 80.4999C153.8 80.2999 154 80.0999 154.1 79.9999L147.7 83.5999L146.4 82.4999Z" fill="#59B17F"/>
<path d="M154.6 90.3L151.7 87.4L152.5 86.6L153.6 87L157.7 82.9L157.3 81.8L158.1 81L161 83.9L160.2 84.7L159.1 84.3L155 88.4L155.4 89.5L154.6 90.3Z" fill="#59B17F"/>
<path d="M159.4 95.2999L160.5 93.2999L158.2 90.8999L156.2 91.8999L154.8 90.3999L163.5 86.3999L165.1 88.0999L160.8 96.5999L159.4 95.2999ZM161.3 91.8999L162.3 89.9999C162.4 89.8999 162.5 89.6999 162.6 89.4999C162.7 89.2999 162.8 89.0999 162.9 88.8999C163 88.6999 163.1 88.4999 163.2 88.3999C163 88.4999 162.9 88.5999 162.6 88.6999C162.3 88.7999 162.2 88.8999 162 88.9999C161.8 89.0999 161.6 89.1999 161.6 89.1999L159.7 90.1999L161.3 91.8999Z" fill="#59B17F"/>
<path d="M168.2 91.6001L170.1 93.7001C170.9 94.6001 171.4 95.4001 171.5 96.1001C171.7 96.8001 171.4 97.4001 170.8 98.0001C170.4 98.3001 170 98.5001 169.6 98.6001C169.2 98.7001 168.8 98.5001 168.4 98.3001C168.5 98.6001 168.6 98.8001 168.7 99.1001C168.8 99.4001 168.7 99.7001 168.6 100C168.5 100.3 168.2 100.6 167.9 100.9C167.3 101.4 166.6 101.6 165.9 101.5C165.2 101.4 164.5 100.9 163.8 100.2L161.6 97.7001L168.2 91.6001ZM165.7 96.3001L164 97.9001L164.8 98.8001C165.2 99.2001 165.5 99.4001 165.8 99.5001C166.1 99.5001 166.4 99.4001 166.7 99.2001C167 99.0001 167.1 98.7001 167.1 98.4001C167.1 98.1001 166.9 97.7001 166.5 97.3001L165.7 96.3001ZM166.8 95.3001L167.5 96.1001C167.9 96.5001 168.2 96.7001 168.5 96.8001C168.8 96.8001 169 96.8001 169.3 96.5001C169.6 96.3001 169.7 96.0001 169.6 95.7001C169.5 95.4001 169.3 95.1001 169 94.7001L168.3 94.0001L166.8 95.3001Z" fill="#59B17F"/>
<path d="M167.1 103.8L174 98.1001L175.2 99.6001L169.5 104.3L171.8 107.1L170.6 108.1L167.1 103.8Z" fill="#59B17F"/>
<path d="M174.7 113.3L171.5 109.2L178.6 103.7L181.8 107.8L180.6 108.8L178.6 106.2L177 107.4L178.9 109.8L177.7 110.8L175.8 108.4L174 109.8L176 112.4L174.7 113.3Z" fill="#59B17F"/>
</svg>
