<svg width="245" height="246" viewBox="0 0 245 246" fill="none" xmlns="http://www.w3.org/2000/svg">
<path d="M244.9 0H50C52.4 106.7 138.3 192.8 244.9 195.4V0Z" fill="#EE8889"/>
<path d="M244.4 245C179.8 243.6 119.1 217.6 73.4 171.8C27.6 126 1.8 65.2 0.5 0.5H39.5C42.1 112.9 132 203 244.4 205.9V245Z" fill="#EE8889"/>
<path d="M39 1C41.9 113.3 131.6 203.3 243.9 206.4V244.4C179.6 242.9 119.2 217 73.7 171.4C28.2 125.8 2.4 65.4 1 1H39ZM40 0H0C2.4 134.3 110.7 242.8 244.9 245.4V205.4C132.8 202.9 42.4 112.3 40 0Z" fill="#EE8889"/>
<path d="M92.5996 162.8C93.5996 161.7 94.6997 161.1 95.8997 161.1C97.0997 161.1 98.1997 161.6 99.2997 162.7L101.2 164.4L95.1996 171L93.0996 169.1C92.3996 168.5 91.8996 167.8 91.5996 167.1C91.2996 166.4 91.2997 165.7 91.3997 164.9C91.4997 164.2 91.8996 163.5 92.5996 162.8ZM94.0996 164.1C93.3996 164.8 93.0996 165.5 93.0996 166.2C93.0996 166.8 93.3997 167.4 93.9997 168L94.7997 168.7L98.6996 164.4L98.0996 163.9C96.6996 162.5 95.3996 162.6 94.0996 164.1Z" fill="white"/>
<path d="M86.1996 162.7C85.2996 161.8 84.7996 161.1 84.6996 160.3C84.5996 159.6 84.8996 158.9 85.4996 158.2C85.7996 157.9 86.0996 157.7 86.3996 157.6C86.6996 157.5 87.0996 157.4 87.3996 157.5C87.6996 157.5 87.9996 157.6 88.3996 157.7L89.2996 153.1L90.7996 154.6L89.8996 158.5L90.5996 159.2L92.9996 156.7L94.3996 158L88.0996 164.4L86.1996 162.7ZM87.3996 161.7L87.7996 162.1L89.4996 160.4L89.0996 160C88.6996 159.6 88.2996 159.3 87.8996 159.3C87.4996 159.3 87.1996 159.4 86.9996 159.7C86.6996 160 86.5996 160.3 86.6996 160.7C86.6996 160.9 86.9996 161.3 87.3996 161.7Z" fill="white"/>
<path d="M86.2998 149.9L89.0998 152.8L88.2998 153.5L87.1998 153.1L82.9998 157.1L83.3998 158.2L82.5998 158.9L79.7998 156L80.5998 155.3L81.6998 155.7L85.8998 151.7L85.4998 150.6L86.2998 149.9Z" fill="white"/>
<path d="M73.9004 149.7L82.6004 145.9L84.0004 147.4L79.4004 155.7L78.1004 154.3L80.9004 149.5C81.0004 149.4 81.0004 149.3 81.2004 149.1C81.3004 148.9 81.5004 148.7 81.6004 148.4C81.8004 148.2 81.9004 148 82.0004 147.8C81.8004 147.9 81.6004 148 81.4004 148.2C81.2004 148.3 80.9004 148.5 80.7004 148.6C80.5004 148.7 80.3004 148.8 80.2004 148.8L75.1004 151.1L73.9004 149.7Z" fill="white"/>
<path d="M76.5002 138.9L79.8002 142.8L73.0002 148.6L69.7002 144.7L70.9002 143.7L73.0002 146.2L74.5002 144.9L72.5002 142.6L73.7002 141.6L75.7002 143.9L77.5002 142.4L75.4002 139.9L76.5002 138.9Z" fill="white"/>
<path d="M66.7 141C65.9 140 65.6 139.2 65.5 138.5C65.5 137.8 65.8 137.1 66.5 136.6C66.8 136.3 67.2 136.2 67.5 136.1C67.8 136 68.2 136 68.5 136.1C68.8 136.2 69.1 136.3 69.4 136.4L70.8 131.9L72.1 133.6L70.7 137.4L71.3 138.2L74 136.1L75.2 137.6L68.2 143.2L66.7 141ZM68 140.2L68.4 140.7L70.3 139.2L69.9 138.7C69.5 138.2 69.2 137.9 68.8 137.8C68.5 137.7 68.1 137.8 67.8 138.1C67.5 138.4 67.3 138.7 67.4 139C67.4 139.3 67.6 139.7 68 140.2Z" fill="white"/>
</svg>
