<svg width="100" height="100" viewBox="0 0 100 100" fill="none" xmlns="http://www.w3.org/2000/svg">
<circle cx="50" cy="50" r="50" fill="#59B17F"/>
<path d="M65 42.5L75 32.5V67.5L65 57.5V65C65 66.3261 64.4732 67.5979 63.5355 68.5355C62.5979 69.4732 61.3261 70 60 70H30C28.6739 70 27.4021 69.4732 26.4645 68.5355C25.5268 67.5979 25 66.3261 25 65V35C25 32.25 27.25 30 30 30H60C61.3261 30 62.5979 30.5268 63.5355 31.4645C64.4732 32.4021 65 33.6739 65 35V42.5ZM45 60C47.6522 60 50.1957 58.9464 52.0711 57.0711C53.9464 55.1957 55 52.6522 55 50C55 47.3478 53.9464 44.8043 52.0711 42.9289C50.1957 41.0536 47.6522 40 45 40C42.3478 40 39.8043 41.0536 37.9289 42.9289C36.0536 44.8043 35 47.3478 35 50C35 52.6522 36.0536 55.1957 37.9289 57.0711C39.8043 58.9464 42.3478 60 45 60ZM45 55C43.6739 55 42.4021 54.4732 41.4645 53.5355C40.5268 52.5979 40 51.3261 40 50C40 48.6739 40.5268 47.4021 41.4645 46.4645C42.4021 45.5268 43.6739 45 45 45C46.3261 45 47.5979 45.5268 48.5355 46.4645C49.4732 47.4021 50 48.6739 50 50C50 51.3261 49.4732 52.5979 48.5355 53.5355C47.5979 54.4732 46.3261 55 45 55Z" fill="white"/>
</svg>
