<svg width="30" height="28" viewBox="0 0 30 28" fill="none" xmlns="http://www.w3.org/2000/svg">
<path d="M29 7.75H1C0.437504 7.75 0 7.31249 0 6.74999V1C0 0.437504 0.437504 0 1 0H29C29.5625 0 30 0.437504 30 1V6.74999C30 7.31249 29.5625 7.75 29 7.75Z" fill="white"/>
<path d="M29 28H21.625C21.0625 28 20.625 27.5625 20.625 27V11C20.625 10.4375 21.0625 10 21.625 10H29C29.5625 10 30 10.4375 30 11V27C30 27.5625 29.5625 28 29 28Z" fill="white"/>
<path d="M17.125 28H1C0.437504 28 0 27.5625 0 27V11C0 10.4375 0.437504 10 1 10H17.125C17.6875 10 18.125 10.4375 18.125 11V27C18.125 27.5625 17.6875 28 17.125 28Z" fill="white"/>
</svg>
