<svg width="150" height="150" viewBox="0 0 150 150" fill="none" xmlns="http://www.w3.org/2000/svg">
<path d="M10 10H30L40 0H0V40L10 30V10Z" fill="#13513E"/>
<path d="M140 140H120L110 150H150V110L140 120V140Z" fill="#13513E"/>
<circle cx="75" cy="75" r="50" fill="#13513E"/>
<path d="M98.3333 64.9167H51.6667C50.7292 64.9167 50 64.1875 50 63.25V53.6667C50 52.7292 50.7292 52 51.6667 52H98.3333C99.2708 52 100 52.7292 100 53.6667V63.25C100 64.1875 99.2708 64.9167 98.3333 64.9167Z" fill="white"/>
<path d="M98.3333 98.6667H86.0417C85.1042 98.6667 84.375 97.9375 84.375 97V70.3334C84.375 69.3959 85.1042 68.6667 86.0417 68.6667H98.3333C99.2708 68.6667 100 69.3959 100 70.3334V97C100 97.9375 99.2708 98.6667 98.3333 98.6667Z" fill="white"/>
<path d="M78.5417 98.6667H51.6667C50.7292 98.6667 50 97.9375 50 97V70.3334C50 69.3959 50.7292 68.6667 51.6667 68.6667H78.5417C79.4792 68.6667 80.2083 69.3959 80.2083 70.3334V97C80.2083 97.9375 79.4792 98.6667 78.5417 98.6667Z" fill="white"/>
</svg>
