<svg width="150" height="150" viewBox="0 0 150 150" fill="none" xmlns="http://www.w3.org/2000/svg">
<path d="M10 10H30L40 0H0V40L10 30V10Z" fill="#13513E"/>
<path d="M140 140H120L110 150H150V110L140 120V140Z" fill="#13513E"/>
<circle cx="75" cy="75" r="50" fill="#13513E"/>
<path d="M90 67.5L100 57.5V92.5L90 82.5V90C90 91.3261 89.4732 92.5979 88.5355 93.5355C87.5979 94.4732 86.3261 95 85 95H55C53.6739 95 52.4021 94.4732 51.4645 93.5355C50.5268 92.5979 50 91.3261 50 90V60C50 57.25 52.25 55 55 55H85C86.3261 55 87.5979 55.5268 88.5355 56.4645C89.4732 57.4021 90 58.6739 90 60V67.5ZM70 85C72.6522 85 75.1957 83.9464 77.0711 82.0711C78.9464 80.1957 80 77.6522 80 75C80 72.3478 78.9464 69.8043 77.0711 67.9289C75.1957 66.0536 72.6522 65 70 65C67.3478 65 64.8043 66.0536 62.9289 67.9289C61.0536 69.8043 60 72.3478 60 75C60 77.6522 61.0536 80.1957 62.9289 82.0711C64.8043 83.9464 67.3478 85 70 85ZM70 80C68.6739 80 67.4021 79.4732 66.4645 78.5355C65.5268 77.5979 65 76.3261 65 75C65 73.6739 65.5268 72.4021 66.4645 71.4645C67.4021 70.5268 68.6739 70 70 70C71.3261 70 72.5979 70.5268 73.5355 71.4645C74.4732 72.4021 75 73.6739 75 75C75 76.3261 74.4732 77.5979 73.5355 78.5355C72.5979 79.4732 71.3261 80 70 80Z" fill="white"/>
</svg>
