<svg width="100" height="100" viewBox="0 0 100 100" fill="none" xmlns="http://www.w3.org/2000/svg">
<circle cx="50" cy="50" r="50" fill="#59B17F"/>
<path d="M73.3333 39.9167H26.6667C25.7292 39.9167 25 39.1875 25 38.25V28.6667C25 27.7292 25.7292 27 26.6667 27H73.3333C74.2708 27 75 27.7292 75 28.6667V38.25C75 39.1875 74.2708 39.9167 73.3333 39.9167Z" fill="white"/>
<path d="M73.3333 73.6666H61.0417C60.1042 73.6666 59.375 72.9375 59.375 72V45.3333C59.375 44.3958 60.1042 43.6666 61.0417 43.6666H73.3333C74.2708 43.6666 75 44.3958 75 45.3333V72C75 72.9375 74.2708 73.6666 73.3333 73.6666Z" fill="white"/>
<path d="M53.5417 73.6666H26.6667C25.7292 73.6666 25 72.9375 25 72V45.3333C25 44.3958 25.7292 43.6666 26.6667 43.6666H53.5417C54.4792 43.6666 55.2083 44.3958 55.2083 45.3333V72C55.2083 72.9375 54.4792 73.6666 53.5417 73.6666Z" fill="white"/>
</svg>
