<svg width="100" height="100" viewBox="0 0 100 100" fill="none" xmlns="http://www.w3.org/2000/svg">
<circle cx="50" cy="50" r="50" fill="#7283BF"/>
<path d="M63.3135 36.2846C60.228 33.4491 56.1903 31.8755 51.9998 31.8755C47.8093 31.8755 43.7716 33.4491 40.6861 36.2846C37.7097 39.3072 35.9869 43.3439 35.8636 47.5842C36.0073 48.8569 35.8814 50.1455 35.4939 51.3663C35.1065 52.587 34.4663 53.7125 33.615 54.6694C33.2399 55.0445 33.0292 55.5532 33.0292 56.0836C33.0292 56.614 33.2399 57.1227 33.615 57.4978L42.1003 65.9831C42.4754 66.3582 42.9841 66.5689 43.5145 66.5689C44.0449 66.5689 44.5537 66.3582 44.9287 65.9831C45.872 65.1285 46.9873 64.4857 48.1996 64.0979C49.4119 63.71 50.6932 63.5861 51.9574 63.7345C54.0775 63.7369 56.1762 63.311 58.1276 62.4823C60.0791 61.6536 61.843 60.4392 63.3135 58.912C64.8493 57.3786 66.0642 55.5547 66.8873 53.5466C67.7104 51.5385 68.1253 49.3866 68.1077 47.2165C68.0797 45.1664 67.641 43.1427 66.8175 41.2651C65.9941 39.3874 64.8026 37.6939 63.3135 36.2846ZM52.0846 59.7888C49.1195 59.5496 46.1568 60.2791 43.6418 61.8677L37.7304 55.9563C39.3042 53.4645 40.0515 50.5396 39.8658 47.5983C39.9855 44.4148 41.2862 41.3899 43.5145 39.113C45.8329 36.9949 48.8596 35.8205 51.9998 35.8205C55.14 35.8205 58.1667 36.9949 60.4851 39.113C61.5983 40.1517 62.4894 41.4053 63.1044 42.7981C63.7194 44.191 64.0455 45.694 64.063 47.2165C64.0877 48.8583 63.7838 50.4886 63.1694 52.0113C62.5549 53.5341 61.6423 54.9186 60.4851 56.0836C59.3928 57.2259 58.0833 58.1383 56.6334 58.7673C55.1835 59.3963 53.6226 59.7292 52.0422 59.7464L52.0846 59.7888Z" fill="white"/>
<path d="M40.6856 67.3975L32.2003 58.9123C31.8253 58.5372 31.3166 58.3265 30.7861 58.3265C30.2557 58.3265 29.747 58.5372 29.3719 58.9123C28.9968 59.2873 28.7861 59.796 28.7861 60.3265C28.7861 60.8569 28.9968 61.3656 29.3719 61.7407L37.8572 70.226C38.2323 70.601 38.741 70.8118 39.2714 70.8118C39.8018 70.8118 40.3106 70.601 40.6856 70.226C41.0607 69.8509 41.2714 69.3422 41.2714 68.8118C41.2714 68.2813 41.0607 67.7726 40.6856 67.3975Z" fill="white"/>
<path d="M35.0291 70.2254L29.3722 64.5685C28.9971 64.1934 28.4884 63.9827 27.958 63.9827C27.4276 63.9827 26.9189 64.1934 26.5438 64.5685C26.1687 64.9436 25.958 65.4523 25.958 65.9827C25.958 66.5132 26.1687 67.0219 26.5438 67.3969L32.2006 73.0538C32.5757 73.4289 33.0844 73.6396 33.6149 73.6396C34.1453 73.6396 34.654 73.4289 35.0291 73.0538C35.4041 72.6787 35.6149 72.17 35.6149 71.6396C35.6149 71.1091 35.4041 70.6004 35.0291 70.2254Z" fill="white"/>
<path d="M66.1421 33.4558C66.5172 33.8309 67.0259 34.0416 67.5563 34.0416C68.0868 34.0416 68.5955 33.8309 68.9706 33.4558L71.799 30.6274C72.1741 30.2523 72.3848 29.7436 72.3848 29.2132C72.3848 28.6828 72.1741 28.1741 71.799 27.799C71.4239 27.4239 70.9152 27.2132 70.3848 27.2132C69.8543 27.2132 69.3456 27.4239 68.9706 27.799L66.1421 30.6274C65.7671 31.0025 65.5563 31.5112 65.5563 32.0416C65.5563 32.5721 65.7671 33.0808 66.1421 33.4558Z" fill="white"/>
<path d="M37.8579 30.6274L35.0294 27.799C34.6544 27.4239 34.1457 27.2132 33.6152 27.2132C33.0848 27.2132 32.5761 27.4239 32.201 27.799C31.8259 28.1741 31.6152 28.6828 31.6152 29.2132C31.6152 29.7436 31.8259 30.2523 32.201 30.6274L35.0294 33.4558C35.4045 33.8309 35.9132 34.0416 36.4437 34.0416C36.9741 34.0416 37.4828 33.8309 37.8579 33.4558C38.2329 33.0808 38.4437 32.5721 38.4437 32.0416C38.4437 31.5112 38.2329 31.0025 37.8579 30.6274Z" fill="white"/>
<path d="M71.7983 64.5688L68.9699 61.7404C68.5948 61.3653 68.0861 61.1546 67.5557 61.1546C67.0252 61.1546 66.5165 61.3653 66.1415 61.7404C65.7664 62.1155 65.5557 62.6242 65.5557 63.1546C65.5557 63.685 65.7664 64.1937 66.1415 64.5688L68.9699 67.3972C69.345 67.7723 69.8537 67.983 70.3841 67.983C70.9145 67.983 71.4232 67.7723 71.7983 67.3972C72.1734 67.0222 72.3841 66.5135 72.3841 65.983C72.3841 65.4526 72.1734 64.9439 71.7983 64.5688Z" fill="white"/>
<path d="M80.0005 47.5984C79.9989 47.07 79.7884 46.5637 79.4147 46.1901C79.0411 45.8165 78.5348 45.6059 78.0065 45.6043L74.0042 45.5902C73.7402 45.5891 73.4786 45.6403 73.2345 45.7409C72.9903 45.8414 72.7685 45.9893 72.5818 46.176C72.3951 46.3627 72.2473 46.5845 72.1467 46.8286C72.0462 47.0727 71.995 47.3344 71.9961 47.5984C71.9971 47.8616 72.0502 48.122 72.1521 48.3647C72.254 48.6074 72.4028 48.8276 72.59 49.0126C72.7751 49.1998 72.9953 49.3486 73.2379 49.4506C73.4806 49.5525 73.741 49.6055 74.0042 49.6066L78.0065 49.5924C78.5348 49.5909 79.0411 49.3803 79.4147 49.0067C79.7884 48.633 79.9989 48.1268 80.0005 47.5984Z" fill="white"/>
<path d="M52 27.6006C52.264 27.6017 52.5256 27.5505 52.7698 27.4499C53.0139 27.3494 53.2357 27.2015 53.4224 27.0148C53.6091 26.8281 53.757 26.6063 53.8575 26.3622C53.9581 26.118 54.0093 25.8564 54.0082 25.5924L53.994 21.5902C53.9552 21.0879 53.7282 20.6189 53.3586 20.2767C52.9889 19.9345 52.5037 19.7444 52 19.7444C51.4963 19.7444 51.0111 19.9345 50.6414 20.2767C50.2718 20.6189 50.0448 21.0879 50.006 21.5902L49.9918 25.5924C49.9929 25.8556 50.0459 26.116 50.1478 26.3587C50.2498 26.6014 50.3986 26.8216 50.5858 27.0066C50.7708 27.1938 50.991 27.3426 51.2337 27.4446C51.4764 27.5465 51.7368 27.5995 52 27.6006Z" fill="white"/>
</svg>
