<svg width="150" height="150" viewBox="0 0 150 150" fill="none" xmlns="http://www.w3.org/2000/svg">
<path d="M10 10H30L40 0H0V40L10 30V10Z" fill="#2A365B"/>
<path d="M140 140H120L110 150H150V110L140 120V140Z" fill="#2A365B"/>
<circle cx="75" cy="75" r="50" fill="#2A365B"/>
<path d="M88.3135 61.2841C85.228 58.4486 81.1903 56.875 76.9998 56.875C72.8093 56.875 68.7716 58.4486 65.6861 61.2841C62.7097 64.3067 60.9869 68.3434 60.8636 72.5837C61.0073 73.8564 60.8814 75.145 60.4939 76.3658C60.1065 77.5865 59.4663 78.712 58.615 79.6689C58.2399 80.044 58.0292 80.5527 58.0292 81.0831C58.0292 81.6135 58.2399 82.1223 58.615 82.4973L67.1003 90.9826C67.4754 91.3577 67.9841 91.5684 68.5145 91.5684C69.0449 91.5684 69.5537 91.3577 69.9287 90.9826C70.872 90.128 71.9873 89.4852 73.1996 89.0974C74.4119 88.7095 75.6932 88.5856 76.9574 88.734C79.0775 88.7364 81.1762 88.3105 83.1276 87.4818C85.0791 86.6531 86.843 85.4387 88.3135 83.9115C89.8493 82.3781 91.0642 80.5542 91.8873 78.5461C92.7104 76.5381 93.1253 74.3861 93.1077 72.216C93.0797 70.1659 92.641 68.1423 91.8175 66.2646C90.9941 64.387 89.8026 62.6934 88.3135 61.2841ZM77.0846 84.7884C74.1195 84.5491 71.1568 85.2786 68.6418 86.8672L62.7304 80.9558C64.3042 78.4641 65.0515 75.5392 64.8658 72.5978C64.9855 69.4143 66.2862 66.3894 68.5145 64.1126C70.8329 61.9944 73.8596 60.82 76.9998 60.82C80.14 60.82 83.1667 61.9944 85.4851 64.1126C86.5983 65.1512 87.4894 66.4048 88.1044 67.7977C88.7194 69.1905 89.0455 70.6935 89.063 72.216C89.0877 73.8579 88.7838 75.4881 88.1694 77.0108C87.5549 78.5336 86.6423 79.9181 85.4851 81.0831C84.3928 82.2254 83.0833 83.1378 81.6334 83.7668C80.1835 84.3959 78.6226 84.7287 77.0422 84.7459L77.0846 84.7884Z" fill="white"/>
<path d="M65.6856 92.3971L57.2003 83.9118C56.8253 83.5367 56.3166 83.326 55.7861 83.326C55.2557 83.326 54.747 83.5367 54.3719 83.9118C53.9968 84.2868 53.7861 84.7956 53.7861 85.326C53.7861 85.8564 53.9968 86.3651 54.3719 86.7402L62.8572 95.2255C63.2323 95.6006 63.741 95.8113 64.2714 95.8113C64.8018 95.8113 65.3106 95.6006 65.6856 95.2255C66.0607 94.8504 66.2714 94.3417 66.2714 93.8113C66.2714 93.2808 66.0607 92.7721 65.6856 92.3971Z" fill="white"/>
<path d="M60.0291 95.2259L54.3722 89.569C53.9971 89.1939 53.4884 88.9832 52.958 88.9832C52.4276 88.9832 51.9189 89.1939 51.5438 89.569C51.1687 89.9441 50.958 90.4528 50.958 90.9832C50.958 91.5136 51.1687 92.0224 51.5438 92.3974L57.2006 98.0543C57.5757 98.4294 58.0844 98.6401 58.6149 98.6401C59.1453 98.6401 59.654 98.4294 60.0291 98.0543C60.4041 97.6792 60.6149 97.1705 60.6149 96.6401C60.6149 96.1096 60.4041 95.6009 60.0291 95.2259Z" fill="white"/>
<path d="M91.1421 58.4558C91.5172 58.8309 92.0259 59.0416 92.5563 59.0416C93.0868 59.0416 93.5955 58.8309 93.9706 58.4558L96.799 55.6274C97.1741 55.2523 97.3848 54.7436 97.3848 54.2132C97.3848 53.6828 97.1741 53.1741 96.799 52.799C96.4239 52.4239 95.9152 52.2132 95.3848 52.2132C94.8543 52.2132 94.3456 52.4239 93.9706 52.799L91.1421 55.6274C90.7671 56.0025 90.5563 56.5112 90.5563 57.0416C90.5563 57.5721 90.7671 58.0808 91.1421 58.4558Z" fill="white"/>
<path d="M62.8579 55.6279L60.0294 52.7995C59.6544 52.4244 59.1457 52.2137 58.6152 52.2137C58.0848 52.2137 57.5761 52.4244 57.201 52.7995C56.8259 53.1745 56.6152 53.6832 56.6152 54.2137C56.6152 54.7441 56.8259 55.2528 57.201 55.6279L60.0294 58.4563C60.4045 58.8314 60.9132 59.0421 61.4437 59.0421C61.9741 59.0421 62.4828 58.8314 62.8579 58.4563C63.2329 58.0812 63.4437 57.5725 63.4437 57.0421C63.4437 56.5117 63.2329 56.003 62.8579 55.6279Z" fill="white"/>
<path d="M96.7983 89.5688L93.9699 86.7404C93.5948 86.3653 93.0861 86.1546 92.5557 86.1546C92.0252 86.1546 91.5165 86.3653 91.1415 86.7404C90.7664 87.1155 90.5557 87.6242 90.5557 88.1546C90.5557 88.685 90.7664 89.1937 91.1415 89.5688L93.9699 92.3972C94.345 92.7723 94.8537 92.983 95.3841 92.983C95.9145 92.983 96.4232 92.7723 96.7983 92.3972C97.1734 92.0222 97.3841 91.5135 97.3841 90.983C97.3841 90.4526 97.1734 89.9439 96.7983 89.5688Z" fill="white"/>
<path d="M105.001 72.5989C104.999 72.0705 104.788 71.5642 104.415 71.1906C104.041 70.817 103.535 70.6064 103.006 70.6048L99.0042 70.5907C98.7402 70.5896 98.4786 70.6408 98.2345 70.7414C97.9903 70.8419 97.7685 70.9898 97.5818 71.1765C97.3951 71.3632 97.2473 71.585 97.1467 71.8291C97.0462 72.0732 96.995 72.3349 96.9961 72.5989C96.9971 72.8621 97.0502 73.1225 97.1521 73.3652C97.254 73.6079 97.4028 73.828 97.59 74.0131C97.7751 74.2003 97.9953 74.3491 98.2379 74.451C98.4806 74.553 98.741 74.606 99.0042 74.6071L103.006 74.5929C103.535 74.5913 104.041 74.3808 104.415 74.0071C104.788 73.6335 104.999 73.1272 105.001 72.5989Z" fill="white"/>
<path d="M77 52.6011C77.264 52.6022 77.5256 52.5509 77.7698 52.4504C78.0139 52.3499 78.2357 52.202 78.4224 52.0153C78.6091 51.8286 78.757 51.6068 78.8575 51.3627C78.9581 51.1185 79.0093 50.8569 79.0082 50.5929L78.994 46.5907C78.9552 46.0884 78.7282 45.6194 78.3586 45.2772C77.9889 44.935 77.5037 44.7449 77 44.7449C76.4963 44.7449 76.0111 44.935 75.6414 45.2772C75.2718 45.6194 75.0448 46.0884 75.006 46.5907L74.9918 50.5929C74.9929 50.8561 75.0459 51.1165 75.1478 51.3592C75.2498 51.6019 75.3986 51.8221 75.5858 52.0071C75.7708 52.1943 75.991 52.3431 76.2337 52.445C76.4764 52.547 76.7368 52.6 77 52.6011Z" fill="white"/>
</svg>
