<svg width="100" height="100" viewBox="0 0 100 100" fill="none" xmlns="http://www.w3.org/2000/svg">
<circle cx="50" cy="50" r="50" fill="#EE8889"/>
<path d="M41.125 50C42.8516 50 44.25 51.3984 44.25 53.125V65.625C44.25 67.3516 42.8516 68.75 41.125 68.75H38V75H63V68.75H59.8875C58.1656 68.75 56.7625 67.3516 56.7625 65.625L56.75 43.75H38V50H41.125Z" fill="white"/>
<path d="M50.5 37.5C53.9518 37.5 56.75 34.7018 56.75 31.25C56.75 27.7982 53.9518 25 50.5 25C47.0482 25 44.25 27.7982 44.25 31.25C44.25 34.7018 47.0482 37.5 50.5 37.5Z" fill="white"/>
</svg>
