<svg width="32" height="32" viewBox="0 0 32 32" fill="none" xmlns="http://www.w3.org/2000/svg">
<path d="M20.5279 22.4721L25.0558 27L27 25.0558L22.4721 20.5279L24.25 18.75H18.75V24.25L20.5279 22.4721Z" fill="#4074B2"/>
<path d="M9.50106 11.4426L7.75 13.25L13.2232 13.2204L13.25 7.75L11.4453 9.49831L6.94425 5L5 6.94425L9.50106 11.4426Z" fill="#4074B2"/>
<path d="M5 25.0558L6.94425 27L11.4721 22.4721L13.25 24.25V18.75H7.75L9.52787 20.5279L5 25.0558Z" fill="#4074B2"/>
<path d="M24.2713 13.25L22.4886 11.4653L27 6.95113L25.0502 5L20.5361 9.51412L18.75 7.73006V13.25H24.2713Z" fill="#4074B2"/>
</svg>
