<svg width="70" height="70" viewBox="0 0 70 70" fill="none" xmlns="http://www.w3.org/2000/svg">
<circle cx="35" cy="35" r="35" fill="white"/>
<path d="M28.7875 35C29.9961 35 30.975 35.9789 30.975 37.1875V45.9375C30.975 47.1461 29.9961 48.125 28.7875 48.125H26.6V52.5H44.1V48.125H41.9212C40.7159 48.125 39.7337 47.1461 39.7337 45.9375L39.725 30.625H26.6V35H28.7875Z" fill="#4074B2"/>
<path d="M35.35 26.25C37.7662 26.25 39.725 24.2912 39.725 21.875C39.725 19.4588 37.7662 17.5 35.35 17.5C32.9337 17.5 30.975 19.4588 30.975 21.875C30.975 24.2912 32.9337 26.25 35.35 26.25Z" fill="#4074B2"/>
</svg>
