<svg width="150" height="150" viewBox="0 0 150 150" fill="none" xmlns="http://www.w3.org/2000/svg">
<path d="M10 10H30L40 0H0V40L10 30V10Z" fill="#0F3860"/>
<path d="M140 140H120L110 150H150V110L140 120V140Z" fill="#0F3860"/>
<circle cx="75" cy="75" r="50" fill="#0F3860"/>
<path d="M66.125 75C67.8516 75 69.25 76.3984 69.25 78.125V90.625C69.25 92.3516 67.8516 93.75 66.125 93.75H63V100H88V93.75H84.8875C83.1656 93.75 81.7625 92.3516 81.7625 90.625L81.75 68.75H63V75H66.125Z" fill="white"/>
<path d="M75.5 62.5C78.9518 62.5 81.75 59.7018 81.75 56.25C81.75 52.7982 78.9518 50 75.5 50C72.0482 50 69.25 52.7982 69.25 56.25C69.25 59.7018 72.0482 62.5 75.5 62.5Z" fill="white"/>
</svg>
