<svg width="70" height="70" viewBox="0 0 70 70" fill="none" xmlns="http://www.w3.org/2000/svg">
<circle cx="35" cy="35" r="35" fill="white"/>
<path d="M45.5 29.75L52.5 22.75V47.25L45.5 40.25V45.5C45.5 46.4283 45.1313 47.3185 44.4749 47.9749C43.8185 48.6313 42.9283 49 42 49H21C20.0717 49 19.1815 48.6313 18.5251 47.9749C17.8687 47.3185 17.5 46.4283 17.5 45.5V24.5C17.5 22.575 19.075 21 21 21H42C42.9283 21 43.8185 21.3687 44.4749 22.0251C45.1313 22.6815 45.5 23.5717 45.5 24.5V29.75ZM31.5 42C33.3565 42 35.137 41.2625 36.4497 39.9497C37.7625 38.637 38.5 36.8565 38.5 35C38.5 33.1435 37.7625 31.363 36.4497 30.0503C35.137 28.7375 33.3565 28 31.5 28C29.6435 28 27.863 28.7375 26.5503 30.0503C25.2375 31.363 24.5 33.1435 24.5 35C24.5 36.8565 25.2375 38.637 26.5503 39.9497C27.863 41.2625 29.6435 42 31.5 42ZM31.5 38.5C30.5717 38.5 29.6815 38.1313 29.0251 37.4749C28.3687 36.8185 28 35.9283 28 35C28 34.0717 28.3687 33.1815 29.0251 32.5251C29.6815 31.8687 30.5717 31.5 31.5 31.5C32.4283 31.5 33.3185 31.8687 33.9749 32.5251C34.6313 33.1815 35 34.0717 35 35C35 35.9283 34.6313 36.8185 33.9749 37.4749C33.3185 38.1313 32.4283 38.5 31.5 38.5Z" fill="#4074B2"/>
</svg>
