<svg width="160" height="160" viewBox="0 0 160 160" fill="none" xmlns="http://www.w3.org/2000/svg">
<path d="M17 15H37L47 5H7V45L17 35V15Z" fill="#0F3860"/>
<path d="M147 145H127L117 155H157V115L147 125V145Z" fill="#0F3860"/>
<circle opacity="0.5" cx="80" cy="80" r="80" fill="#ADCDF0"/>
<path d="M81.1207 26.5L44.8486 39.702C44.0028 40.0098 43.3138 40.6508 42.9353 41.4625L26.6189 76.4533C26.2403 77.2651 26.1922 78.2049 26.5 79.0506L39.702 115.323C40.0098 116.168 40.6508 116.857 41.4625 117.236L76.4533 133.552C77.265 133.931 78.2049 133.979 79.0506 133.671L115.323 120.469C116.168 120.161 116.857 119.521 117.236 118.709L133.552 83.718C133.931 82.9062 133.979 81.9664 133.671 81.1207L120.469 44.8486C120.161 44.0029 119.52 43.3139 118.709 42.9353L83.718 26.6189C82.9062 26.2403 81.9664 26.1922 81.1207 26.5Z" fill="#4074B2"/>
<path opacity="0.5" d="M84.2 50H80.28V42.94C80.28 42.82 80.28 42.5867 80.28 42.24C80.28 41.88 80.2867 41.4933 80.3 41.08C80.3133 40.6533 80.3267 40.2667 80.34 39.92C80.1667 40.12 80.0067 40.2933 79.86 40.44C79.7133 40.5867 79.5733 40.72 79.44 40.84L77.82 42.18L75.82 39.72L80.72 35.72H84.2V50Z" fill="white"/>
<path d="M99.0346 81.418H56.9654C54.7915 81.418 53 83.3335 53 85.7062V106.712C53 109.063 54.7713 111 56.9654 111H99.0346C101.209 111 103 109.084 103 106.712V85.7062C102.98 83.3335 101.209 81.418 99.0346 81.418ZM101.007 106.69C101.007 107.866 100.122 108.823 99.0346 108.823H56.9654C55.8784 108.823 54.9928 107.866 54.9928 106.69V85.6844C54.9928 84.509 55.8784 83.5512 56.9654 83.5512H99.0346C100.122 83.5512 101.007 84.509 101.007 85.6844V106.69Z" fill="white"/>
<path d="M66.2045 79.3283C66.4662 79.3283 66.7077 79.2194 66.909 79.0235L73.6723 71.7096C74.7592 72.9721 76.289 73.7775 78.0201 73.7775C79.7311 73.7775 81.281 72.9721 82.3478 71.7096L89.1111 79.0235C89.3124 79.2412 89.5539 79.3283 89.8156 79.3283C90.0773 79.3283 90.3188 79.2194 90.5201 79.0235C90.9025 78.6099 90.9025 77.9351 90.5201 77.4998L83.4348 69.8594C83.7367 69.0975 83.8977 68.2486 83.8977 67.3779C83.8977 63.8515 81.2407 61 78 61C74.7592 61 72.1022 63.8733 72.1022 67.3779C72.1022 68.2486 72.2633 69.0975 72.5652 69.8594L65.5 77.4998C65.1175 77.9134 65.1175 78.5882 65.5 79.0235C65.7013 79.2194 65.9428 79.3283 66.2045 79.3283ZM78 63.1332C80.1538 63.1332 81.9251 65.027 81.9251 67.3779C81.9251 69.7288 80.1739 71.6226 78 71.6226C75.8261 71.6226 74.0749 69.7288 74.0749 67.3779C74.0749 65.027 75.8462 63.1332 78 63.1332Z" fill="white"/>
<path d="M67.1399 93.7802L65.7319 99.4922H63.9079L63.3639 97.0042C63.3532 96.9562 63.3372 96.8762 63.3159 96.7642C63.2945 96.6522 63.2679 96.5242 63.2359 96.3802C63.2092 96.2362 63.1852 96.0949 63.1639 95.9562C63.1425 95.8175 63.1265 95.7002 63.1159 95.6042C63.1052 95.7002 63.0865 95.8175 63.0599 95.9562C63.0385 96.0949 63.0145 96.2362 62.9879 96.3802C62.9612 96.5242 62.9345 96.6522 62.9079 96.7642C62.8865 96.8762 62.8705 96.9562 62.8599 97.0042L62.3079 99.4922H60.4839L59.0679 93.7802H60.5559L61.1799 96.6442C61.1959 96.7135 61.2172 96.8149 61.2439 96.9482C61.2705 97.0762 61.2972 97.2149 61.3239 97.3642C61.3559 97.5135 61.3852 97.6602 61.4119 97.8042C61.4385 97.9429 61.4572 98.0602 61.4679 98.1562C61.4892 97.9962 61.5159 97.8122 61.5479 97.6042C61.5852 97.3962 61.6252 97.1882 61.6679 96.9802C61.7105 96.7669 61.7505 96.5695 61.7879 96.3882C61.8305 96.2069 61.8652 96.0575 61.8919 95.9402L62.3959 93.7802H63.8279L64.3159 95.9402C64.3425 96.0522 64.3745 96.2015 64.4119 96.3882C64.4545 96.5695 64.4972 96.7669 64.5399 96.9802C64.5825 97.1935 64.6225 97.4042 64.6599 97.6122C64.6972 97.8202 64.7239 98.0015 64.7399 98.1562C64.7559 98.0229 64.7825 97.8575 64.8199 97.6602C64.8572 97.4629 64.8945 97.2709 64.9319 97.0842C64.9692 96.8922 64.9985 96.7482 65.0199 96.6522L65.6519 93.7802H67.1399ZM69.6241 94.9882C70.2695 94.9882 70.7788 95.1562 71.1521 95.4922C71.5255 95.8282 71.7121 96.3349 71.7121 97.0122V97.6922H68.9841C68.9948 97.9215 69.0801 98.1109 69.2401 98.2602C69.4055 98.4095 69.6428 98.4842 69.9521 98.4842C70.2295 98.4842 70.4828 98.4575 70.7121 98.4042C70.9415 98.3509 71.1788 98.2655 71.4241 98.1482V99.2442C71.2108 99.3562 70.9761 99.4389 70.7201 99.4922C70.4695 99.5455 70.1521 99.5722 69.7681 99.5722C69.3201 99.5722 68.9201 99.4949 68.5681 99.3402C68.2215 99.1802 67.9468 98.9349 67.7441 98.6042C67.5415 98.2682 67.4401 97.8362 67.4401 97.3082C67.4401 96.7802 67.5308 96.3455 67.7121 96.0042C67.8988 95.6575 68.1548 95.4015 68.4801 95.2362C68.8108 95.0709 69.1921 94.9882 69.6241 94.9882ZM69.6801 96.0282C69.4988 96.0282 69.3468 96.0842 69.2241 96.1962C69.1068 96.3082 69.0375 96.4869 69.0161 96.7322H70.3281C70.3228 96.5349 70.2641 96.3695 70.1521 96.2362C70.0455 96.0975 69.8881 96.0282 69.6801 96.0282ZM74.1054 99.4922H72.5774V93.4122H74.1054V99.4922ZM77.1794 99.5722C76.5074 99.5722 75.9714 99.3909 75.5714 99.0282C75.1714 98.6655 74.9714 98.0895 74.9714 97.3002C74.9714 96.7669 75.0727 96.3295 75.2754 95.9882C75.478 95.6469 75.7527 95.3962 76.0994 95.2362C76.4514 95.0709 76.8514 94.9882 77.2994 94.9882C77.5714 94.9882 77.8274 95.0202 78.0674 95.0842C78.3127 95.1429 78.5394 95.2229 78.7474 95.3242L78.2994 96.4522C78.118 96.3722 77.9474 96.3082 77.7874 96.2602C77.6274 96.2122 77.4647 96.1882 77.2994 96.1882C77.07 96.1882 76.8834 96.2789 76.7394 96.4602C76.5954 96.6415 76.5234 96.9189 76.5234 97.2922C76.5234 97.6762 76.5954 97.9509 76.7394 98.1162C76.8834 98.2762 77.0727 98.3562 77.3074 98.3562C77.526 98.3562 77.7447 98.3215 77.9634 98.2522C78.1874 98.1829 78.398 98.0869 78.5954 97.9642V99.1802C78.4087 99.3029 78.2007 99.3989 77.9714 99.4682C77.7474 99.5375 77.4834 99.5722 77.1794 99.5722ZM83.6999 97.2682C83.6999 98.0095 83.5025 98.5802 83.1079 98.9802C82.7132 99.3749 82.1719 99.5722 81.4839 99.5722C81.0572 99.5722 80.6785 99.4842 80.3479 99.3082C80.0172 99.1269 79.7559 98.8655 79.5639 98.5242C79.3772 98.1775 79.2839 97.7589 79.2839 97.2682C79.2839 96.5375 79.4812 95.9749 79.8759 95.5802C80.2705 95.1855 80.8145 94.9882 81.5079 94.9882C81.9345 94.9882 82.3105 95.0762 82.6359 95.2522C82.9665 95.4282 83.2252 95.6869 83.4119 96.0282C83.6039 96.3642 83.6999 96.7775 83.6999 97.2682ZM80.8359 97.2682C80.8359 97.6469 80.8865 97.9375 80.9879 98.1402C81.0892 98.3375 81.2599 98.4362 81.4999 98.4362C81.7345 98.4362 81.8999 98.3375 81.9959 98.1402C82.0972 97.9375 82.1479 97.6469 82.1479 97.2682C82.1479 96.8949 82.0972 96.6122 81.9959 96.4202C81.8999 96.2229 81.7319 96.1242 81.4919 96.1242C81.2572 96.1242 81.0892 96.2229 80.9879 96.4202C80.8865 96.6122 80.8359 96.8949 80.8359 97.2682ZM89.9696 94.9882C90.4763 94.9882 90.863 95.1189 91.1296 95.3802C91.3963 95.6362 91.5296 96.0469 91.5296 96.6122V99.4922H90.0016V97.0842C90.0016 96.7482 89.9563 96.5162 89.8656 96.3882C89.775 96.2549 89.6416 96.1882 89.4656 96.1882C89.2203 96.1882 89.0496 96.2975 88.9536 96.5162C88.8576 96.7295 88.8096 97.0335 88.8096 97.4282V99.4922H87.2816V97.0842C87.2816 96.7642 87.239 96.5349 87.1536 96.3962C87.0683 96.2575 86.9403 96.1882 86.7696 96.1882C86.5083 96.1882 86.3296 96.3082 86.2336 96.5482C86.143 96.7829 86.0976 97.1189 86.0976 97.5562V99.4922H84.5696V95.0682H85.7216L85.9456 95.6122H85.9856C86.103 95.4309 86.271 95.2815 86.4896 95.1642C86.7136 95.0469 86.9883 94.9882 87.3136 94.9882C87.639 94.9882 87.9056 95.0442 88.1136 95.1562C88.327 95.2629 88.5003 95.4122 88.6336 95.6042H88.6816C88.8203 95.4069 88.999 95.2549 89.2176 95.1482C89.4416 95.0415 89.6923 94.9882 89.9696 94.9882ZM94.5616 94.9882C95.207 94.9882 95.7163 95.1562 96.0896 95.4922C96.463 95.8282 96.6496 96.3349 96.6496 97.0122V97.6922H93.9216C93.9323 97.9215 94.0176 98.1109 94.1776 98.2602C94.343 98.4095 94.5803 98.4842 94.8896 98.4842C95.167 98.4842 95.4203 98.4575 95.6496 98.4042C95.879 98.3509 96.1163 98.2655 96.3616 98.1482V99.2442C96.1483 99.3562 95.9136 99.4389 95.6576 99.4922C95.407 99.5455 95.0896 99.5722 94.7056 99.5722C94.2576 99.5722 93.8576 99.4949 93.5056 99.3402C93.159 99.1802 92.8843 98.9349 92.6816 98.6042C92.479 98.2682 92.3776 97.8362 92.3776 97.3082C92.3776 96.7802 92.4683 96.3455 92.6496 96.0042C92.8363 95.6575 93.0923 95.4015 93.4176 95.2362C93.7483 95.0709 94.1296 94.9882 94.5616 94.9882ZM94.6176 96.0282C94.4363 96.0282 94.2843 96.0842 94.1616 96.1962C94.0443 96.3082 93.975 96.4869 93.9536 96.7322H95.2656C95.2603 96.5349 95.2016 96.3695 95.0896 96.2362C94.983 96.0975 94.8256 96.0282 94.6176 96.0282Z" fill="white"/>
</svg>
