<svg width="160" height="160" viewBox="0 0 160 160" fill="none" xmlns="http://www.w3.org/2000/svg">
<path d="M16 16H36L46 6H6V46L16 36V16Z" fill="#3A4101"/>
<path d="M146 146H126L116 156H156V116L146 126V146Z" fill="#3A4101"/>
<circle opacity="0.5" cx="80" cy="80" r="80" fill="#DAE299"/>
<path d="M81.1207 26.5002L44.8486 39.7021C44.0028 40.0099 43.3138 40.6509 42.9353 41.4627L26.6189 76.4534C26.2403 77.2652 26.1922 78.205 26.5 79.0507L39.702 115.323C40.0098 116.169 40.6508 116.858 41.4625 117.236L76.4533 133.553C77.265 133.931 78.2049 133.979 79.0506 133.671L115.323 120.469C116.168 120.162 116.857 119.521 117.236 118.709L133.552 83.7181C133.931 82.9064 133.979 81.9666 133.671 81.1208L120.469 44.8487C120.161 44.003 119.52 43.314 118.709 42.9355L83.718 26.619C82.9062 26.2405 81.9664 26.1923 81.1207 26.5002Z" fill="#A1D172"/>
<path opacity="0.5" d="M87.42 46.24H85.84V49H82.04V46.24H76.34V43.4L82.28 34.72H85.84V43.36H87.42V46.24ZM82.04 43.36V41.7C82.04 41.5 82.0467 41.24 82.06 40.92C82.0733 40.5867 82.0867 40.2867 82.1 40.02C82.1133 39.7533 82.12 39.6133 82.12 39.6H82.02C81.8867 39.8933 81.7667 40.1333 81.66 40.32C81.5667 40.5067 81.4333 40.7333 81.26 41L79.68 43.36H82.04Z" fill="white"/>
<path d="M90.3333 61H60.3333C59.4493 61 58.6014 61.3512 57.9763 61.9763C57.3512 62.6014 57 63.4493 57 64.3333V84.3333C57 85.2174 57.3512 86.0652 57.9763 86.6904C58.6014 87.3155 59.4493 87.6667 60.3333 87.6667H65.3333V94.3333L72 87.6667H90.3333C91.2174 87.6667 92.0652 87.3155 92.6904 86.6904C93.3155 86.0652 93.6667 85.2174 93.6667 84.3333V64.3333C93.6667 63.4493 93.3155 62.6014 92.6904 61.9763C92.0652 61.3512 91.2174 61 90.3333 61Z" stroke="white" stroke-width="2" stroke-linecap="round" stroke-linejoin="round"/>
<path d="M73.667 92.6666C73.667 93.211 73.667 93.7666 73.667 94.3332C73.6679 98.7531 75.4245 102.992 78.5503 106.117L73.667 111H90.3337C94.0024 111 97.5686 109.789 100.479 107.556C103.39 105.322 105.482 102.191 106.432 98.6469C107.381 95.1032 107.135 91.3451 105.731 87.9556C104.327 84.5661 101.844 81.7344 98.667 79.8999" stroke="white" stroke-width="2" stroke-linecap="round" stroke-linejoin="round"/>
<path d="M63.667 71H87.0003" stroke="white" stroke-width="2" stroke-linecap="round" stroke-linejoin="round"/>
<path d="M63.667 77.6667H87.0003" stroke="white" stroke-width="2" stroke-linecap="round" stroke-linejoin="round"/>
</svg>
