<svg width="160" height="160" viewBox="0 0 160 160" fill="none" xmlns="http://www.w3.org/2000/svg">
<path d="M15 15H35L45 5H5V45L15 35V15Z" fill="#503301"/>
<path d="M145 145H125L115 155H155V115L145 125V145Z" fill="#503301"/>
<circle opacity="0.5" cx="80" cy="80" r="80" fill="#FFDCA2"/>
<path d="M81.1207 26.5002L44.8486 39.7021C44.0028 40.0099 43.3138 40.6509 42.9353 41.4627L26.6189 76.4534C26.2403 77.2652 26.1922 78.205 26.5 79.0507L39.702 115.323C40.0098 116.169 40.6508 116.858 41.4625 117.236L76.4533 133.553C77.265 133.931 78.2049 133.979 79.0506 133.671L115.323 120.469C116.168 120.162 116.857 119.521 117.236 118.709L133.552 83.7181C133.931 82.9064 133.979 81.9666 133.671 81.1208L120.469 44.8487C120.161 44.003 119.52 43.314 118.709 42.9355L83.718 26.619C82.9062 26.2405 81.9664 26.1923 81.1207 26.5002Z" fill="#ECAE65"/>
<path opacity="0.5" d="M83.48 40.64C84.28 40.64 85.0067 40.82 85.66 41.18C86.3133 41.54 86.8333 42.06 87.22 42.74C87.6067 43.42 87.8 44.2533 87.8 45.24C87.8 46.84 87.32 48.0667 86.36 48.92C85.4 49.7733 83.9467 50.2 82 50.2C80.3467 50.2 78.9867 49.94 77.92 49.42V46.26C78.4267 46.4867 79.0333 46.6933 79.74 46.88C80.4467 47.0667 81.0933 47.16 81.68 47.16C82.3867 47.16 82.9333 47.0067 83.32 46.7C83.7067 46.3933 83.9 45.9467 83.9 45.36C83.9 44.8267 83.7 44.4067 83.3 44.1C82.9133 43.78 82.3267 43.62 81.54 43.62C81.18 43.62 80.8267 43.66 80.48 43.74C80.1333 43.8067 79.8333 43.88 79.58 43.96L78.16 43.26L78.7 35.72H86.84V38.94H81.98L81.8 40.82C82.0133 40.78 82.2267 40.74 82.44 40.7C82.6667 40.66 83.0133 40.64 83.48 40.64Z" fill="white"/>
<path d="M87.7319 98.5469C87.6196 98.5469 87.5073 98.5279 87.3971 98.4961L74.682 94.2577C74.4807 94.1962 74.3069 94.067 74.1819 93.9017L59.3476 74.829C59.2459 74.6955 59.1738 74.5429 59.1442 74.3798C59.0997 74.1594 58.1481 68.9419 62.8421 65.7377C64.5332 64.5828 66.2794 64 68.0363 64C69.9689 64 71.1981 64.7184 71.3337 64.7989C71.4439 64.8646 71.5393 64.9515 71.6177 65.0532L86.4519 84.1259C86.5621 84.2615 86.6321 84.4289 86.6617 84.6027L88.7364 97.0317C88.8 97.1694 88.8403 97.3326 88.8403 97.4916C88.8403 98.0849 88.2766 98.6147 87.7595 98.5512C87.7446 98.5469 87.7362 98.5469 87.7319 98.5469ZM75.6568 92.3441L86.3947 95.9212L84.6125 85.2067L70.0834 66.5303C69.7909 66.3968 69.0556 66.1149 68.0363 66.1149C66.7139 66.1149 65.3682 66.5769 64.0352 67.4839C60.9709 69.5777 61.0959 72.8582 61.1934 73.7461L75.6568 92.3441Z" fill="white"/>
<path d="M64.7155 81.0639C64.2598 81.0639 63.8381 80.7672 63.7004 80.3116C63.1875 78.6141 63.2299 74.7212 67.0381 72.1252C71.6367 68.9867 75.7289 70.6947 75.9026 70.7731C76.4388 71.0041 76.6867 71.6293 76.4536 72.1655C76.2205 72.7016 75.5975 72.9496 75.0634 72.7186C74.9172 72.6613 71.8253 71.4216 68.2291 73.8735C64.7409 76.2534 65.7178 79.6652 65.7284 79.697C65.898 80.2628 65.5801 80.852 65.0185 81.0173C64.9189 81.0491 64.8151 81.0639 64.7155 81.0639Z" fill="white"/>
<path d="M75.0147 94.3088C74.9172 94.3088 74.8197 94.2961 74.7223 94.2643C74.1585 94.1075 73.8343 93.5141 73.9933 92.9567L76.1124 85.5396C76.2438 85.0861 76.6592 84.7725 77.1296 84.7725H85.6064C86.1913 84.7725 86.666 85.2493 86.666 85.8321C86.666 86.4148 86.1913 86.8916 85.6064 86.8916H77.9286L76.0298 93.5416C75.9005 94.0036 75.4788 94.3088 75.0147 94.3088Z" fill="white"/>
<path d="M77.1338 86.8914C76.8074 86.8914 76.4832 86.741 76.2776 86.4549L66.9447 73.619C66.5993 73.1422 66.7053 72.4831 67.1778 72.1398C67.6525 71.7944 68.3116 71.9003 68.6549 72.3729L77.9878 85.2088C78.3332 85.6835 78.2273 86.3447 77.7547 86.688C77.5703 86.8257 77.3542 86.8914 77.1338 86.8914Z" fill="white"/>
<path d="M88.8593 99.5429C88.5499 99.5429 88.2426 99.4094 88.0307 99.1445C87.6662 98.6825 87.7404 98.0214 88.196 97.6547C94.1678 92.876 97.9188 86.8935 98.2282 81.6507C98.3617 79.2984 97.7471 77.2979 96.4989 76.0327C93.0002 72.4894 85.7462 73.3392 80.3381 77.923C79.8909 78.3024 79.2212 78.2388 78.844 77.7938C78.4626 77.3466 78.5219 76.6812 78.9669 76.2997C85.2058 71.0166 93.7482 70.2346 98.0057 74.5429C99.6862 76.2489 100.519 78.8173 100.345 81.7757C100.002 87.6077 95.9543 94.1644 89.5247 99.3098C89.3213 99.4645 89.0903 99.5429 88.8593 99.5429Z" fill="white"/>
<path d="M73.6117 114C68.9876 114 65.6923 112.362 63.8211 111.075C61.7973 109.692 60.5724 107.276 60.2778 104.099C59.6887 97.7119 62.9098 89.0317 67.6144 84.3271C68.0255 83.9139 68.6994 83.9139 69.1106 84.3271C69.5238 84.7403 69.5238 85.4121 69.1106 85.8254C64.8722 90.0616 61.8587 98.1717 62.3885 103.904C62.5517 105.667 63.1408 108.034 65.0184 109.329C68.958 112.031 80.018 116.418 97.5775 98.8647C102.32 94.122 104.999 87.1562 104.745 80.2265C104.577 75.683 103.092 71.7815 100.769 69.7747C96.804 66.3543 85.1888 67.1427 77.7865 72.9005C77.3224 73.2629 76.6591 73.176 76.2988 72.7119C75.9386 72.2499 76.0233 71.5845 76.4832 71.2263C84.0974 65.3074 97.0499 63.7647 102.153 68.1747C104.952 70.5948 106.671 74.9561 106.864 80.1481C107.139 87.6521 104.23 95.2112 99.0758 100.365C88.3803 111.048 79.8082 113.998 73.6117 114Z" fill="white"/>
<path d="M58.0612 98.5465C58.04 98.5465 58.0188 98.5444 57.9997 98.5444C57.417 98.5062 56.9698 98.0103 57.0016 97.4276C57.027 97.0334 57.6416 87.7577 64.9506 80.5186C65.366 80.1054 66.0399 80.1139 66.4489 80.5271C66.86 80.9425 66.8558 81.6142 66.4404 82.0254C59.7247 88.6711 59.1208 97.4615 59.1144 97.5484C59.0869 98.1121 58.6207 98.5465 58.0612 98.5465Z" fill="white"/>
</svg>
