<svg width="160" height="160" viewBox="0 0 160 160" fill="none" xmlns="http://www.w3.org/2000/svg">
<path d="M15 15H35L45 5H5V45L15 35V15Z" fill="#2B6745"/>
<path d="M145 145H125L115 155H155V115L145 125V145Z" fill="#2B6745"/>
<circle opacity="0.5" cx="80" cy="80" r="80" fill="#98D6C3"/>
<path d="M81.1207 26.5002L44.8486 39.7021C44.0028 40.0099 43.3138 40.6509 42.9353 41.4627L26.6189 76.4534C26.2403 77.2652 26.1922 78.205 26.5 79.0507L39.702 115.323C40.0098 116.169 40.6508 116.858 41.4625 117.236L76.4533 133.553C77.265 133.931 78.2049 133.979 79.0506 133.671L115.323 120.469C116.168 120.162 116.857 119.521 117.236 118.709L133.552 83.7181C133.931 82.9064 133.979 81.9666 133.671 81.1208L120.469 44.8487C120.161 44.003 119.52 43.314 118.709 42.9355L83.718 26.619C82.9062 26.2405 81.9664 26.1923 81.1207 26.5002Z" fill="#59B17F"/>
<path opacity="0.5" d="M87.48 38.82C87.48 39.5 87.3333 40.0867 87.04 40.58C86.7467 41.06 86.36 41.46 85.88 41.78C85.4 42.0867 84.88 42.32 84.32 42.48V42.54C85.4667 42.6867 86.3467 43.0333 86.96 43.58C87.5867 44.1267 87.9 44.9067 87.9 45.92C87.9 46.6933 87.6867 47.4067 87.26 48.06C86.8467 48.7133 86.2 49.2333 85.32 49.62C84.44 50.0067 83.3133 50.2 81.94 50.2C81.02 50.2 80.2333 50.1333 79.58 50C78.9267 49.8533 78.2933 49.66 77.68 49.42V46.22C78.2933 46.54 78.9267 46.78 79.58 46.94C80.2333 47.0867 80.8333 47.16 81.38 47.16C82.3267 47.16 82.9667 47.0267 83.3 46.76C83.6467 46.4933 83.82 46.1333 83.82 45.68C83.82 45.36 83.7333 45.0867 83.56 44.86C83.4 44.6333 83.1 44.46 82.66 44.34C82.22 44.2067 81.5933 44.14 80.78 44.14H79.9V41.24H80.8C81.8933 41.24 82.6533 41.1 83.08 40.82C83.52 40.54 83.74 40.18 83.74 39.74C83.74 39.3533 83.5933 39.0733 83.3 38.9C83.0067 38.7133 82.62 38.62 82.14 38.62C81.7 38.62 81.2933 38.68 80.92 38.8C80.5467 38.92 80.22 39.0533 79.94 39.2C79.66 39.3333 79.4467 39.4467 79.3 39.54L77.7 36.96C78.2867 36.56 78.96 36.22 79.72 35.94C80.4933 35.66 81.5 35.52 82.74 35.52C84.2067 35.52 85.36 35.8133 86.2 36.4C87.0533 36.9867 87.48 37.7933 87.48 38.82Z" fill="white"/>
<path d="M92.3782 86.7171C92.3782 82.8336 90.7139 79.0888 87.8013 76.5229C84.8887 73.957 81.0052 72.7088 77.1217 73.1249C70.811 73.8183 65.6792 78.9501 65.0551 85.2608C64.639 89.491 66.0953 93.6519 69.1466 96.6339C70.2562 97.7434 71.0884 98.9917 71.5738 100.379C71.019 100.517 70.6029 101.072 70.6029 101.696C70.6029 102.459 71.2271 103.083 71.9899 103.083V104.678C71.2271 104.678 70.6029 105.302 70.6029 106.065C70.6029 106.828 71.2271 107.452 71.9899 107.452V108.007C71.9899 110.92 74.7638 113 78.7167 113C82.6695 113 85.4434 110.989 85.4434 108.007V107.452C86.2063 107.452 86.8304 106.828 86.8304 106.065C86.8304 105.302 86.2063 104.678 85.4434 104.678V103.083C86.2063 103.083 86.8304 102.459 86.8304 101.696C86.8304 101.072 86.4143 100.517 85.8595 100.379C86.345 98.9917 87.1771 97.7434 88.2867 96.6339C90.8526 93.9986 92.3782 90.4619 92.3782 86.7171ZM82.6002 103.014V104.609H74.6945V103.014H82.6002ZM78.6473 110.157C77.0523 110.157 74.6945 109.602 74.6945 107.938V107.383H82.6002V107.938C82.6002 109.602 80.2423 110.157 78.6473 110.157ZM82.8776 100.24H74.4171C73.8623 98.1595 72.6834 96.1484 71.019 94.5534C68.5918 92.1956 67.3436 88.8669 67.7597 85.4688C68.3144 80.4064 72.3366 76.3149 77.3991 75.7601C77.8151 75.6907 78.2312 75.6907 78.6473 75.6907C81.3519 75.6907 83.9178 76.6616 85.9289 78.4647C88.2174 80.5451 89.6043 83.5271 89.6043 86.6477C89.6043 89.6297 88.4254 92.473 86.2063 94.5534C84.5419 96.1484 83.4323 98.1595 82.8776 100.24Z" fill="white"/>
<path d="M78.6477 69.9348C79.4105 69.9348 80.0347 69.3107 80.0347 68.5479V64.387C80.0347 63.6241 79.4105 63 78.6477 63C77.8849 63 77.2607 63.6241 77.2607 64.387V68.5479C77.2607 69.3107 77.8849 69.9348 78.6477 69.9348Z" fill="white"/>
<path d="M64.8473 74.8586C65.1247 75.136 65.4714 75.2747 65.8181 75.2747C66.1649 75.2747 66.5116 75.136 66.789 74.8586C67.3438 74.3038 67.3438 73.4716 66.789 72.9169L63.8764 69.9349C63.3216 69.3801 62.4894 69.3801 61.9346 69.9349C61.3799 70.4897 61.3799 71.3219 61.9346 71.8766L64.8473 74.8586Z" fill="white"/>
<path d="M61.9348 86.717C61.9348 85.9542 61.3107 85.3301 60.5479 85.3301H56.387C55.6241 85.3301 55 85.9542 55 86.717C55 87.4799 55.6241 88.104 56.387 88.104H60.5479C61.3107 88.104 61.9348 87.4799 61.9348 86.717Z" fill="white"/>
<path d="M64.8473 98.5062L61.8653 101.488C61.3105 102.043 61.3105 102.875 61.8653 103.43C62.1427 103.707 62.4894 103.846 62.8362 103.846C63.1829 103.846 63.5297 103.707 63.8071 103.43L66.789 100.448C67.3438 99.8932 67.3438 99.061 66.789 98.5062C66.2342 97.9515 65.4021 98.0208 64.8473 98.5062Z" fill="white"/>
<path d="M92.4477 98.5062C91.8929 97.9514 91.0607 97.9514 90.5059 98.5062C89.9511 99.061 89.9511 99.8931 90.5059 100.448L93.4879 103.43C93.7653 103.707 94.112 103.846 94.4588 103.846C94.8055 103.846 95.1523 103.707 95.4297 103.43C95.9844 102.875 95.9844 102.043 95.4297 101.488L92.4477 98.5062Z" fill="white"/>
<path d="M100.978 85.3301H96.8167C96.0538 85.3301 95.4297 85.9542 95.4297 86.717C95.4297 87.4799 96.0538 88.104 96.8167 88.104H100.978C101.74 88.104 102.364 87.4799 102.364 86.717C102.364 85.9542 101.74 85.3301 100.978 85.3301Z" fill="white"/>
<path d="M91.4768 75.2747C91.8235 75.2747 92.1703 75.136 92.4477 74.8586L95.4297 71.8766C95.9844 71.3219 95.9844 70.4897 95.4297 69.9349C94.8749 69.3801 94.0427 69.3801 93.4879 69.9349L90.5059 72.9169C89.9511 73.4716 89.9511 74.3038 90.5059 74.8586C90.7833 75.136 91.1301 75.2747 91.4768 75.2747Z" fill="white"/>
</svg>
