<svg width="160" height="160" viewBox="0 0 160 160" fill="none" xmlns="http://www.w3.org/2000/svg">
<path d="M14 14H34L44 4H4V44L14 34V14Z" fill="#6C2401"/>
<path d="M144 144H124L114 154H154V114L144 124V144Z" fill="#6C2401"/>
<circle opacity="0.5" cx="80" cy="80" r="80" fill="#FFBDCC"/>
<path d="M81.1207 26.5002L44.8486 39.7021C44.0028 40.0099 43.3138 40.6509 42.9353 41.4627L26.6189 76.4534C26.2403 77.2652 26.1922 78.205 26.5 79.0507L39.702 115.323C40.0098 116.169 40.6508 116.858 41.4625 117.236L76.4533 133.553C77.265 133.931 78.2049 133.979 79.0506 133.671L115.323 120.469C116.168 120.162 116.857 119.521 117.236 118.709L133.552 83.7181C133.931 82.9064 133.979 81.9666 133.671 81.1208L120.469 44.8487C120.161 44.003 119.52 43.314 118.709 42.9355L83.718 26.619C82.9062 26.2405 81.9664 26.1923 81.1207 26.5002Z" fill="#EE8889"/>
<path opacity="0.5" d="M79.04 51L83.94 39.92H77.76V36.72H88.06V39L83.04 51H79.04Z" fill="white"/>
<path d="M66.2128 79.6049C69.2567 79.6049 71.7526 77.1293 71.7526 74.0652C71.7526 71.001 69.277 68.5254 66.2128 68.5254C63.1487 68.5254 60.6934 71.0213 60.6934 74.0652C60.6934 77.109 63.169 79.6049 66.2128 79.6049ZM66.2128 70.6358C68.1 70.6358 69.6625 72.178 69.6625 74.0855C69.6625 75.9929 68.1203 77.5351 66.2128 77.5351C64.3054 77.5351 62.7632 75.9929 62.7632 74.0855C62.7632 72.178 64.3257 70.6358 66.2128 70.6358Z" fill="white"/>
<path d="M72.767 86.0167C72.1989 85.9761 71.6916 86.4226 71.651 86.9907L70.7987 99.1458C70.7987 99.1864 70.7784 99.2066 70.7784 99.2472L70.0073 111.078C69.987 111.524 69.6015 111.889 69.155 111.889H63.2703C62.8239 111.889 62.4383 111.544 62.418 111.078L61.6469 99.2472C61.6266 98.8211 61.3222 98.4355 60.9164 98.3138C60.6932 98.2529 60.0438 98.05 59.9424 97.9485C59.8612 97.8268 59.8206 97.1774 59.8003 96.8527L59.0901 84.3122V84.2919C60.4091 83.9063 61.7078 83.4802 63.0268 83.054C63.6153 83.744 64.2037 84.4136 64.8125 85.1036L65.4416 85.8138C65.6445 86.037 65.9286 86.179 66.233 86.179C66.5373 86.179 66.8214 86.0573 67.0244 85.8138L67.7549 84.9818C68.3433 84.3122 68.8912 83.6831 69.4391 83.0338L78.53 85.0833C78.6721 85.1239 78.8344 85.1239 78.9765 85.0833L87.1745 83.399C87.7427 83.2773 88.108 82.7294 87.9862 82.1612C87.8645 81.593 87.3166 81.2278 86.7484 81.3495L78.7735 82.9932L69.8044 80.964C69.7638 80.9437 69.7029 80.9437 69.6623 80.9437C69.3985 80.9234 68.5057 80.9031 67.9578 81.5524C67.3896 82.2221 66.8214 82.8714 66.233 83.5411C65.6445 82.8714 65.0763 82.2221 64.5081 81.5524C63.9805 80.9437 63.3109 80.7407 62.5804 80.9842C61.1802 81.451 59.78 81.8974 58.3799 82.3235C57.487 82.6076 57 83.2773 57 84.1904C57 84.2513 57 84.4136 57 84.4339L57.6899 96.8122L57.7102 97.0151C57.832 98.8211 58.0958 99.511 59.6177 100.1L60.3482 111.24C60.4497 112.782 61.7484 114 63.2906 114H69.1753C70.7175 114 72.0162 112.782 72.1177 111.24L72.8888 99.511C72.8888 99.4704 72.8888 99.4502 72.9091 99.4096L73.7614 87.1531C73.7614 86.5646 73.3352 86.0573 72.767 86.0167Z" fill="white"/>
<path d="M104.91 64H66.2124C65.6442 64 65.1572 64.4667 65.1572 65.0552C65.1572 65.6437 65.6239 66.1104 66.2124 66.1104H103.854V93.3019H76.0947C75.5265 93.3019 75.0395 93.7687 75.0395 94.3571C75.0395 94.9253 75.5063 95.4123 76.0947 95.4123H104.91C105.478 95.4123 105.965 94.9456 105.965 94.3571V65.0552C105.965 64.487 105.498 64 104.91 64Z" fill="white"/>
</svg>
