<svg width="160" height="160" viewBox="0 0 160 160" fill="none" xmlns="http://www.w3.org/2000/svg">
<path d="M14 14H34L44 4H4V44L14 34V14Z" fill="#6C2401"/>
<path d="M144 144H124L114 154H154V114L144 124V144Z" fill="#6C2401"/>
<circle opacity="0.5" cx="80" cy="80" r="80" fill="#FFA478"/>
<path d="M81.1207 26.5002L44.8486 39.7021C44.0028 40.0099 43.3138 40.6509 42.9353 41.4627L26.6189 76.4534C26.2403 77.2652 26.1922 78.205 26.5 79.0507L39.702 115.323C40.0098 116.169 40.6508 116.858 41.4625 117.236L76.4533 133.553C77.265 133.931 78.2049 133.979 79.0506 133.671L115.323 120.469C116.168 120.162 116.857 119.521 117.236 118.709L133.552 83.7181C133.931 82.9064 133.979 81.9666 133.671 81.1208L120.469 44.8487C120.161 44.003 119.52 43.314 118.709 42.9355L83.718 26.619C82.9062 26.2405 81.9664 26.1923 81.1207 26.5002Z" fill="#E77052"/>
<path opacity="0.5" d="M76.68 44.96C76.68 44.1467 76.74 43.3333 76.86 42.52C76.98 41.7067 77.1933 40.94 77.5 40.22C77.8067 39.5 78.24 38.8667 78.8 38.32C79.36 37.76 80.0733 37.32 80.94 37C81.82 36.68 82.8933 36.52 84.16 36.52C84.44 36.52 84.78 36.54 85.18 36.58C85.5933 36.6067 85.9333 36.64 86.2 36.68V39.7C85.9333 39.6467 85.6333 39.6067 85.3 39.58C84.9667 39.54 84.56 39.52 84.08 39.52C83.12 39.52 82.36 39.6667 81.8 39.96C81.24 40.24 80.8333 40.6533 80.58 41.2C80.34 41.7333 80.2 42.38 80.16 43.14H80.28C80.5333 42.6733 80.8733 42.28 81.3 41.96C81.74 41.64 82.34 41.48 83.1 41.48C84.3533 41.48 85.3333 41.8867 86.04 42.7C86.7467 43.5 87.1 44.64 87.1 46.12C87.1 47.72 86.6467 48.9667 85.74 49.86C84.8467 50.7533 83.62 51.2 82.06 51.2C81.0333 51.2 80.1133 50.98 79.3 50.54C78.5 50.0867 77.86 49.4 77.38 48.48C76.9133 47.56 76.68 46.3867 76.68 44.96ZM81.98 48.14C82.3933 48.14 82.7267 47.9867 82.98 47.68C83.2333 47.36 83.36 46.8667 83.36 46.2C83.36 45.6667 83.2533 45.2467 83.04 44.94C82.8267 44.62 82.4867 44.46 82.02 44.46C81.54 44.46 81.1667 44.6267 80.9 44.96C80.6467 45.28 80.52 45.6267 80.52 46C80.52 46.3467 80.5667 46.6867 80.66 47.02C80.7667 47.34 80.9267 47.6067 81.14 47.82C81.3667 48.0333 81.6467 48.14 81.98 48.14Z" fill="white"/>
<path d="M82.0712 106.757C81.6723 106.757 81.3496 106.435 81.3496 106.036C81.3496 105.637 81.6723 105.314 82.0712 105.314C84.9216 105.314 87.6008 104.204 89.6171 102.187L95.3735 96.4311C96.5198 95.2848 96.5198 93.42 95.3735 92.2737L93.519 90.4191C93.2375 90.1377 93.2375 89.68 93.519 89.3986C93.8004 89.1171 94.2581 89.1171 94.5395 89.3986L96.394 91.2531C98.1032 92.9623 98.1032 95.7425 96.394 97.4517L90.6377 103.208C88.3481 105.497 85.3061 106.757 82.0712 106.757Z" fill="white"/>
<path d="M92.287 88.8879C92.0974 88.8879 91.9108 88.8105 91.7768 88.6765C91.7438 88.6435 91.7128 88.6064 91.6871 88.5673C91.6613 88.5281 91.6386 88.4858 91.6211 88.4425C91.6025 88.3992 91.5891 88.3539 91.5799 88.3075C91.5706 88.2611 91.5654 88.2137 91.5654 88.1663C91.5654 88.1188 91.5706 88.0714 91.5799 88.025C91.5891 87.9797 91.6025 87.9343 91.6211 87.89C91.6386 87.8467 91.6613 87.8044 91.6871 87.7653C91.7128 87.7261 91.7438 87.689 91.7768 87.656C91.9448 87.489 92.1932 87.4117 92.4283 87.4591C92.4736 87.4684 92.52 87.4818 92.5633 87.5003C92.6066 87.5178 92.6489 87.5405 92.688 87.5663C92.7272 87.5931 92.7643 87.623 92.7973 87.656C92.8303 87.689 92.8602 87.7261 92.887 87.7653C92.9128 87.8044 92.9354 87.8467 92.953 87.89C92.9715 87.9343 92.9849 87.9797 92.9942 88.025C93.0035 88.0714 93.0086 88.1188 93.0086 88.1663C93.0086 88.2137 93.0035 88.2611 92.9942 88.3075C92.9849 88.3539 92.9715 88.3992 92.953 88.4425C92.9354 88.4858 92.9128 88.5281 92.887 88.5673C92.8602 88.6064 92.8303 88.6435 92.7973 88.6765C92.7643 88.7095 92.7272 88.7404 92.688 88.7662C92.6489 88.792 92.6066 88.8147 92.5633 88.8322C92.52 88.8508 92.4736 88.8642 92.4283 88.8734C92.3819 88.8827 92.3345 88.8879 92.287 88.8879Z" fill="white"/>
<path d="M79.5643 109.263C79.3798 109.263 79.1953 109.192 79.054 109.051L71.1339 101.131C70.8525 100.85 70.8525 100.392 71.1339 100.111L73.8667 97.3777V92.1451C73.8667 91.5822 74.0863 91.0534 74.4842 90.6555L79.1231 86.0166C79.521 85.6186 80.0499 85.3991 80.6127 85.3991H82.6373L83.4899 84.5466C83.561 84.4754 83.627 84.4136 83.6929 84.3569C85.4227 82.8302 88.0545 82.9137 89.6884 84.5466L91.2275 86.0856C91.5089 86.3671 91.5089 86.8248 91.2275 87.1062C90.9461 87.3876 90.4884 87.3876 90.207 87.1062L88.6679 85.5671C87.5721 84.4713 85.8041 84.4156 84.6444 85.4424C84.6413 85.4455 84.6382 85.4475 84.6351 85.4506C84.597 85.4826 84.5547 85.5228 84.5094 85.5681L83.4455 86.632C83.3105 86.767 83.127 86.8433 82.9353 86.8433H80.6127C80.4354 86.8433 80.2694 86.9124 80.1437 87.0381L75.5048 91.677C75.379 91.8028 75.31 91.9688 75.31 92.1461V97.6767C75.31 97.8684 75.2337 98.0519 75.0986 98.1869L72.6648 100.621L80.0746 108.031C80.356 108.312 80.356 108.77 80.0746 109.051C79.9344 109.192 79.7499 109.263 79.5643 109.263Z" fill="white"/>
<path d="M77.9426 114C77.7581 114 77.5736 113.93 77.4324 113.788L66.1681 102.525C65.8867 102.244 65.8867 101.786 66.1681 101.505L69.3483 98.3244C69.6297 98.0429 70.0874 98.0429 70.3689 98.3244L81.6331 109.589C81.9145 109.87 81.9145 110.328 81.6331 110.609L78.4529 113.789C78.3117 113.93 78.1272 114 77.9426 114ZM67.6989 102.015L77.9426 112.259L80.1023 110.099L69.8586 99.8552L67.6989 102.015Z" fill="white"/>
<path d="M68.0165 77.9999C67.8268 77.9999 67.6403 77.9225 67.5062 77.7885C67.3722 77.6545 67.2949 77.469 67.2949 77.2782C67.2949 77.0886 67.3722 76.902 67.5062 76.768C67.6403 76.634 67.8268 76.5566 68.0165 76.5566C68.2072 76.5566 68.3928 76.634 68.5268 76.768C68.6608 76.902 68.7381 77.0886 68.7381 77.2782C68.7381 77.4679 68.6608 77.6545 68.5268 77.7885C68.3928 77.9225 68.2072 77.9999 68.0165 77.9999Z" fill="white"/>
<path d="M73.4459 88.0538C73.2614 88.0538 73.0768 87.9837 72.9356 87.8424L70.6935 85.6003C70.4121 85.3189 70.4121 84.8612 70.6935 84.5797L79.3424 75.9308C79.6239 75.6494 80.0816 75.6494 80.363 75.9308L82.6051 78.1729C82.8866 78.4544 82.8866 78.9121 82.6051 79.1935L73.9562 87.8424C73.8149 87.9837 73.6304 88.0538 73.4459 88.0538ZM72.2233 85.09L73.4449 86.3116L81.0733 78.6832L79.8517 77.4616L72.2233 85.09Z" fill="white"/>
<path d="M78.1614 88.7202C77.9841 88.7202 77.8068 88.6553 77.6687 88.5254L74.8905 85.9224C74.7483 85.7884 74.6658 85.6029 74.6627 85.408C74.6596 85.2122 74.7359 85.0246 74.874 84.8864L79.649 80.1115C79.9304 79.83 80.3881 79.83 80.6695 80.1115C80.951 80.3929 80.951 80.8506 80.6695 81.132L76.4213 85.3802L78.146 86.9956L79.1243 86.0173C79.5222 85.6194 80.051 85.3998 80.6139 85.3998H82.6385L83.1591 84.8792L81.2901 82.8835C81.018 82.5927 81.0324 82.1361 81.3231 81.8639C81.6138 81.5918 82.0705 81.6062 82.3426 81.8969L84.694 84.4081C84.8291 84.5524 84.8992 84.7442 84.8878 84.9411C84.8765 85.138 84.7858 85.3214 84.6363 85.4493C84.5982 85.4812 84.5559 85.5214 84.5105 85.5668L83.4467 86.6306C83.3116 86.7657 83.1281 86.842 82.9364 86.842H80.6139C80.4366 86.842 80.2706 86.911 80.1448 87.0368L78.6728 88.5089C78.5305 88.6501 78.346 88.7202 78.1614 88.7202Z" fill="white"/>
<path d="M97.2871 106.628C97.1098 106.628 96.9325 106.563 96.7943 106.433L93.4976 103.346C93.2069 103.074 93.1915 102.617 93.4646 102.326C93.7368 102.036 94.1935 102.02 94.4842 102.293L97.2716 104.903L99.6663 102.51L95.6387 98.2079L92.4431 101.404C92.1616 101.685 91.7039 101.685 91.4225 101.404C91.1411 101.122 91.1411 100.664 91.4225 100.383L95.1449 96.6606C95.2831 96.5225 95.4707 96.4472 95.6666 96.4493C95.8624 96.4524 96.048 96.5348 96.181 96.6771L101.195 102.033C101.461 102.318 101.454 102.761 101.179 103.036L97.7963 106.418C97.6572 106.558 97.4726 106.628 97.2871 106.628Z" fill="white"/>
<path d="M65.0095 92.0055C64.8177 92.0055 64.6342 91.9292 64.4982 91.7932L64.4755 91.7705C61.1747 88.4697 61.1747 83.0989 64.4765 79.798L65.8919 78.3827C66.1733 78.1012 66.631 78.1012 66.9125 78.3827C67.1939 78.6641 67.1939 79.1218 66.9125 79.4032L65.4971 80.8186C62.923 83.3927 62.7684 87.4831 65.0332 90.2397L81.127 74.1458L76.6479 69.6667L70.2452 76.0694C69.9638 76.3508 69.5061 76.3508 69.2247 76.0694C68.9433 75.788 68.9433 75.3303 69.2247 75.0488L76.1377 68.1359C76.4191 67.8544 76.8768 67.8544 77.1582 68.1359L82.6579 73.6355C82.7929 73.7706 82.8692 73.9541 82.8692 74.1458C82.8692 74.3376 82.7929 74.521 82.6579 74.6561L65.5198 91.7942C65.3847 91.9292 65.2012 92.0055 65.0095 92.0055Z" fill="white"/>
<path d="M84.6039 77.3229C84.4122 77.3229 84.2287 77.2466 84.0936 77.1116L73.985 67.0029C73.7036 66.7215 73.7036 66.2638 73.985 65.9824L74.9097 65.0577C76.3199 63.6474 78.6146 63.6474 80.0248 65.0577L86.0389 71.0717C86.7224 71.7552 87.0986 72.6634 87.0986 73.6293C87.0986 74.5952 86.7224 75.5034 86.0389 76.1869L85.1142 77.1116C84.9792 77.2466 84.7957 77.3229 84.6039 77.3229ZM75.5158 66.4926L84.6039 75.5807L85.0183 75.1663C85.4286 74.756 85.6554 74.2097 85.6554 73.6293C85.6554 73.0489 85.4296 72.5026 85.0183 72.0923L79.0043 66.0782C78.1569 65.2309 76.7776 65.2309 75.9302 66.0782L75.5158 66.4926Z" fill="white"/>
</svg>
