<svg width="160" height="160" viewBox="0 0 160 160" fill="none" xmlns="http://www.w3.org/2000/svg">
<path d="M15 15H35L45 5H5V45L15 35V15Z" fill="#29355A"/>
<path d="M145 145H125L115 155H155V115L145 125V145Z" fill="#29355A"/>
<circle cx="80" cy="80" r="80" fill="#B0BCE1" fill-opacity="0.5"/>
<path d="M81.1207 26.5002L44.8486 39.7021C44.0028 40.0099 43.3138 40.6509 42.9353 41.4627L26.6189 76.4534C26.2403 77.2652 26.1922 78.205 26.5 79.0507L39.702 115.323C40.0098 116.169 40.6508 116.858 41.4625 117.236L76.4533 133.553C77.265 133.931 78.2049 133.979 79.0506 133.671L115.323 120.469C116.168 120.162 116.857 119.521 117.236 118.709L133.552 83.7181C133.931 82.9064 133.979 81.9666 133.671 81.1208L120.469 44.8487C120.161 44.003 119.52 43.314 118.709 42.9355L83.718 26.619C82.9062 26.2405 81.9664 26.1923 81.1207 26.5002Z" fill="#7283BF"/>
<path d="M63.0156 76.4C63.6156 76.9 64.1156 77.4 64.7156 77.9C65.8156 76.8 67.0156 75.6 68.1156 74.5" stroke="white" stroke-width="2" stroke-miterlimit="10" stroke-linecap="round" stroke-linejoin="round"/>
<path d="M71.6856 78.4471C72.9811 75.04 71.2693 71.2279 67.8623 69.9324C64.4552 68.6369 60.6431 70.3487 59.3476 73.7558C58.0521 77.1628 59.7639 80.975 63.171 82.2704C66.578 83.5659 70.3902 81.8541 71.6856 78.4471Z" stroke="white" stroke-width="2" stroke-miterlimit="10" stroke-linecap="round" stroke-linejoin="round"/>
<path d="M93.8152 75.1006H75.6152" stroke="white" stroke-width="2" stroke-miterlimit="10" stroke-linecap="round" stroke-linejoin="round"/>
<path d="M93.8152 77.7002H75.6152" stroke="white" stroke-width="2" stroke-miterlimit="10" stroke-linecap="round" stroke-linejoin="round"/>
<path d="M69.2156 70.5H98.5156C101.216 70.9 103.316 73.1 103.516 75.8C103.716 78.6 101.716 81.2 98.8156 81.8H69.0156" stroke="white" stroke-width="2" stroke-miterlimit="10" stroke-linecap="round" stroke-linejoin="round"/>
<path d="M71.6847 95.3484C72.9801 91.9414 71.2683 88.1292 67.8613 86.8338C64.4542 85.5383 60.6421 87.2501 59.3466 90.6572C58.0512 94.0642 59.7629 97.8764 63.17 99.1718C66.5771 100.467 70.3892 98.7555 71.6847 95.3484Z" stroke="white" stroke-width="2" stroke-miterlimit="10" stroke-linecap="round" stroke-linejoin="round"/>
<path d="M93.8152 92H75.6152" stroke="white" stroke-width="2" stroke-miterlimit="10" stroke-linecap="round" stroke-linejoin="round"/>
<path d="M93.8152 94.6006H75.6152" stroke="white" stroke-width="2" stroke-miterlimit="10" stroke-linecap="round" stroke-linejoin="round"/>
<path d="M69.2156 87.4004H98.5156C101.216 87.8004 103.316 90.0004 103.516 92.7004C103.716 95.5004 101.716 98.1004 98.8156 98.7004H69.0156" stroke="white" stroke-width="2" stroke-miterlimit="10" stroke-linecap="round" stroke-linejoin="round"/>
<path d="M67.625 96.2559H63.2944V95.3446L64.8479 93.7738C65.1603 93.4498 65.412 93.1807 65.6029 92.9667C65.7938 92.7468 65.9327 92.5501 66.0195 92.3765C66.1063 92.1972 66.1497 92.0062 66.1497 91.8037C66.1497 91.555 66.0802 91.3698 65.9414 91.2483C65.8083 91.1268 65.6261 91.0661 65.3946 91.0661C65.1574 91.0661 64.926 91.121 64.7003 91.2309C64.4747 91.3409 64.2375 91.4971 63.9887 91.6996L63.2771 90.8578C63.4506 90.7073 63.6387 90.5656 63.8412 90.4325C64.0437 90.2937 64.2751 90.1837 64.5354 90.1027C64.8016 90.0159 65.1198 89.9726 65.4901 89.9726C65.8951 89.9726 66.2422 90.0478 66.5315 90.1982C66.8266 90.3428 67.0522 90.5424 67.2085 90.797C67.3705 91.0458 67.4515 91.3293 67.4515 91.6475C67.4515 91.9889 67.382 92.3013 67.2432 92.5848C67.1101 92.8683 66.9134 93.1489 66.653 93.4266C66.3985 93.7044 66.0889 94.011 65.7244 94.3466L64.926 95.0929V95.1537H67.625V96.2559Z" fill="white"/>
<path d="M71.6837 112.249C72.9791 108.842 71.2674 105.03 67.8603 103.734C64.4532 102.439 60.6411 104.15 59.3456 107.558C58.0502 110.965 59.762 114.777 63.169 116.072C66.5761 117.368 70.3882 115.656 71.6837 112.249Z" stroke="white" stroke-width="2" stroke-miterlimit="10" stroke-linecap="round" stroke-linejoin="round"/>
<path d="M93.8152 108.9H75.6152" stroke="white" stroke-width="2" stroke-miterlimit="10" stroke-linecap="round" stroke-linejoin="round"/>
<path d="M93.8152 111.5H75.6152" stroke="white" stroke-width="2" stroke-miterlimit="10" stroke-linecap="round" stroke-linejoin="round"/>
<path d="M69.2156 104.301H98.5156C101.216 104.701 103.316 106.901 103.516 109.601C103.716 112.401 101.716 115.001 98.8156 115.601H69.0156" stroke="white" stroke-width="2" stroke-miterlimit="10" stroke-linecap="round" stroke-linejoin="round"/>
<path d="M67.4949 108.306C67.4949 108.601 67.4312 108.856 67.3039 109.07C67.1766 109.278 67.0089 109.451 66.8006 109.59C66.5923 109.723 66.3666 109.825 66.1236 109.894V109.92C66.6212 109.984 67.0031 110.134 67.2692 110.371C67.5411 110.609 67.6771 110.947 67.6771 111.387C67.6771 111.722 67.5845 112.032 67.3994 112.315C67.22 112.599 66.9394 112.825 66.5576 112.992C66.1757 113.16 65.6868 113.244 65.0909 113.244C64.6917 113.244 64.3503 113.215 64.0668 113.157C63.7833 113.094 63.5085 113.01 63.2423 112.906V111.517C63.5085 111.656 63.7833 111.76 64.0668 111.829C64.3503 111.893 64.6107 111.925 64.8479 111.925C65.2587 111.925 65.5364 111.867 65.681 111.751C65.8315 111.636 65.9067 111.479 65.9067 111.283C65.9067 111.144 65.8691 111.025 65.7938 110.927C65.7244 110.828 65.5942 110.753 65.4033 110.701C65.2124 110.643 64.9405 110.614 64.5875 110.614H64.2057V109.356H64.5962C65.0706 109.356 65.4004 109.295 65.5856 109.174C65.7765 109.052 65.872 108.896 65.872 108.705C65.872 108.537 65.8083 108.416 65.681 108.341C65.5537 108.26 65.386 108.219 65.1777 108.219C64.9867 108.219 64.8103 108.245 64.6483 108.297C64.4863 108.349 64.3445 108.407 64.223 108.471C64.1015 108.529 64.0089 108.578 63.9453 108.618L63.251 107.499C63.5056 107.325 63.7978 107.178 64.1276 107.056C64.4631 106.935 64.9 106.874 65.438 106.874C66.0745 106.874 66.5749 107.001 66.9394 107.256C67.3097 107.51 67.4949 107.86 67.4949 108.306Z" fill="white"/>
<path opacity="0.5" d="M82.9 36.52C84.3133 36.52 85.46 36.8067 86.34 37.38C87.22 37.9533 87.66 38.8267 87.66 40C87.66 40.8533 87.4267 41.56 86.96 42.12C86.5067 42.68 85.92 43.1333 85.2 43.48C85.6533 43.7333 86.1 44.0333 86.54 44.38C86.98 44.7133 87.3467 45.1133 87.64 45.58C87.9333 46.0333 88.08 46.5733 88.08 47.2C88.08 47.9733 87.8933 48.66 87.52 49.26C87.1467 49.86 86.5733 50.3333 85.8 50.68C85.04 51.0267 84.06 51.2 82.86 51.2C81.0467 51.2 79.7267 50.8333 78.9 50.1C78.0733 49.3667 77.66 48.4133 77.66 47.24C77.66 46.2533 77.9067 45.4867 78.4 44.94C78.8933 44.3933 79.5133 43.9267 80.26 43.54C79.66 43.14 79.1467 42.6533 78.72 42.08C78.2933 41.5067 78.08 40.8067 78.08 39.98C78.08 39.22 78.2867 38.5867 78.7 38.08C79.1133 37.56 79.68 37.1733 80.4 36.92C81.12 36.6533 81.9533 36.52 82.9 36.52ZM82.88 39.3C82.56 39.3 82.28 39.3933 82.04 39.58C81.8133 39.7667 81.7 40.02 81.7 40.34C81.7 40.6467 81.8067 40.9267 82.02 41.18C82.2467 41.4333 82.52 41.6467 82.84 41.82C83.12 41.66 83.3867 41.4733 83.64 41.26C83.9067 41.0333 84.04 40.7267 84.04 40.34C84.04 40.02 83.92 39.7667 83.68 39.58C83.4533 39.3933 83.1867 39.3 82.88 39.3ZM81.2 47.08C81.2 47.48 81.34 47.8067 81.62 48.06C81.9133 48.3 82.3133 48.42 82.82 48.42C83.4067 48.42 83.84 48.3067 84.12 48.08C84.4 47.8533 84.54 47.5467 84.54 47.16C84.54 46.8667 84.4533 46.6 84.28 46.36C84.1067 46.12 83.9 45.9133 83.66 45.74C83.4333 45.5667 83.24 45.4333 83.08 45.34L82.82 45.18C82.38 45.4067 82 45.6733 81.68 45.98C81.36 46.2867 81.2 46.6533 81.2 47.08Z" fill="white"/>
</svg>
