<svg width="150" height="150" viewBox="0 0 150 150" fill="none" xmlns="http://www.w3.org/2000/svg">
<path d="M10 10H30L40 0H0V40L10 30V10Z" fill="#6D2401"/>
<path d="M140 140H120L110 150H150V110L140 120V140Z" fill="#6D2401"/>
<circle cx="75" cy="75" r="50" fill="#6A2401"/>
<path d="M98.3333 64.9167H51.6667C50.7292 64.9167 50 64.1875 50 63.25V53.6667C50 52.7292 50.7292 52 51.6667 52H98.3333C99.2708 52 100 52.7292 100 53.6667V63.25C100 64.1875 99.2708 64.9167 98.3333 64.9167Z" fill="white"/>
<path d="M98.3333 98.6665H86.0417C85.1042 98.6665 84.375 97.9373 84.375 96.9998V70.3332C84.375 69.3957 85.1042 68.6665 86.0417 68.6665H98.3333C99.2708 68.6665 100 69.3957 100 70.3332V96.9998C100 97.9373 99.2708 98.6665 98.3333 98.6665Z" fill="white"/>
<path d="M78.5417 98.6665H51.6667C50.7292 98.6665 50 97.9373 50 96.9998V70.3332C50 69.3957 50.7292 68.6665 51.6667 68.6665H78.5417C79.4792 68.6665 80.2083 69.3957 80.2083 70.3332V96.9998C80.2083 97.9373 79.4792 98.6665 78.5417 98.6665Z" fill="white"/>
</svg>
