<svg width="150" height="150" viewBox="0 0 150 150" fill="none" xmlns="http://www.w3.org/2000/svg">
<path d="M10 10H30L40 0H0V40L10 30V10Z" fill="#6D2401"/>
<path d="M140 140H120L110 150H150V110L140 120V140Z" fill="#6D2401"/>
<circle cx="75" cy="75" r="50" fill="#6A2401"/>
<path d="M77.6382 69.4472L69.9749 63.6935V86.3065L77.6382 80.5528L85.0502 75L77.6382 69.4472ZM77.6382 69.4472L69.9749 63.6935V86.3065L77.6382 80.5528L85.0502 75L77.6382 69.4472ZM77.6382 69.4472L69.9749 63.6935V86.3065L77.6382 80.5528L85.0502 75L77.6382 69.4472ZM72.4874 55.0754V50C67.4372 50.5025 62.8392 52.5126 59.1206 55.5528L62.6884 59.1457C65.4774 56.9849 68.8191 55.5276 72.4874 55.0754ZM59.1457 62.6884L55.5528 59.1206C52.5126 62.8392 50.5025 67.4372 50 72.4874H55.0754C55.5276 68.8191 56.9849 65.4774 59.1457 62.6884ZM55.0754 77.5126H50C50.5025 82.5628 52.5126 87.1608 55.5528 90.8794L59.1457 87.2864C56.9849 84.5226 55.5276 81.1809 55.0754 77.5126ZM59.1206 94.4472C62.8392 97.4874 67.4623 99.4975 72.4874 100V94.9246C68.8191 94.4724 65.4774 93.0151 62.6884 90.8543L59.1206 94.4472ZM100.126 75C100.126 87.9648 90.2764 98.6683 77.6382 100V94.9246C87.4874 93.6181 95.1005 85.1759 95.1005 75C95.1005 64.8241 87.4874 56.3819 77.6382 55.0754V50C90.2764 51.3317 100.126 62.0352 100.126 75Z" fill="white"/>
</svg>
