<svg width="100" height="100" viewBox="0 0 100 100" fill="none" xmlns="http://www.w3.org/2000/svg">
<circle cx="50" cy="50" r="50" fill="#E77052"/>
<path d="M73.3333 39.9167H26.6667C25.7292 39.9167 25 39.1875 25 38.25V28.6667C25 27.7292 25.7292 27 26.6667 27H73.3333C74.2708 27 75 27.7292 75 28.6667V38.25C75 39.1875 74.2708 39.9167 73.3333 39.9167Z" fill="white"/>
<path d="M73.3333 73.667H61.0417C60.1042 73.667 59.375 72.9378 59.375 72.0003V45.3337C59.375 44.3962 60.1042 43.667 61.0417 43.667H73.3333C74.2708 43.667 75 44.3962 75 45.3337V72.0003C75 72.9378 74.2708 73.667 73.3333 73.667Z" fill="white"/>
<path d="M53.5417 73.667H26.6667C25.7292 73.667 25 72.9378 25 72.0003V45.3337C25 44.3962 25.7292 43.667 26.6667 43.667H53.5417C54.4792 43.667 55.2083 44.3962 55.2083 45.3337V72.0003C55.2083 72.9378 54.4792 73.667 53.5417 73.667Z" fill="white"/>
</svg>
