<svg width="150" height="150" viewBox="0 0 150 150" fill="none" xmlns="http://www.w3.org/2000/svg">
<path d="M10 10H30L40 0H0V40L10 30V10Z" fill="#513401"/>
<path d="M140 140H120L110 150H150V110L140 120V140Z" fill="#513401"/>
<circle cx="75" cy="75" r="50" fill="#513401"/>
<path d="M88.3137 61.2841C85.2283 58.4486 81.1905 56.875 77 56.875C72.8095 56.875 68.7718 58.4486 65.6863 61.2841C62.7099 64.3067 60.9871 68.3434 60.8639 72.5837C61.0076 73.8564 60.8816 75.145 60.4942 76.3658C60.1068 77.5865 59.4666 78.712 58.6153 79.6689C58.2402 80.044 58.0295 80.5527 58.0295 81.0831C58.0295 81.6135 58.2402 82.1223 58.6153 82.4973L67.1005 90.9826C67.4756 91.3577 67.9843 91.5684 68.5148 91.5684C69.0452 91.5684 69.5539 91.3577 69.929 90.9826C70.8723 90.128 71.9875 89.4852 73.1998 89.0974C74.4122 88.7095 75.6934 88.5856 76.9576 88.734C79.0777 88.7364 81.1764 88.3105 83.1279 87.4818C85.0793 86.6531 86.8432 85.4387 88.3137 83.9115C89.8495 82.3781 91.0644 80.5542 91.8875 78.5461C92.7107 76.5381 93.1255 74.3861 93.1079 72.216C93.0799 70.1659 92.6412 68.1423 91.8178 66.2646C90.9943 64.387 89.8029 62.6934 88.3137 61.2841ZM77.0849 84.7884C74.1198 84.5491 71.1571 85.2786 68.642 86.8672L62.7306 80.9558C64.3044 78.4641 65.0517 75.5392 64.8661 72.5978C64.9858 69.4143 66.2865 66.3894 68.5148 64.1126C70.8331 61.9944 73.8598 60.82 77 60.82C80.1403 60.82 83.167 61.9944 85.4853 64.1126C86.5986 65.1512 87.4896 66.4048 88.1046 67.7977C88.7196 69.1905 89.0457 70.6935 89.0633 72.216C89.0879 73.8579 88.7841 75.4881 88.1696 77.0108C87.5552 78.5336 86.6425 79.9181 85.4853 81.0831C84.3931 82.2254 83.0835 83.1378 81.6337 83.7668C80.1838 84.3959 78.6228 84.7287 77.0425 84.7459L77.0849 84.7884Z" fill="white"/>
<path d="M65.686 92.3971L57.2007 83.9118C56.8257 83.5367 56.317 83.326 55.7865 83.326C55.2561 83.326 54.7474 83.5367 54.3723 83.9118C53.9972 84.2868 53.7865 84.7956 53.7865 85.326C53.7865 85.8564 53.9972 86.3651 54.3723 86.7402L62.8576 95.2255C63.2327 95.6006 63.7414 95.8113 64.2718 95.8113C64.8022 95.8113 65.3109 95.6006 65.686 95.2255C66.0611 94.8504 66.2718 94.3417 66.2718 93.8113C66.2718 93.2808 66.0611 92.7721 65.686 92.3971Z" fill="white"/>
<path d="M60.0292 95.2259L54.3723 89.569C53.9972 89.1939 53.4885 88.9832 52.9581 88.9832C52.4277 88.9832 51.919 89.1939 51.5439 89.569C51.1688 89.9441 50.9581 90.4528 50.9581 90.9832C50.9581 91.5136 51.1688 92.0224 51.5439 92.3974L57.2007 98.0543C57.5758 98.4294 58.0845 98.6401 58.615 98.6401C59.1454 98.6401 59.6541 98.4294 60.0292 98.0543C60.4042 97.6792 60.615 97.1705 60.615 96.6401C60.615 96.1096 60.4042 95.6009 60.0292 95.2259Z" fill="white"/>
<path d="M91.1421 58.4558C91.5172 58.8309 92.0259 59.0416 92.5563 59.0416C93.0868 59.0416 93.5955 58.8309 93.9706 58.4558L96.799 55.6274C97.1741 55.2523 97.3848 54.7436 97.3848 54.2132C97.3848 53.6828 97.1741 53.1741 96.799 52.799C96.4239 52.4239 95.9152 52.2132 95.3848 52.2132C94.8543 52.2132 94.3456 52.4239 93.9706 52.799L91.1421 55.6274C90.7671 56.0025 90.5563 56.5112 90.5563 57.0416C90.5563 57.5721 90.7671 58.0808 91.1421 58.4558Z" fill="white"/>
<path d="M62.8576 55.6279L60.0292 52.7995C59.6541 52.4244 59.1454 52.2137 58.6149 52.2137C58.0845 52.2137 57.5758 52.4244 57.2007 52.7995C56.8257 53.1745 56.6149 53.6832 56.6149 54.2137C56.6149 54.7441 56.8257 55.2528 57.2007 55.6279L60.0292 58.4563C60.4042 58.8314 60.9129 59.0421 61.4434 59.0421C61.9738 59.0421 62.4825 58.8314 62.8576 58.4563C63.2327 58.0812 63.4434 57.5725 63.4434 57.0421C63.4434 56.5117 63.2327 56.003 62.8576 55.6279Z" fill="white"/>
<path d="M96.7987 89.5688L93.9703 86.7404C93.5952 86.3653 93.0865 86.1546 92.5561 86.1546C92.0256 86.1546 91.5169 86.3653 91.1419 86.7404C90.7668 87.1155 90.5561 87.6242 90.5561 88.1546C90.5561 88.685 90.7668 89.1937 91.1419 89.5688L93.9703 92.3972C94.3454 92.7723 94.8541 92.983 95.3845 92.983C95.9149 92.983 96.4236 92.7723 96.7987 92.3972C97.1738 92.0222 97.3845 91.5135 97.3845 90.983C97.3845 90.4526 97.1738 89.9439 96.7987 89.5688Z" fill="white"/>
<path d="M105.001 72.5989C104.999 72.0705 104.788 71.5642 104.415 71.1906C104.041 70.817 103.535 70.6064 103.007 70.6048L99.0044 70.5907C98.7403 70.5896 98.4787 70.6408 98.2346 70.7414C97.9905 70.8419 97.7687 70.9898 97.582 71.1765C97.3953 71.3632 97.2474 71.585 97.1468 71.8291C97.0463 72.0732 96.9951 72.3349 96.9962 72.5989C96.9973 72.8621 97.0503 73.1225 97.1522 73.3652C97.2541 73.6079 97.403 73.828 97.5902 74.0131C97.7752 74.2003 97.9954 74.3491 98.2381 74.451C98.4807 74.553 98.7412 74.606 99.0044 74.6071L103.007 74.5929C103.535 74.5913 104.041 74.3808 104.415 74.0071C104.788 73.6335 104.999 73.1272 105.001 72.5989Z" fill="white"/>
<path d="M77 52.6011C77.264 52.6022 77.5256 52.5509 77.7697 52.4504C78.0139 52.3499 78.2357 52.202 78.4224 52.0153C78.6091 51.8286 78.7569 51.6068 78.8575 51.3627C78.958 51.1185 79.0092 50.8569 79.0081 50.5929L78.994 46.5907C78.9551 46.0884 78.7282 45.6194 78.3585 45.2772C77.9889 44.935 77.5037 44.7449 77 44.7449C76.4962 44.7449 76.0111 44.935 75.6414 45.2772C75.2717 45.6194 75.0448 46.0884 75.0059 46.5907L74.9918 50.5929C74.9929 50.8561 75.0459 51.1165 75.1478 51.3592C75.2497 51.6019 75.3986 51.8221 75.5857 52.0071C75.7708 52.1943 75.991 52.3431 76.2336 52.445C76.4763 52.547 76.7367 52.6 77 52.6011Z" fill="white"/>
</svg>
