<svg width="100" height="100" viewBox="0 0 100 100" fill="none" xmlns="http://www.w3.org/2000/svg">
<circle cx="50" cy="50" r="50" fill="#ECAE65"/>
<path d="M63.3137 36.2846C60.2283 33.4491 56.1905 31.8755 52 31.8755C47.8095 31.8755 43.7718 33.4491 40.6863 36.2846C37.7099 39.3072 35.9871 43.3439 35.8639 47.5842C36.0076 48.8569 35.8816 50.1455 35.4942 51.3663C35.1068 52.587 34.4666 53.7125 33.6153 54.6694C33.2402 55.0445 33.0295 55.5532 33.0295 56.0836C33.0295 56.614 33.2402 57.1227 33.6153 57.4978L42.1005 65.9831C42.4756 66.3582 42.9843 66.5689 43.5148 66.5689C44.0452 66.5689 44.5539 66.3582 44.929 65.9831C45.8723 65.1285 46.9875 64.4857 48.1999 64.0979C49.4122 63.71 50.6935 63.5861 51.9576 63.7345C54.0777 63.7369 56.1764 63.311 58.1279 62.4823C60.0793 61.6536 61.8432 60.4392 63.3137 58.912C64.8495 57.3786 66.0644 55.5547 66.8875 53.5466C67.7107 51.5385 68.1255 49.3866 68.1079 47.2165C68.0799 45.1664 67.6412 43.1427 66.8178 41.2651C65.9943 39.3874 64.8029 37.6939 63.3137 36.2846ZM52.0849 59.7888C49.1198 59.5496 46.1571 60.2791 43.642 61.8677L37.7306 55.9563C39.3044 53.4645 40.0517 50.5396 39.8661 47.5983C39.9858 44.4148 41.2865 41.3899 43.5148 39.113C45.8331 36.9949 48.8598 35.8205 52 35.8205C55.1403 35.8205 58.167 36.9949 60.4853 39.113C61.5986 40.1517 62.4897 41.4053 63.1046 42.7981C63.7196 44.191 64.0457 45.694 64.0633 47.2165C64.0879 48.8583 63.7841 50.4886 63.1696 52.0113C62.5552 53.5341 61.6425 54.9186 60.4853 56.0836C59.3931 57.2259 58.0835 58.1383 56.6337 58.7673C55.1838 59.3963 53.6228 59.7292 52.0425 59.7464L52.0849 59.7888Z" fill="white"/>
<path d="M40.686 67.3975L32.2007 58.9123C31.8257 58.5372 31.3169 58.3265 30.7865 58.3265C30.2561 58.3265 29.7474 58.5372 29.3723 58.9123C28.9972 59.2873 28.7865 59.796 28.7865 60.3265C28.7865 60.8569 28.9972 61.3656 29.3723 61.7407L37.8576 70.226C38.2327 70.601 38.7414 70.8118 39.2718 70.8118C39.8022 70.8118 40.3109 70.601 40.686 70.226C41.0611 69.8509 41.2718 69.3422 41.2718 68.8118C41.2718 68.2813 41.0611 67.7726 40.686 67.3975Z" fill="white"/>
<path d="M35.0292 70.2254L29.3723 64.5685C28.9972 64.1934 28.4885 63.9827 27.9581 63.9827C27.4277 63.9827 26.919 64.1934 26.5439 64.5685C26.1688 64.9436 25.9581 65.4523 25.9581 65.9827C25.9581 66.5132 26.1688 67.0219 26.5439 67.3969L32.2007 73.0538C32.5758 73.4289 33.0845 73.6396 33.615 73.6396C34.1454 73.6396 34.6541 73.4289 35.0292 73.0538C35.4042 72.6787 35.615 72.17 35.615 71.6396C35.615 71.1091 35.4042 70.6004 35.0292 70.2254Z" fill="white"/>
<path d="M66.1421 33.4558C66.5172 33.8309 67.0259 34.0416 67.5563 34.0416C68.0868 34.0416 68.5955 33.8309 68.9706 33.4558L71.799 30.6274C72.1741 30.2523 72.3848 29.7436 72.3848 29.2132C72.3848 28.6828 72.1741 28.1741 71.799 27.799C71.4239 27.4239 70.9152 27.2132 70.3848 27.2132C69.8543 27.2132 69.3456 27.4239 68.9706 27.799L66.1421 30.6274C65.7671 31.0025 65.5563 31.5112 65.5563 32.0416C65.5563 32.5721 65.7671 33.0808 66.1421 33.4558Z" fill="white"/>
<path d="M37.8576 30.6274L35.0292 27.799C34.6541 27.4239 34.1454 27.2132 33.6149 27.2132C33.0845 27.2132 32.5758 27.4239 32.2007 27.799C31.8257 28.1741 31.6149 28.6828 31.6149 29.2132C31.6149 29.7436 31.8257 30.2523 32.2007 30.6274L35.0292 33.4558C35.4042 33.8309 35.9129 34.0416 36.4434 34.0416C36.9738 34.0416 37.4825 33.8309 37.8576 33.4558C38.2327 33.0808 38.4434 32.5721 38.4434 32.0416C38.4434 31.5112 38.2327 31.0025 37.8576 30.6274Z" fill="white"/>
<path d="M71.7987 64.5688L68.9703 61.7404C68.5952 61.3653 68.0865 61.1546 67.5561 61.1546C67.0256 61.1546 66.5169 61.3653 66.1419 61.7404C65.7668 62.1155 65.5561 62.6242 65.5561 63.1546C65.5561 63.685 65.7668 64.1937 66.1419 64.5688L68.9703 67.3972C69.3454 67.7723 69.8541 67.983 70.3845 67.983C70.9149 67.983 71.4236 67.7723 71.7987 67.3972C72.1738 67.0222 72.3845 66.5135 72.3845 65.983C72.3845 65.4526 72.1738 64.9439 71.7987 64.5688Z" fill="white"/>
<path d="M80.0006 47.5984C79.9991 47.07 79.7885 46.5637 79.4149 46.1901C79.0412 45.8165 78.535 45.6059 78.0066 45.6043L74.0044 45.5902C73.7403 45.5891 73.4787 45.6403 73.2346 45.7409C72.9905 45.8414 72.7687 45.9893 72.582 46.176C72.3953 46.3627 72.2474 46.5845 72.1468 46.8286C72.0463 47.0727 71.9951 47.3344 71.9962 47.5984C71.9973 47.8616 72.0503 48.122 72.1522 48.3647C72.2541 48.6074 72.403 48.8276 72.5902 49.0126C72.7752 49.1998 72.9954 49.3486 73.2381 49.4506C73.4807 49.5525 73.7412 49.6055 74.0044 49.6066L78.0066 49.5924C78.535 49.5909 79.0412 49.3803 79.4149 49.0067C79.7885 48.633 79.9991 48.1268 80.0006 47.5984Z" fill="white"/>
<path d="M52 27.6006C52.264 27.6017 52.5256 27.5505 52.7697 27.4499C53.0139 27.3494 53.2357 27.2015 53.4224 27.0148C53.6091 26.8281 53.7569 26.6063 53.8575 26.3622C53.958 26.118 54.0092 25.8564 54.0081 25.5924L53.994 21.5902C53.9551 21.0879 53.7282 20.6189 53.3585 20.2767C52.9889 19.9345 52.5037 19.7444 52 19.7444C51.4962 19.7444 51.0111 19.9345 50.6414 20.2767C50.2717 20.6189 50.0448 21.0879 50.0059 21.5902L49.9918 25.5924C49.9928 25.8556 50.0459 26.116 50.1478 26.3587C50.2497 26.6014 50.3985 26.8216 50.5857 27.0066C50.7708 27.1938 50.991 27.3426 51.2336 27.4446C51.4763 27.5465 51.7367 27.5995 52 27.6006Z" fill="white"/>
</svg>
