<svg width="100" height="100" viewBox="0 0 100 100" fill="none" xmlns="http://www.w3.org/2000/svg">
<circle cx="50" cy="50" r="50" fill="#ECAE65"/>
<path d="M52.6382 44.4472L44.9749 38.6935V61.3065L52.6382 55.5528L60.0502 50L52.6382 44.4472ZM52.6382 44.4472L44.9749 38.6935V61.3065L52.6382 55.5528L60.0502 50L52.6382 44.4472ZM52.6382 44.4472L44.9749 38.6935V61.3065L52.6382 55.5528L60.0502 50L52.6382 44.4472ZM47.4874 30.0754V25C42.4372 25.5025 37.8392 27.5126 34.1206 30.5528L37.6884 34.1457C40.4774 31.9849 43.8191 30.5276 47.4874 30.0754ZM34.1457 37.6884L30.5528 34.1206C27.5126 37.8392 25.5025 42.4372 25 47.4874H30.0754C30.5276 43.8191 31.9849 40.4774 34.1457 37.6884ZM30.0754 52.5126H25C25.5025 57.5628 27.5126 62.1608 30.5528 65.8794L34.1457 62.2864C31.9849 59.5226 30.5276 56.1809 30.0754 52.5126ZM34.1206 69.4472C37.8392 72.4874 42.4623 74.4975 47.4874 75V69.9246C43.8191 69.4724 40.4774 68.0151 37.6884 65.8543L34.1206 69.4472ZM75.1256 50C75.1256 62.9648 65.2764 73.6683 52.6382 75V69.9246C62.4874 68.6181 70.1005 60.1759 70.1005 50C70.1005 39.8241 62.4874 31.3819 52.6382 30.0754V25C65.2764 26.3317 75.1256 37.0352 75.1256 50Z" fill="white"/>
</svg>
